<?xml version="1.0" encoding="UTF-8" standalone="no"?>
<svg
   xmlns:dc="http://purl.org/dc/elements/1.1/"
   xmlns:cc="http://creativecommons.org/ns#"
   xmlns:rdf="http://www.w3.org/1999/02/22-rdf-syntax-ns#"
   xmlns:svg="http://www.w3.org/2000/svg"
   xmlns="http://www.w3.org/2000/svg"
   viewBox="0 0 1016 200"
   height="200"
   width="1016"
   xml:space="preserve"
   id="svg2"
   version="1.1"><metadata
     id="metadata8"><rdf:RDF><cc:Work
         rdf:about=""><dc:format>image/svg+xml</dc:format><dc:type
           rdf:resource="http://purl.org/dc/dcmitype/StillImage" /></cc:Work></rdf:RDF></metadata><defs
     id="defs6"><clipPath
       id="clipPath34"
       clipPathUnits="userSpaceOnUse"><path
         id="path32"
         d="M 0,150 H 762 V 0 H 0 Z" /></clipPath></defs><g
     transform="matrix(1.3333333,0,0,-1.3333333,0,200)"
     id="g10"><path
       id="path12"
       style="fill:#232323;fill-opacity:1;fill-rule:nonzero;stroke:none"
       d="M 147.659,109.6 H 555.3 V 41 H 147.659 Z" /><g
       transform="translate(523.1,73.8)"
       id="g14"><path
         id="path16"
         style="fill:#c8c8c8;fill-opacity:1;fill-rule:nonzero;stroke:none"
         d="m 0,0 -10.7,-10.7 1.5,-1.5 10.6,11 11,-11 1.5,1.5 L 3.2,0.3 13.9,11 12.1,12.8 1.4,1.8 -9.3,12.5 -11.1,10.7 Z" /></g><path
       id="path18"
       style="fill:none;stroke:#c8c8c8;stroke-width:1.45200002;stroke-linecap:butt;stroke-linejoin:miter;stroke-miterlimit:10;stroke-dasharray:none;stroke-opacity:1"
       d="m 452.7,86.7 h 25 v -25 h -25 z" /><g
       transform="translate(383,86.9)"
       id="g20"><path
         id="path22"
         style="fill:none;stroke:#c8c8c8;stroke-width:1.45200002;stroke-linecap:butt;stroke-linejoin:miter;stroke-miterlimit:10;stroke-dasharray:none;stroke-opacity:1"
         d="M 0,0 V -25.5" /></g><g
       transform="translate(405,64.3079)"
       id="g24"><path
         id="path26"
         style="fill:none;stroke:#c8c8c8;stroke-width:1.45200002;stroke-linecap:butt;stroke-linejoin:miter;stroke-miterlimit:10;stroke-dasharray:none;stroke-opacity:1"
         d="M 0,0 H 25" /></g><g
       id="g28"><g
         clip-path="url(#clipPath34)"
         id="g30"><g
           transform="translate(343.6,67.6)"
           id="g36"><path
             id="path38"
             style="fill:#c8c8c8;fill-opacity:1;fill-rule:nonzero;stroke:none"
             d="M 0,0 C 0,0.5 0.1,1.1 0.5,1.2 0.9,1.3 1.2,1.6 1.7,1.6 2.1,1.6 2.6,1.5 2.8,1.2 3.2,1.1 3.3,0.5 3.3,0 3.3,-0.5 3.2,-1.1 2.8,-1.2 2.4,-1.3 2.1,-1.6 1.7,-1.6 1.2,-1.6 0.8,-1.5 0.5,-1.2 0.1,-1.1 0,-0.7 0,0 M 0.2,4.1 C 0.2,4.8 0.3,5.6 0.6,5.9 1,6.4 1.3,7 2.1,7.5 2.8,7.9 3.2,8.2 3.3,8.4 3.7,8.8 3.8,8.9 3.8,9.1 3.9,9.5 3.9,9.6 3.9,10 3.9,10.5 3.8,10.9 3.4,11.2 3.3,11.7 2.7,11.7 1.9,11.7 1.1,11.7 0.7,11.6 0.1,11.3 -0.5,11 -1,10.9 -1.7,10.6 l -0.9,2.1 c 0.5,0.4 1.2,0.7 2.1,0.9 C 0.2,13.7 1.1,14 2,14 3.5,14 4.5,13.6 5.4,12.9 6.1,12.2 6.6,11.3 6.6,10.2 6.6,9.7 6.5,9.1 6.2,8.6 6.1,8.2 5.7,7.7 5.3,7.4 4.9,7.1 4.4,6.7 3.8,6.2 3.4,5.8 3.1,5.5 2.7,5.3 2.6,5.2 2.3,4.9 2.3,4.8 2.3,4.7 2.2,4.3 2.2,3.9 V 3.4 h -2.3 v 0.7 z" /></g><g
           transform="translate(333,74.2)"
           id="g40"><path
             id="path42"
             style="fill:none;stroke:#c8c8c8;stroke-width:1.45200002;stroke-linecap:butt;stroke-linejoin:miter;stroke-miterlimit:10;stroke-dasharray:none;stroke-opacity:1"
             d="M 0,0 C 0,7 5.5,12.5 12.5,12.5 19.5,12.5 25,7 25,0 25,-7 19.5,-12.5 12.5,-12.5 5.5,-12.5 0,-7 0,0 Z" /></g><g
           transform="translate(293.9,78.1)"
           id="g44"><path
             id="path46"
             style="fill:none;stroke:#c8c8c8;stroke-width:1.45200002;stroke-linecap:butt;stroke-linejoin:miter;stroke-miterlimit:10;stroke-dasharray:none;stroke-opacity:1"
             d="m 0,0 c 0,-2.6 -2,-4.6 -4.6,-4.6 -2.6,0 -4.5,2 -4.5,4.6 0,2.6 2,4.5 4.5,4.5 C -2.1,4.5 0,2.6 0,0 Z" /></g><g
           transform="translate(280.5,65.3)"
           id="g48"><path
             id="path50"
             style="fill:none;stroke:#c8c8c8;stroke-width:1.45200002;stroke-linecap:butt;stroke-linejoin:miter;stroke-miterlimit:10;stroke-dasharray:none;stroke-opacity:1"
             d="m 0,0 c 1.5,3.3 4.9,5.6 8.8,5.6 3.9,0 7.3,-2.3 8.8,-5.6" /></g><g
           transform="translate(277,74.2)"
           id="g52"><path
             id="path54"
             style="fill:none;stroke:#c8c8c8;stroke-width:1.45200002;stroke-linecap:butt;stroke-linejoin:miter;stroke-miterlimit:10;stroke-dasharray:none;stroke-opacity:1"
             d="M 0,0 C 0,6.9 5.6,12.5 12.5,12.5 19.4,12.5 25,6.9 25,0 25,-6.9 19.4,-12.5 12.5,-12.5 5.4,-12.3 0,-6.9 0,0 Z" /></g><g
           transform="translate(232,67.9)"
           id="g56"><path
             id="path58"
             style="fill:none;stroke:#c8c8c8;stroke-width:1.45200002;stroke-linecap:butt;stroke-linejoin:miter;stroke-miterlimit:10;stroke-dasharray:none;stroke-opacity:1"
             d="m 0,0 -0.8,-2.9 c -0.1,-0.4 -0.3,-0.7 -0.7,-0.8 -0.3,-0.1 -0.7,-0.2 -1,-0.1 l -2.3,0.7 c -0.1,0.1 -0.4,0.1 -0.5,0.2 -0.1,0.1 -0.3,0.2 -0.4,0.4 -0.1,0.1 -0.1,0.4 -0.1,0.5 0,0.1 0,0.4 0.1,0.5 l 0.8,2.9" /></g><g
           transform="translate(243.6,75)"
           id="g60"><path
             id="path62"
             style="fill:none;stroke:#c8c8c8;stroke-width:1.45200002;stroke-linecap:butt;stroke-linejoin:miter;stroke-miterlimit:10;stroke-dasharray:none;stroke-opacity:1"
             d="M 0,0 H 4.1" /></g><g
           transform="translate(243.6,79.5)"
           id="g64"><path
             id="path66"
             style="fill:none;stroke:#c8c8c8;stroke-width:1.45200002;stroke-linecap:butt;stroke-linejoin:miter;stroke-miterlimit:10;stroke-dasharray:none;stroke-opacity:1"
             d="M 0,0 2.8,2.8" /></g><g
           transform="translate(243.6,70.2)"
           id="g68"><path
             id="path70"
             style="fill:none;stroke:#c8c8c8;stroke-width:1.45200002;stroke-linecap:butt;stroke-linejoin:miter;stroke-miterlimit:10;stroke-dasharray:none;stroke-opacity:1"
             d="M 0,0 2.7,-2.7" /></g><g
           transform="translate(223.4,79.5)"
           id="g72"><path
             id="path74"
             style="fill:none;stroke:#c8c8c8;stroke-width:1.45200002;stroke-linecap:butt;stroke-linejoin:miter;stroke-miterlimit:10;stroke-dasharray:none;stroke-opacity:1"
             d="m 0,0 c -0.4,-0.1 -0.7,-0.3 -0.7,-0.7 v -7.8 c 0,-0.1 0.1,-0.3 0.1,-0.4 0.1,-0.1 0.2,-0.2 0.4,-0.2 L 16.9,-14 V 4.8 Z" /></g><path
           id="path76"
           style="fill:none;stroke:#c8c8c8;stroke-width:1.68700004;stroke-linecap:butt;stroke-linejoin:miter;stroke-miterlimit:10;stroke-dasharray:none;stroke-opacity:1"
           d="m 187.421,79.846 h -8.822 v -8.822 h 8.822 z" /><g
           transform="translate(178.5986,88.3686)"
           id="g78"><path
             id="path80"
             style="fill:none;stroke:#c8c8c8;stroke-width:1.68700004;stroke-linecap:butt;stroke-linejoin:miter;stroke-miterlimit:10;stroke-dasharray:none;stroke-opacity:1"
             d="M 0,0 V -3.054" /></g><g
           transform="translate(187.4196,88.3686)"
           id="g82"><path
             id="path84"
             style="fill:none;stroke:#c8c8c8;stroke-width:1.68700004;stroke-linecap:butt;stroke-linejoin:miter;stroke-miterlimit:10;stroke-dasharray:none;stroke-opacity:1"
             d="M 0,0 V -3.054" /></g><g
           transform="translate(178.5986,65.637)"
           id="g86"><path
             id="path88"
             style="fill:none;stroke:#c8c8c8;stroke-width:1.68700004;stroke-linecap:butt;stroke-linejoin:miter;stroke-miterlimit:10;stroke-dasharray:none;stroke-opacity:1"
             d="M 0,0 V -3.054" /></g><g
           transform="translate(187.4196,65.637)"
           id="g90"><path
             id="path92"
             style="fill:none;stroke:#c8c8c8;stroke-width:1.68700004;stroke-linecap:butt;stroke-linejoin:miter;stroke-miterlimit:10;stroke-dasharray:none;stroke-opacity:1"
             d="M 0,0 V -3.054" /></g><g
           transform="translate(174.1849,84.9356)"
           id="g94"><path
             id="path96"
             style="fill:none;stroke:#c8c8c8;stroke-width:1.68700004;stroke-linecap:butt;stroke-linejoin:miter;stroke-miterlimit:10;stroke-dasharray:none;stroke-opacity:1"
             d="m 0,0 c -0.351,0 -0.636,-0.285 -0.636,-0.636 v -17.643 c 0,-0.352 0.285,-0.637 0.636,-0.637 h 17.643 c 0.351,0 0.636,0.285 0.636,0.637 V -0.636 C 18.279,-0.285 17.994,0 17.643,0 Z" /></g><g
           transform="translate(170.1157,71.0713)"
           id="g98"><path
             id="path100"
             style="fill:none;stroke:#c8c8c8;stroke-width:1.68700004;stroke-linecap:butt;stroke-linejoin:miter;stroke-miterlimit:10;stroke-dasharray:none;stroke-opacity:1"
             d="M 0,0 H 3.054" /></g><g
           transform="translate(170.1157,79.8857)"
           id="g102"><path
             id="path104"
             style="fill:none;stroke:#c8c8c8;stroke-width:1.68700004;stroke-linecap:butt;stroke-linejoin:miter;stroke-miterlimit:10;stroke-dasharray:none;stroke-opacity:1"
             d="M 0,0 H 3.054" /></g><g
           transform="translate(192.8473,71.0713)"
           id="g106"><path
             id="path108"
             style="fill:none;stroke:#c8c8c8;stroke-width:1.68700004;stroke-linecap:butt;stroke-linejoin:miter;stroke-miterlimit:10;stroke-dasharray:none;stroke-opacity:1"
             d="M 0,0 H 3.054" /></g><g
           transform="translate(192.8473,79.8857)"
           id="g110"><path
             id="path112"
             style="fill:none;stroke:#c8c8c8;stroke-width:1.68700004;stroke-linecap:butt;stroke-linejoin:miter;stroke-miterlimit:10;stroke-dasharray:none;stroke-opacity:1"
             d="M 0,0 H 3.054" /></g></g></g></g></svg>