<?xml version="1.0" encoding="UTF-8" standalone="no"?>
<svg
   xmlns:dc="http://purl.org/dc/elements/1.1/"
   xmlns:cc="http://creativecommons.org/ns#"
   xmlns:rdf="http://www.w3.org/1999/02/22-rdf-syntax-ns#"
   xmlns:svg="http://www.w3.org/2000/svg"
   xmlns="http://www.w3.org/2000/svg"
   viewBox="0 0 1122.52 793.70667"
   height="793.70667"
   width="1122.52"
   xml:space="preserve"
   id="svg2"
   version="1.1"><metadata
     id="metadata8"><rdf:RDF><cc:Work
         rdf:about=""><dc:format>image/svg+xml</dc:format><dc:type
           rdf:resource="http://purl.org/dc/dcmitype/StillImage" /></cc:Work></rdf:RDF></metadata><defs
     id="defs6"><clipPath
       id="clipPath18"
       clipPathUnits="userSpaceOnUse"><path
         id="path16"
         d="M 0,595.28 H 841.89 V 0 H 0 Z" /></clipPath></defs><g
     transform="matrix(1.3333333,0,0,-1.3333333,0,793.70667)"
     id="g10"><g
       id="g12"><g
         clip-path="url(#clipPath18)"
         id="g14"><g
           transform="translate(701.9902,161.1836)"
           id="g20"><path
             id="path22"
             style="fill:#747373;fill-opacity:1;fill-rule:nonzero;stroke:none"
             d="m 0,0 c -0.181,1.619 -0.375,3.418 -0.58,5.354 0.013,0.513 -0.004,1.042 -0.059,1.597 -1.318,13.574 -6.063,61.07 -6.063,61.07 0,0 0.244,5.485 -6.948,10.119 -4.639,2.985 -17.9,6.176 -31.769,8.197 l -0.047,0.059 -10e-4,-0.052 c -0.02,0.003 -0.045,0.006 -0.067,0.01 -0.672,0.646 -1.616,1.049 -2.661,1.049 h -4.725 c -0.615,0.77 -1.372,1.486 -2.25,2.128 -0.129,0.207 -0.272,0.408 -0.429,0.605 -0.442,0.663 -1.05,1.278 -1.797,1.831 2.454,1.75 3.184,3.665 3.184,3.665 l 1.215,7.985 c 0.054,0.209 0.065,0.334 0.065,0.334 l 0.548,2.926 -1.37,14.262 c 0,0 10e-4,-0.032 10e-4,-0.086 0,0.053 -10e-4,0.086 -10e-4,0.086 l -0.915,3.96 c 0,0 -0.003,-0.027 -0.01,-0.078 -0.204,4.035 -5.807,7.27 -12.699,7.27 -7.018,0 -12.707,-3.357 -12.707,-7.498 l -1.007,-4.111 -1.461,-13.899 0.274,-2.285 c 0,0 0.011,-0.156 0.069,-0.419 l 1.302,-7.899 c 0,0 0.635,-2.309 3.268,-4.283 -0.374,-0.286 -0.714,-0.586 -1.013,-0.905 -0.712,-0.687 -1.267,-1.445 -1.638,-2.253 -0.254,-0.229 -0.501,-0.466 -0.729,-0.71 -0.215,-0.132 -0.426,-0.266 -0.632,-0.405 -0.608,-0.071 -1.213,-0.145 -1.823,-0.221 h -3.388 c -0.928,0 -1.773,-0.32 -2.423,-0.842 -13.463,-2.172 -25.987,-5.666 -29.683,-7.081 -5.73,-2.196 -8.9,-6.218 -9.631,-9.751 l -5.882,-59.609 c 0,0 -0.408,-1.701 -0.36,-4.059 l -1.072,-10.812 c 0,0 -1.95,-17.432 18.773,-20.843 9.264,-1.526 31.57,-0.122 53.514,-0.122 22.863,0 44.128,0.122 44.128,0.122 0,0 19.989,0.487 20.232,17.795 C 0.761,-5.865 0.487,-3.182 0,0" /></g><g
           transform="translate(701.9902,161.1836)"
           id="g24"><path
             id="path26"
             style="fill:none;stroke:#332d2b;stroke-width:1.30700004;stroke-linecap:round;stroke-linejoin:round;stroke-miterlimit:4;stroke-dasharray:none;stroke-opacity:1"
             d="m 0,0 c -0.181,1.619 -0.375,3.418 -0.58,5.354 0.013,0.513 -0.004,1.042 -0.059,1.597 -1.318,13.574 -6.063,61.07 -6.063,61.07 0,0 0.244,5.485 -6.948,10.119 -4.639,2.985 -17.9,6.176 -31.769,8.197 l -0.047,0.059 -10e-4,-0.052 c -0.02,0.003 -0.045,0.006 -0.067,0.01 -0.672,0.646 -1.616,1.049 -2.661,1.049 h -4.725 c -0.615,0.77 -1.372,1.486 -2.25,2.128 -0.129,0.207 -0.272,0.408 -0.429,0.605 -0.442,0.663 -1.05,1.278 -1.797,1.831 2.454,1.75 3.184,3.665 3.184,3.665 l 1.215,7.985 c 0.054,0.209 0.065,0.334 0.065,0.334 l 0.548,2.926 -1.37,14.262 c 0,0 10e-4,-0.032 10e-4,-0.086 0,0.053 -10e-4,0.086 -10e-4,0.086 l -0.915,3.96 c 0,0 -0.003,-0.027 -0.01,-0.078 -0.204,4.035 -5.807,7.27 -12.699,7.27 -7.018,0 -12.707,-3.357 -12.707,-7.498 l -1.007,-4.111 -1.461,-13.899 0.274,-2.285 c 0,0 0.011,-0.156 0.069,-0.419 l 1.302,-7.899 c 0,0 0.635,-2.309 3.268,-4.283 -0.374,-0.286 -0.714,-0.586 -1.013,-0.905 -0.712,-0.687 -1.267,-1.445 -1.638,-2.253 -0.254,-0.229 -0.501,-0.466 -0.729,-0.71 -0.215,-0.132 -0.426,-0.266 -0.632,-0.405 -0.608,-0.071 -1.213,-0.145 -1.823,-0.221 h -3.388 c -0.928,0 -1.773,-0.32 -2.423,-0.842 -13.463,-2.172 -25.987,-5.666 -29.683,-7.081 -5.73,-2.196 -8.9,-6.218 -9.631,-9.751 l -5.882,-59.609 c 0,0 -0.408,-1.701 -0.36,-4.059 l -1.072,-10.812 c 0,0 -1.95,-17.432 18.773,-20.843 9.264,-1.526 31.57,-0.122 53.514,-0.122 22.863,0 44.128,0.122 44.128,0.122 0,0 19.989,0.487 20.232,17.795 C 0.761,-5.865 0.487,-3.182 0,0 Z" /></g><g
           transform="translate(574.123,217.7461)"
           id="g28"><path
             id="path30"
             style="fill:#ffffff;fill-opacity:1;fill-rule:nonzero;stroke:none"
             d="m 0,0 -8.046,-61.313 c 0,0 -1.952,-17.432 18.773,-20.845 9.265,-1.525 31.568,-0.121 53.511,-0.121 22.866,0 44.127,0.121 44.127,0.121 0,0 19.99,0.486 20.235,17.797 C 128.793,-50.725 114.095,0 114.095,0 c 0,0 0.732,2.804 -6.46,7.437 -7.193,4.63 -28.524,10.24 -47.296,10.725 C 41.566,18.649 14.627,11.457 8.896,9.264 3.169,7.071 0.729,3.533 0,0" /></g><g
           transform="translate(574.123,217.7461)"
           id="g32"><path
             id="path34"
             style="fill:none;stroke:#332d2b;stroke-width:0.26100001;stroke-linecap:round;stroke-linejoin:round;stroke-miterlimit:4;stroke-dasharray:none;stroke-opacity:1"
             d="m 0,0 -8.046,-61.313 c 0,0 -1.952,-17.432 18.773,-20.845 9.265,-1.525 31.568,-0.121 53.511,-0.121 22.866,0 44.127,0.121 44.127,0.121 0,0 19.99,0.488 20.235,17.797 C 128.793,-50.725 114.095,0 114.095,0 c 0,0 0.732,2.805 -6.46,7.436 C 100.442,12.067 79.111,17.677 60.339,18.162 41.566,18.649 14.627,11.457 8.896,9.264 3.169,7.071 0.729,3.533 0,0 Z" /></g><g
           transform="translate(572.6592,222.8652)"
           id="g36"><path
             id="path38"
             style="fill:#ffffff;fill-opacity:1;fill-rule:nonzero;stroke:none"
             d="m 0,0 -6.582,-66.433 c 0,0 -0.61,-15.115 18.771,-15.967 19.382,-0.855 97.64,0 97.64,0 0,0 21.82,1.949 20.113,15.479 -1.705,13.53 -6.461,64.239 -6.461,64.239 0,0 -0.608,5.731 -7.8,10.362 -7.192,4.632 -35.107,9.752 -53.879,10.242 C 43.028,18.406 16.091,11.217 10.36,9.021 4.632,6.826 0.731,3.535 0,0" /></g><g
           transform="translate(572.6592,222.8652)"
           id="g40"><path
             id="path42"
             style="fill:none;stroke:#332d2b;stroke-width:0.26100001;stroke-linecap:round;stroke-linejoin:round;stroke-miterlimit:4;stroke-dasharray:none;stroke-opacity:1"
             d="m 0,0 -6.582,-66.433 c 0,0 -0.61,-15.115 18.771,-15.967 19.382,-0.855 97.64,0 97.64,0 0,0 21.82,1.949 20.113,15.479 -1.705,13.53 -6.461,64.239 -6.461,64.239 0,0 -0.608,5.731 -7.8,10.362 -7.192,4.632 -35.107,9.752 -53.879,10.242 C 43.028,18.406 16.091,11.217 10.36,9.021 4.632,6.826 0.731,3.535 0,0 Z" /></g><g
           transform="translate(657.835,150.0029)"
           id="g44"><path
             id="path46"
             style="fill:#ffffff;fill-opacity:1;fill-rule:nonzero;stroke:none"
             d="m 0,0 26.514,-0.091 c 0,0 18.283,0.914 17.003,14.079 -1.32,13.574 -6.064,61.07 -6.064,61.07 0,0 0.245,5.488 -6.948,10.117 -7.192,4.632 -35.106,9.751 -53.879,10.239 -18.773,0.489 -45.711,-6.704 -51.441,-8.898 -5.729,-2.195 -8.897,-6.216 -9.629,-9.751 l -5.883,-59.609 c 0,0 -4.113,-17.129 15.268,-17.978 4.294,-0.189 29.896,0 29.896,0 z" /></g><g
           transform="translate(657.835,150.0029)"
           id="g48"><path
             id="path50"
             style="fill:none;stroke:#332d2b;stroke-width:0.26100001;stroke-linecap:round;stroke-linejoin:round;stroke-miterlimit:4;stroke-dasharray:none;stroke-opacity:1"
             d="m 0,0 26.514,-0.091 c 0,0 18.283,0.914 17.003,14.079 -1.32,13.574 -6.064,61.07 -6.064,61.07 0,0 0.245,5.488 -6.948,10.117 -7.192,4.632 -35.106,9.751 -53.879,10.239 -18.773,0.489 -45.711,-6.704 -51.441,-8.898 -5.729,-2.195 -8.897,-6.216 -9.629,-9.751 l -5.883,-59.609 c 0,0 -4.113,-17.129 15.268,-17.978 4.294,-0.189 29.896,0 29.896,0 z" /></g><g
           transform="translate(573.3906,230.9111)"
           id="g52"><path
             id="path54"
             style="fill:#ffffff;fill-opacity:1;fill-rule:nonzero;stroke:none"
             d="m 0,0 -5.883,-59.605 c 0,0 -4.113,-17.128 15.268,-17.983 4.294,-0.188 29.895,0 29.895,0 l 4.696,-4.084 c 0,0 22.165,-0.017 30.778,0.154 9.335,0.185 9.69,4.753 9.69,4.753 l 26.514,-0.09 c 0,0 18.283,0.914 17.003,14.078 -1.319,13.575 -6.064,61.069 -6.064,61.069 0,0 0.245,5.487 -6.948,10.117 -7.191,4.633 -35.105,9.754 -53.878,10.24 C 42.297,19.138 15.359,11.946 9.631,9.751 3.9,7.557 0.73,3.534 0,0" /></g><g
           transform="translate(573.3906,230.9111)"
           id="g56"><path
             id="path58"
             style="fill:none;stroke:#332d2b;stroke-width:0.26100001;stroke-linecap:round;stroke-linejoin:round;stroke-miterlimit:4;stroke-dasharray:none;stroke-opacity:1"
             d="m 0,0 -5.883,-59.605 c 0,0 -4.113,-17.128 15.268,-17.983 4.294,-0.188 29.895,0 29.895,0 l 4.696,-4.084 c 0,0 22.165,-0.017 30.778,0.154 9.335,0.185 9.69,4.753 9.69,4.753 l 26.514,-0.09 c 0,0 18.283,0.914 17.003,14.078 -1.318,13.575 -6.064,61.069 -6.064,61.069 0,0 0.245,5.487 -6.948,10.117 -7.191,4.633 -35.105,9.754 -53.878,10.24 C 42.297,19.138 15.359,11.946 9.631,9.751 3.9,7.557 0.73,3.534 0,0 Z" /></g><g
           transform="translate(611.4219,245.1484)"
           id="g60"><path
             id="path62"
             style="fill:#ffffff;fill-opacity:1;fill-rule:nonzero;stroke:none"
             d="M 0,0 -1.707,-4.119 -3.779,-27.77 c 0,0 -0.61,-7.921 6.34,-8.409 6.947,-0.488 41.566,0.121 41.566,0.121 0,0 6.462,1.829 6.341,7.438 -0.123,5.606 -2.195,26.938 -2.195,26.938 L 45.104,2.432 44.858,-22.283 3.17,-22.648 Z" /></g><g
           transform="translate(611.4219,245.1484)"
           id="g64"><path
             id="path66"
             style="fill:none;stroke:#332d2b;stroke-width:0.26100001;stroke-linecap:round;stroke-linejoin:round;stroke-miterlimit:4;stroke-dasharray:none;stroke-opacity:1"
             d="M 0,0 -1.707,-4.119 -3.779,-27.77 c 0,0 -0.61,-7.921 6.34,-8.409 6.947,-0.488 41.566,0.121 41.566,0.121 0,0 6.462,1.829 6.341,7.438 -0.123,5.606 -2.195,26.938 -2.195,26.938 L 45.104,2.432 44.858,-22.283 3.17,-22.648 Z" /></g><g
           transform="translate(657.5,223.2559)"
           id="g68"><path
             id="path70"
             style="fill:#ffffff;fill-opacity:1;fill-rule:nonzero;stroke:none"
             d="m 0,0 c 0,-1.896 -1.66,-3.436 -3.705,-3.436 h -38.666 c -2.049,0 -3.707,1.54 -3.707,3.436 v 21.893 c 0,1.899 1.658,3.437 3.707,3.437 H -3.705 C -1.66,25.33 0,23.792 0,21.893 Z" /></g><g
           transform="translate(657.5,223.2559)"
           id="g72"><path
             id="path74"
             style="fill:none;stroke:#332d2b;stroke-width:0.26100001;stroke-linecap:round;stroke-linejoin:round;stroke-miterlimit:4;stroke-dasharray:none;stroke-opacity:1"
             d="m 0,0 c 0,-1.896 -1.66,-3.436 -3.705,-3.436 h -38.666 c -2.049,0 -3.707,1.54 -3.707,3.436 v 21.893 c 0,1.899 1.658,3.437 3.707,3.437 H -3.705 C -1.66,25.33 0,23.792 0,21.893 Z" /></g><g
           transform="translate(614.3477,213.3584)"
           id="g76"><path
             id="path78"
             style="fill:#ffffff;fill-opacity:1;fill-rule:nonzero;stroke:none"
             d="m 0,0 -0.73,-52.659 c 0,0 -0.368,-3.901 5.484,-3.901 h 31.694 c 0,0 3.901,-0.244 3.901,3.658 l -0.488,52.78 z" /></g><g
           transform="translate(614.3477,213.3584)"
           id="g80"><path
             id="path82"
             style="fill:none;stroke:#332d2b;stroke-width:0.26100001;stroke-linecap:round;stroke-linejoin:round;stroke-miterlimit:4;stroke-dasharray:none;stroke-opacity:1"
             d="m 0,0 -0.73,-52.659 c 0,0 -0.368,-3.901 5.484,-3.901 h 31.694 c 0,0 3.901,-0.244 3.901,3.658 l -0.488,52.78 z" /></g><g
           transform="translate(648.1152,165.0869)"
           id="g84"><path
             id="path86"
             style="fill:#ffffff;fill-opacity:1;fill-rule:nonzero;stroke:none"
             d="m 0,0 c 0,-2.019 -1.662,-3.656 -3.707,-3.656 h -20.016 c -2.047,0 -3.706,1.637 -3.706,3.656 v 40.836 c 0,2.019 1.659,3.656 3.706,3.656 H -3.707 C -1.662,44.492 0,42.855 0,40.836 Z" /></g><g
           transform="translate(648.1152,165.0869)"
           id="g88"><path
             id="path90"
             style="fill:none;stroke:#332d2b;stroke-width:0.26100001;stroke-linecap:round;stroke-linejoin:round;stroke-miterlimit:4;stroke-dasharray:none;stroke-opacity:1"
             d="m 0,0 c 0,-2.019 -1.662,-3.656 -3.707,-3.656 h -20.016 c -2.047,0 -3.706,1.637 -3.706,3.656 v 40.836 c 0,2.019 1.659,3.656 3.706,3.656 H -3.707 C -1.662,44.492 0,42.855 0,40.836 Z" /></g><g
           transform="translate(648.1152,163.3818)"
           id="g92"><path
             id="path94"
             style="fill:#ffffff;fill-opacity:1;fill-rule:nonzero;stroke:none"
             d="m 0,0 c 0,-2.021 -1.662,-3.658 -3.707,-3.658 h -20.016 c -2.047,0 -3.706,1.637 -3.706,3.658 v 40.834 c 0,2.02 1.659,3.658 3.706,3.658 H -3.707 C -1.662,44.492 0,42.854 0,40.834 Z" /></g><g
           transform="translate(648.1152,163.3818)"
           id="g96"><path
             id="path98"
             style="fill:none;stroke:#332d2b;stroke-width:0.26100001;stroke-linecap:round;stroke-linejoin:round;stroke-miterlimit:4;stroke-dasharray:none;stroke-opacity:1"
             d="m 0,0 c 0,-2.021 -1.662,-3.658 -3.707,-3.658 h -20.016 c -2.047,0 -3.706,1.637 -3.706,3.658 v 40.834 c 0,2.02 1.659,3.658 3.706,3.658 H -3.707 C -1.662,44.492 0,42.854 0,40.834 Z" /></g><g
           transform="translate(613.6309,160.8213)"
           id="g100"><path
             id="path102"
             style="fill:#ffffff;fill-opacity:1;fill-rule:nonzero;stroke:none"
             d="m 0,0 -0.959,-7.496 c 0,0 0,-1.098 1.463,-2.558 1.462,-1.465 3.229,-1.528 3.229,-1.528 l 0.884,7.437 z" /></g><g
           transform="translate(613.6309,160.8213)"
           id="g104"><path
             id="path106"
             style="fill:none;stroke:#332d2b;stroke-width:0.26100001;stroke-linecap:round;stroke-linejoin:round;stroke-miterlimit:4;stroke-dasharray:none;stroke-opacity:1"
             d="m 0,0 -0.959,-7.496 c 0,0 0,-1.098 1.463,-2.558 1.462,-1.465 3.229,-1.528 3.229,-1.528 l 0.884,7.437 z" /></g><g
           transform="translate(651.375,149.5459)"
           id="g108"><path
             id="path110"
             style="fill:#ffffff;fill-opacity:1;fill-rule:nonzero;stroke:none"
             d="m 0,0 -0.579,7.253 c 0,0 3.293,1.188 3.383,3.475 l 0.03,52.962 2.62,-4.875 c 0,0 0.942,-51.81 1.006,-54.213 C 6.552,1.219 0,0 0,0" /></g><g
           transform="translate(651.375,149.5459)"
           id="g112"><path
             id="path114"
             style="fill:none;stroke:#332d2b;stroke-width:0.26100001;stroke-linecap:round;stroke-linejoin:round;stroke-miterlimit:4;stroke-dasharray:none;stroke-opacity:1"
             d="m 0,0 -0.579,7.253 c 0,0 3.293,1.188 3.383,3.475 l 0.03,52.962 2.62,-4.875 c 0,0 0.942,-51.81 1.006,-54.213 C 6.552,1.219 0,0 0,0 Z" /></g><g
           transform="translate(651.375,149.5459)"
           id="g116"><path
             id="path118"
             style="fill:#ffffff;fill-opacity:1;fill-rule:nonzero;stroke:none"
             d="M 0,0 -0.579,7.253 -33.127,7.131 -34.012,-0.305 Z" /></g><g
           transform="translate(651.375,149.5459)"
           id="g120"><path
             id="path122"
             style="fill:none;stroke:#332d2b;stroke-width:0.26100001;stroke-linecap:round;stroke-linejoin:round;stroke-miterlimit:4;stroke-dasharray:none;stroke-opacity:1"
             d="M 0,0 -0.579,7.253 -33.127,7.131 -34.012,-0.305 Z" /></g><g
           transform="translate(623.6416,201.5967)"
           id="g124"><path
             id="path126"
             style="fill:#ffffff;fill-opacity:1;fill-rule:nonzero;stroke:none"
             d="m 0,0 c 0,-1.719 1.862,-3.108 4.163,-3.108 2.295,0 4.154,1.389 4.154,3.108 0,1.715 -1.859,3.107 -4.154,3.107 C 1.862,3.107 0,1.715 0,0" /></g><g
           transform="translate(631.9609,201.5947)"
           id="g128"><path
             id="path130"
             style="fill:none;stroke:#332d2b;stroke-width:0.26100001;stroke-linecap:round;stroke-linejoin:round;stroke-miterlimit:4;stroke-dasharray:none;stroke-opacity:1"
             d="m 0,0 c 0,-1.716 -1.861,-3.108 -4.16,-3.108 -2.297,0 -4.158,1.392 -4.158,3.108 0,1.72 1.861,3.109 4.158,3.109 C -1.861,3.109 0,1.72 0,0 Z" /></g><g
           transform="translate(623.6113,201.8389)"
           id="g132"><path
             id="path134"
             style="fill:none;stroke:#332d2b;stroke-width:0.26100001;stroke-linecap:round;stroke-linejoin:round;stroke-miterlimit:4;stroke-dasharray:none;stroke-opacity:1"
             d="m 0,0 c 0,0 0.975,-2.621 4.328,-2.621 3.352,0 4.022,2.377 4.022,2.377" /></g><g
           transform="translate(636.3818,201.5967)"
           id="g136"><path
             id="path138"
             style="fill:#ffffff;fill-opacity:1;fill-rule:nonzero;stroke:none"
             d="m 0,0 c 0,-1.719 1.863,-3.108 4.159,-3.108 2.3,0 4.162,1.389 4.162,3.108 0,1.715 -1.862,3.107 -4.162,3.107 C 1.863,3.107 0,1.715 0,0" /></g><g
           transform="translate(644.7012,201.5947)"
           id="g140"><path
             id="path142"
             style="fill:none;stroke:#332d2b;stroke-width:0.26100001;stroke-linecap:round;stroke-linejoin:round;stroke-miterlimit:4;stroke-dasharray:none;stroke-opacity:1"
             d="m 0,0 c 0,-1.716 -1.862,-3.108 -4.159,-3.108 -2.298,0 -4.159,1.392 -4.159,3.108 0,1.72 1.861,3.109 4.159,3.109 C -1.862,3.109 0,1.72 0,0 Z" /></g><g
           transform="translate(636.3516,201.8389)"
           id="g144"><path
             id="path146"
             style="fill:none;stroke:#332d2b;stroke-width:0.26100001;stroke-linecap:round;stroke-linejoin:round;stroke-miterlimit:4;stroke-dasharray:none;stroke-opacity:1"
             d="m 0,0 c 0,0 0.976,-2.621 4.327,-2.621 3.354,0 4.023,2.377 4.023,2.377" /></g><g
           transform="translate(623.6416,192.8555)"
           id="g148"><path
             id="path150"
             style="fill:#ffffff;fill-opacity:1;fill-rule:nonzero;stroke:none"
             d="m 0,0 c 0,-1.717 1.862,-3.108 4.163,-3.108 2.295,0 4.154,1.391 4.154,3.108 0,1.715 -1.859,3.107 -4.154,3.107 C 1.862,3.107 0,1.715 0,0" /></g><g
           transform="translate(631.9609,192.8545)"
           id="g152"><path
             id="path154"
             style="fill:none;stroke:#332d2b;stroke-width:0.26100001;stroke-linecap:round;stroke-linejoin:round;stroke-miterlimit:4;stroke-dasharray:none;stroke-opacity:1"
             d="m 0,0 c 0,-1.716 -1.861,-3.108 -4.16,-3.108 -2.297,0 -4.158,1.392 -4.158,3.108 0,1.718 1.861,3.108 4.158,3.108 C -1.861,3.108 0,1.718 0,0 Z" /></g><g
           transform="translate(623.6113,193.0986)"
           id="g156"><path
             id="path158"
             style="fill:none;stroke:#332d2b;stroke-width:0.26100001;stroke-linecap:round;stroke-linejoin:round;stroke-miterlimit:4;stroke-dasharray:none;stroke-opacity:1"
             d="m 0,0 c 0,0 0.975,-2.62 4.328,-2.62 3.352,0 4.022,2.376 4.022,2.376" /></g><g
           transform="translate(636.3818,192.8555)"
           id="g160"><path
             id="path162"
             style="fill:#ffffff;fill-opacity:1;fill-rule:nonzero;stroke:none"
             d="m 0,0 c 0,-1.717 1.863,-3.108 4.159,-3.108 2.3,0 4.162,1.391 4.162,3.108 0,1.715 -1.862,3.107 -4.162,3.107 C 1.863,3.107 0,1.715 0,0" /></g><g
           transform="translate(644.7012,192.8545)"
           id="g164"><path
             id="path166"
             style="fill:none;stroke:#332d2b;stroke-width:0.26100001;stroke-linecap:round;stroke-linejoin:round;stroke-miterlimit:4;stroke-dasharray:none;stroke-opacity:1"
             d="m 0,0 c 0,-1.716 -1.862,-3.108 -4.159,-3.108 -2.298,0 -4.159,1.392 -4.159,3.108 0,1.718 1.861,3.108 4.159,3.108 C -1.862,3.108 0,1.718 0,0 Z" /></g><g
           transform="translate(636.3516,193.0986)"
           id="g168"><path
             id="path170"
             style="fill:none;stroke:#332d2b;stroke-width:0.26100001;stroke-linecap:round;stroke-linejoin:round;stroke-miterlimit:4;stroke-dasharray:none;stroke-opacity:1"
             d="m 0,0 c 0,0 0.976,-2.62 4.327,-2.62 3.354,0 4.023,2.376 4.023,2.376" /></g><g
           transform="translate(623.6416,183.7383)"
           id="g172"><path
             id="path174"
             style="fill:#ffffff;fill-opacity:1;fill-rule:nonzero;stroke:none"
             d="m 0,0 c 0,-1.718 1.862,-3.108 4.163,-3.108 2.295,0 4.154,1.39 4.154,3.108 0,1.715 -1.859,3.108 -4.154,3.108 C 1.862,3.108 0,1.715 0,0" /></g><g
           transform="translate(631.9609,183.7383)"
           id="g176"><path
             id="path178"
             style="fill:none;stroke:#332d2b;stroke-width:0.26100001;stroke-linecap:round;stroke-linejoin:round;stroke-miterlimit:4;stroke-dasharray:none;stroke-opacity:1"
             d="m 0,0 c 0,-1.718 -1.861,-3.11 -4.16,-3.11 -2.297,0 -4.158,1.392 -4.158,3.11 0,1.716 1.861,3.108 4.158,3.108 C -1.861,3.108 0,1.716 0,0 Z" /></g><g
           transform="translate(623.6113,183.9814)"
           id="g180"><path
             id="path182"
             style="fill:none;stroke:#332d2b;stroke-width:0.26100001;stroke-linecap:round;stroke-linejoin:round;stroke-miterlimit:4;stroke-dasharray:none;stroke-opacity:1"
             d="m 0,0 c 0,0 0.975,-2.621 4.328,-2.621 3.352,0 4.022,2.378 4.022,2.378" /></g><g
           transform="translate(636.3818,183.7383)"
           id="g184"><path
             id="path186"
             style="fill:#ffffff;fill-opacity:1;fill-rule:nonzero;stroke:none"
             d="m 0,0 c 0,-1.718 1.863,-3.108 4.159,-3.108 2.3,0 4.162,1.39 4.162,3.108 0,1.715 -1.862,3.108 -4.162,3.108 C 1.863,3.108 0,1.715 0,0" /></g><g
           transform="translate(644.7012,183.7383)"
           id="g188"><path
             id="path190"
             style="fill:none;stroke:#332d2b;stroke-width:0.26100001;stroke-linecap:round;stroke-linejoin:round;stroke-miterlimit:4;stroke-dasharray:none;stroke-opacity:1"
             d="m 0,0 c 0,-1.718 -1.862,-3.11 -4.159,-3.11 -2.298,0 -4.159,1.392 -4.159,3.11 0,1.716 1.861,3.108 4.159,3.108 C -1.862,3.108 0,1.716 0,0 Z" /></g><g
           transform="translate(636.3516,183.9814)"
           id="g192"><path
             id="path194"
             style="fill:none;stroke:#332d2b;stroke-width:0.26100001;stroke-linecap:round;stroke-linejoin:round;stroke-miterlimit:4;stroke-dasharray:none;stroke-opacity:1"
             d="m 0,0 c 0,0 0.976,-2.621 4.327,-2.621 3.354,0 4.023,2.378 4.023,2.378" /></g><g
           transform="translate(623.6416,174.7783)"
           id="g196"><path
             id="path198"
             style="fill:#ffffff;fill-opacity:1;fill-rule:nonzero;stroke:none"
             d="m 0,0 c 0,-1.718 1.862,-3.108 4.163,-3.108 2.295,0 4.154,1.39 4.154,3.108 0,1.715 -1.859,3.107 -4.154,3.107 C 1.862,3.107 0,1.715 0,0" /></g><g
           transform="translate(631.9609,174.7783)"
           id="g200"><path
             id="path202"
             style="fill:none;stroke:#332d2b;stroke-width:0.26100001;stroke-linecap:round;stroke-linejoin:round;stroke-miterlimit:4;stroke-dasharray:none;stroke-opacity:1"
             d="m 0,0 c 0,-1.718 -1.861,-3.109 -4.16,-3.109 -2.297,0 -4.158,1.391 -4.158,3.109 0,1.717 1.861,3.108 4.158,3.108 C -1.861,3.108 0,1.717 0,0 Z" /></g><g
           transform="translate(623.6113,175.0215)"
           id="g204"><path
             id="path206"
             style="fill:none;stroke:#332d2b;stroke-width:0.26100001;stroke-linecap:round;stroke-linejoin:round;stroke-miterlimit:4;stroke-dasharray:none;stroke-opacity:1"
             d="m 0,0 c 0,0 0.975,-2.62 4.328,-2.62 3.352,0 4.022,2.377 4.022,2.377" /></g><g
           transform="translate(636.3818,174.7783)"
           id="g208"><path
             id="path210"
             style="fill:#ffffff;fill-opacity:1;fill-rule:nonzero;stroke:none"
             d="m 0,0 c 0,-1.718 1.863,-3.108 4.159,-3.108 2.3,0 4.162,1.39 4.162,3.108 0,1.715 -1.862,3.107 -4.162,3.107 C 1.863,3.107 0,1.715 0,0" /></g><g
           transform="translate(644.7012,174.7783)"
           id="g212"><path
             id="path214"
             style="fill:none;stroke:#332d2b;stroke-width:0.26100001;stroke-linecap:round;stroke-linejoin:round;stroke-miterlimit:4;stroke-dasharray:none;stroke-opacity:1"
             d="m 0,0 c 0,-1.718 -1.862,-3.109 -4.159,-3.109 -2.298,0 -4.159,1.391 -4.159,3.109 0,1.717 1.861,3.108 4.159,3.108 C -1.862,3.108 0,1.717 0,0 Z" /></g><g
           transform="translate(636.3516,175.0215)"
           id="g216"><path
             id="path218"
             style="fill:none;stroke:#332d2b;stroke-width:0.26100001;stroke-linecap:round;stroke-linejoin:round;stroke-miterlimit:4;stroke-dasharray:none;stroke-opacity:1"
             d="m 0,0 c 0,0 0.976,-2.62 4.327,-2.62 3.354,0 4.023,2.377 4.023,2.377" /></g><g
           transform="translate(623.6416,165.5146)"
           id="g220"><path
             id="path222"
             style="fill:#ffffff;fill-opacity:1;fill-rule:nonzero;stroke:none"
             d="m 0,0 c 0,-1.718 1.862,-3.108 4.163,-3.108 2.295,0 4.154,1.39 4.154,3.108 0,1.715 -1.859,3.105 -4.154,3.105 C 1.862,3.105 0,1.715 0,0" /></g><g
           transform="translate(631.9609,165.5127)"
           id="g224"><path
             id="path226"
             style="fill:none;stroke:#332d2b;stroke-width:0.26100001;stroke-linecap:round;stroke-linejoin:round;stroke-miterlimit:4;stroke-dasharray:none;stroke-opacity:1"
             d="m 0,0 c 0,-1.716 -1.861,-3.108 -4.16,-3.108 -2.297,0 -4.158,1.392 -4.158,3.108 0,1.717 1.861,3.11 4.158,3.11 C -1.861,3.11 0,1.717 0,0 Z" /></g><g
           transform="translate(623.6113,165.7578)"
           id="g228"><path
             id="path230"
             style="fill:none;stroke:#332d2b;stroke-width:0.26100001;stroke-linecap:round;stroke-linejoin:round;stroke-miterlimit:4;stroke-dasharray:none;stroke-opacity:1"
             d="m 0,0 c 0,0 0.975,-2.621 4.328,-2.621 3.352,0 4.022,2.376 4.022,2.376" /></g><g
           transform="translate(636.3818,165.5146)"
           id="g232"><path
             id="path234"
             style="fill:#ffffff;fill-opacity:1;fill-rule:nonzero;stroke:none"
             d="m 0,0 c 0,-1.718 1.863,-3.108 4.159,-3.108 2.3,0 4.162,1.39 4.162,3.108 0,1.715 -1.862,3.105 -4.162,3.105 C 1.863,3.105 0,1.715 0,0" /></g><g
           transform="translate(644.7012,165.5127)"
           id="g236"><path
             id="path238"
             style="fill:none;stroke:#332d2b;stroke-width:0.26100001;stroke-linecap:round;stroke-linejoin:round;stroke-miterlimit:4;stroke-dasharray:none;stroke-opacity:1"
             d="m 0,0 c 0,-1.716 -1.862,-3.108 -4.159,-3.108 -2.298,0 -4.159,1.392 -4.159,3.108 0,1.717 1.861,3.11 4.159,3.11 C -1.862,3.11 0,1.717 0,0 Z" /></g><g
           transform="translate(636.3516,165.7578)"
           id="g240"><path
             id="path242"
             style="fill:none;stroke:#332d2b;stroke-width:0.26100001;stroke-linecap:round;stroke-linejoin:round;stroke-miterlimit:4;stroke-dasharray:none;stroke-opacity:1"
             d="m 0,0 c 0,0 0.976,-2.621 4.327,-2.621 3.354,0 4.023,2.376 4.023,2.376" /></g><g
           transform="translate(654.8184,238.8496)"
           id="g244"><path
             id="path246"
             style="fill:#ffffff;fill-opacity:1;fill-rule:nonzero;stroke:none"
             d="m 0,0 c 0,-7.547 -9.148,-13.668 -20.436,-13.668 -11.282,0 -20.431,6.121 -20.431,13.668 0,7.549 9.149,13.67 20.431,13.67 C -9.148,13.67 0,7.549 0,0" /></g><g
           transform="translate(654.8184,238.8496)"
           id="g248"><path
             id="path250"
             style="fill:none;stroke:#332d2b;stroke-width:0.26100001;stroke-linecap:round;stroke-linejoin:round;stroke-miterlimit:4;stroke-dasharray:none;stroke-opacity:1"
             d="m 0,0 c 0,-7.547 -9.148,-13.668 -20.436,-13.668 -11.282,0 -20.431,6.121 -20.431,13.668 0,7.549 9.149,13.67 20.431,13.67 C -9.148,13.67 0,7.549 0,0 Z" /></g><g
           transform="translate(653.2646,240.3359)"
           id="g252"><path
             id="path254"
             style="fill:#ffffff;fill-opacity:1;fill-rule:nonzero;stroke:none"
             d="m 0,0 c 0,-6.779 -8.555,-12.273 -19.108,-12.273 -10.553,0 -19.109,5.494 -19.109,12.273 0,6.779 8.556,12.272 19.109,12.272 C -8.555,12.272 0,6.779 0,0" /></g><g
           transform="translate(653.2646,240.3359)"
           id="g256"><path
             id="path258"
             style="fill:none;stroke:#332d2b;stroke-width:0.26100001;stroke-linecap:round;stroke-linejoin:round;stroke-miterlimit:4;stroke-dasharray:none;stroke-opacity:1"
             d="m 0,0 c 0,-6.779 -8.555,-12.273 -19.108,-12.273 -10.553,0 -19.109,5.494 -19.109,12.273 0,6.779 8.556,12.272 19.109,12.272 C -8.555,12.272 0,6.779 0,0 Z" /></g><g
           transform="translate(611.3008,222.8652)"
           id="g260"><path
             id="path262"
             style="fill:none;stroke:#332d2b;stroke-width:0.26100001;stroke-linecap:round;stroke-linejoin:round;stroke-miterlimit:4;stroke-dasharray:none;stroke-opacity:1"
             d="M 0,0 -3.658,-5.484" /></g><g
           transform="translate(657.6221,222.8652)"
           id="g264"><path
             id="path266"
             style="fill:none;stroke:#332d2b;stroke-width:0.26100001;stroke-linecap:round;stroke-linejoin:round;stroke-miterlimit:4;stroke-dasharray:none;stroke-opacity:1"
             d="M 0,0 4.145,-5.241" /></g><g
           transform="translate(650.8867,243.7412)"
           id="g268"><path
             id="path270"
             style="fill:#ffffff;fill-opacity:1;fill-rule:nonzero;stroke:none"
             d="m 0,0 c 0,-5.807 -7.224,-10.514 -16.138,-10.514 -8.911,0 -16.135,4.707 -16.135,10.514 0,5.806 7.224,10.514 16.135,10.514 C -7.224,10.514 0,5.806 0,0" /></g><g
           transform="translate(650.8867,243.7412)"
           id="g272"><path
             id="path274"
             style="fill:none;stroke:#332d2b;stroke-width:0.26100001;stroke-linecap:round;stroke-linejoin:round;stroke-miterlimit:4;stroke-dasharray:none;stroke-opacity:1"
             d="m 0,0 c 0,-5.807 -7.224,-10.514 -16.138,-10.514 -8.911,0 -16.135,4.707 -16.135,10.514 0,5.806 7.224,10.514 16.135,10.514 C -7.224,10.514 0,5.806 0,0 Z" /></g><g
           transform="translate(648.876,244.998)"
           id="g276"><path
             id="path278"
             style="fill:#ffffff;fill-opacity:1;fill-rule:nonzero;stroke:none"
             d="m 0,0 c 0,-5.112 -6.283,-9.257 -14.036,-9.257 -7.749,0 -14.033,4.145 -14.033,9.257 0,5.113 6.284,9.258 14.033,9.258 C -6.283,9.258 0,5.113 0,0" /></g><g
           transform="translate(648.876,244.998)"
           id="g280"><path
             id="path282"
             style="fill:none;stroke:#332d2b;stroke-width:0.26100001;stroke-linecap:round;stroke-linejoin:round;stroke-miterlimit:4;stroke-dasharray:none;stroke-opacity:1"
             d="m 0,0 c 0,-5.112 -6.283,-9.257 -14.036,-9.257 -7.749,0 -14.033,4.145 -14.033,9.257 0,5.113 6.284,9.258 14.033,9.258 C -6.283,9.258 0,5.113 0,0 Z" /></g><g
           transform="translate(647.7783,247.5801)"
           id="g284"><path
             id="path286"
             style="fill:#ffffff;fill-opacity:1;fill-rule:nonzero;stroke:none"
             d="m 0,0 c 0,-4.645 -5.956,-8.409 -13.303,-8.409 -7.345,0 -13.302,3.764 -13.302,8.409 0,4.646 5.957,8.412 13.302,8.412 C -5.956,8.412 0,4.646 0,0" /></g><g
           transform="translate(647.7783,247.5801)"
           id="g288"><path
             id="path290"
             style="fill:none;stroke:#332d2b;stroke-width:0.26100001;stroke-linecap:round;stroke-linejoin:round;stroke-miterlimit:4;stroke-dasharray:none;stroke-opacity:1"
             d="m 0,0 c 0,-4.645 -5.956,-8.409 -13.303,-8.409 -7.345,0 -13.302,3.764 -13.302,8.409 0,4.646 5.957,8.412 13.302,8.412 C -5.956,8.412 0,4.646 0,0 Z" /></g><g
           transform="translate(653.7949,219.8184)"
           id="g292"><path
             id="path294"
             style="fill:none;stroke:#332d2b;stroke-width:0.26100001;stroke-linecap:round;stroke-linejoin:round;stroke-miterlimit:4;stroke-dasharray:none;stroke-opacity:1"
             d="M 0,0 0.414,-6.582" /></g><g
           transform="translate(615.127,219.8184)"
           id="g296"><path
             id="path298"
             style="fill:none;stroke:#332d2b;stroke-width:0.26100001;stroke-linecap:round;stroke-linejoin:round;stroke-miterlimit:4;stroke-dasharray:none;stroke-opacity:1"
             d="M 0,0 -0.78,-6.46" /></g><g
           transform="translate(647.2305,248.7227)"
           id="g300"><path
             id="path302"
             style="fill:#ffffff;fill-opacity:1;fill-rule:nonzero;stroke:none"
             d="m 0,0 c 0,-4.014 -5.689,-7.267 -12.709,-7.267 -7.02,0 -12.708,3.253 -12.708,7.267 0,4.015 5.688,7.27 12.708,7.27 C -5.689,7.27 0,4.015 0,0" /></g><g
           transform="translate(647.2305,248.7227)"
           id="g304"><path
             id="path306"
             style="fill:none;stroke:#332d2b;stroke-width:0.26100001;stroke-linecap:round;stroke-linejoin:round;stroke-miterlimit:4;stroke-dasharray:none;stroke-opacity:1"
             d="m 0,0 c 0,-4.014 -5.689,-7.267 -12.709,-7.267 -7.02,0 -12.708,3.253 -12.708,7.267 0,4.015 5.688,7.27 12.708,7.27 C -5.689,7.27 0,4.015 0,0 Z" /></g><g
           transform="translate(631.1387,250.873)"
           id="g308"><path
             id="path310"
             style="fill:#ffffff;fill-opacity:1;fill-rule:nonzero;stroke:none"
             d="m 0,0 v -3.658 c 0,0 1.006,-1.508 3.565,-1.508 2.562,0 3.568,1.508 3.568,1.508 v 3.566 z" /></g><g
           transform="translate(631.1387,250.873)"
           id="g312"><path
             id="path314"
             style="fill:none;stroke:#332d2b;stroke-width:0.26100001;stroke-linecap:round;stroke-linejoin:round;stroke-miterlimit:4;stroke-dasharray:none;stroke-opacity:1"
             d="m 0,0 v -3.658 c 0,0 1.006,-1.508 3.565,-1.508 2.562,0 3.568,1.508 3.568,1.508 v 3.566 z" /></g><g
           transform="translate(619.4375,267.9687)"
           id="g316"><path
             id="path318"
             style="fill:#ffffff;fill-opacity:1;fill-rule:nonzero;stroke:none"
             d="m 0,0 0.273,-2.287 c 0,0 0.571,-8.09 15.45,-7.313 13.411,0.702 13.898,6.765 13.898,6.765 l 0.547,2.925 c 0,0 -3.381,-6.857 -13.712,-6.857 C 6.125,-6.767 0,0 0,0" /></g><g
           transform="translate(619.4375,267.9687)"
           id="g320"><path
             id="path322"
             style="fill:none;stroke:#332d2b;stroke-width:0.26100001;stroke-linecap:round;stroke-linejoin:round;stroke-miterlimit:4;stroke-dasharray:none;stroke-opacity:1"
             d="m 0,0 0.273,-2.286 c 0,0 0.571,-8.091 15.45,-7.314 13.411,0.702 13.898,6.765 13.898,6.765 l 0.547,2.925 c 0,0 -3.381,-6.857 -13.712,-6.857 C 6.125,-6.767 0,0 0,0 Z" /></g><g
           transform="translate(647.3223,285.9775)"
           id="g324"><path
             id="path326"
             style="fill:#ffffff;fill-opacity:1;fill-rule:nonzero;stroke:none"
             d="m 0,0 c 0,-4.14 -5.689,-7.495 -12.709,-7.495 -7.02,0 -12.709,3.355 -12.709,7.495 0,4.14 5.689,7.497 12.709,7.497 C -5.689,7.497 0,4.14 0,0" /></g><g
           transform="translate(647.3223,285.9775)"
           id="g328"><path
             id="path330"
             style="fill:none;stroke:#332d2b;stroke-width:0.26100001;stroke-linecap:round;stroke-linejoin:round;stroke-miterlimit:4;stroke-dasharray:none;stroke-opacity:1"
             d="m 0,0 c 0,-4.14 -5.689,-7.495 -12.709,-7.495 -7.02,0 -12.709,3.355 -12.709,7.495 0,4.14 5.689,7.497 12.709,7.497 C -5.689,7.497 0,4.14 0,0 Z" /></g><g
           transform="translate(619.7119,265.6826)"
           id="g332"><path
             id="path334"
             style="fill:#ffffff;fill-opacity:1;fill-rule:nonzero;stroke:none"
             d="m 0,0 1.371,-8.319 c 0,0 1.92,-7.041 13.073,-7.041 11.155,0 13.622,6.492 13.622,6.492 l 1.371,9.019 c 0,0 -1.552,-6.826 -13.804,-6.826 C 3.383,-6.675 0,0 0,0" /></g><g
           transform="translate(619.7119,265.6826)"
           id="g336"><path
             id="path338"
             style="fill:none;stroke:#332d2b;stroke-width:0.26100001;stroke-linecap:round;stroke-linejoin:round;stroke-miterlimit:4;stroke-dasharray:none;stroke-opacity:1"
             d="m 0,0 1.371,-8.319 c 0,0 1.92,-7.041 13.073,-7.041 11.155,0 13.622,6.492 13.622,6.492 l 1.371,9.019 c 0,0 -1.552,-6.826 -13.804,-6.826 C 3.383,-6.675 0,0 0,0 Z" /></g><g
           transform="translate(621.9043,285.9775)"
           id="g340"><path
             id="path342"
             style="fill:#ffffff;fill-opacity:1;fill-rule:nonzero;stroke:none"
             d="m 0,0 -1.006,-4.112 c 0,0 1.006,-8.139 14.355,-8.139 13.348,0 12.983,8.596 12.983,8.596 l -0.914,3.962 c 0,0 -0.732,-7.802 -12.71,-7.802 C 0.732,-7.495 0,0 0,0" /></g><g
           transform="translate(621.9043,285.9775)"
           id="g344"><path
             id="path346"
             style="fill:none;stroke:#332d2b;stroke-width:0.26100001;stroke-linecap:round;stroke-linejoin:round;stroke-miterlimit:4;stroke-dasharray:none;stroke-opacity:1"
             d="m 0,0 -1.006,-4.112 c 0,0 1.006,-8.139 14.355,-8.139 13.348,0 12.983,8.596 12.983,8.596 l -0.914,3.962 c 0,0 -0.732,-7.802 -12.71,-7.802 C 0.732,-7.495 0,0 0,0 Z" /></g><g
           transform="translate(620.8984,281.8652)"
           id="g348"><path
             id="path350"
             style="fill:#ffffff;fill-opacity:1;fill-rule:nonzero;stroke:none"
             d="m 0,0 -1.461,-13.898 c 0,0 2.833,-7.679 15.724,-7.679 12.891,0 14.447,7.772 14.447,7.772 L 27.338,0.456 c 0,0 0.365,-7.222 -12.709,-7.222 C 1.555,-6.766 0,0 0,0" /></g><g
           transform="translate(620.8984,281.8652)"
           id="g352"><path
             id="path354"
             style="fill:none;stroke:#332d2b;stroke-width:0.26100001;stroke-linecap:round;stroke-linejoin:round;stroke-miterlimit:4;stroke-dasharray:none;stroke-opacity:1"
             d="m 0,0 -1.461,-13.898 c 0,0 2.833,-7.679 15.724,-7.679 12.891,0 14.447,7.772 14.447,7.772 L 27.338,0.456 c 0,0 0.366,-7.222 -12.709,-7.222 C 1.555,-6.766 0,0 0,0 Z" /></g><g
           transform="translate(644.3955,287.3047)"
           id="g356"><path
             id="path358"
             style="fill:#ffffff;fill-opacity:1;fill-rule:nonzero;stroke:none"
             d="m 0,0 c 0,-2.652 -4.338,-4.803 -9.691,-4.803 -5.353,0 -9.691,2.151 -9.691,4.803 0,2.649 4.338,4.801 9.691,4.801 C -4.338,4.801 0,2.649 0,0" /></g><g
           transform="translate(644.3955,287.3047)"
           id="g360"><path
             id="path362"
             style="fill:none;stroke:#332d2b;stroke-width:0.26100001;stroke-linecap:round;stroke-linejoin:round;stroke-miterlimit:4;stroke-dasharray:none;stroke-opacity:1"
             d="m 0,0 c 0,-2.652 -4.338,-4.803 -9.691,-4.803 -5.353,0 -9.691,2.151 -9.691,4.803 0,2.649 4.338,4.801 9.691,4.801 C -4.338,4.801 0,2.649 0,0 Z" /></g><g
           transform="translate(624.9531,287.5928)"
           id="g364"><path
             id="path366"
             style="fill:#ffffff;fill-opacity:1;fill-rule:nonzero;stroke:none"
             d="m 0,0 -0.731,-2.132 c 0,0 0.985,-5.859 11.276,-5.424 10.117,0.424 9.812,5.118 9.812,5.118 l -0.853,2.621 c 0,0 -0.853,-5.303 -9.448,-5.303 C 1.462,-5.12 0,0 0,0" /></g><g
           transform="translate(624.9531,287.5928)"
           id="g368"><path
             id="path370"
             style="fill:none;stroke:#332d2b;stroke-width:0.26100001;stroke-linecap:round;stroke-linejoin:round;stroke-miterlimit:4;stroke-dasharray:none;stroke-opacity:1"
             d="m 0,0 -0.731,-2.132 c 0,0 0.985,-5.859 11.276,-5.424 10.117,0.424 9.812,5.118 9.812,5.118 l -0.853,2.621 c 0,0 -0.853,-5.303 -9.448,-5.303 C 1.462,-5.12 0,0 0,0 Z" /></g><g
           transform="translate(632.6328,289.5439)"
           id="g372"><path
             id="path374"
             style="fill:#ffffff;fill-opacity:1;fill-rule:nonzero;stroke:none"
             d="m 0,0 0.242,-2.985 c 0,0 -0.487,-1.221 -1.342,-1.403 -0.853,-0.185 -2.74,-0.125 -3.168,0.121 -0.423,0.245 -1.949,2.133 -1.218,4.024 0.732,1.889 2.438,1.95 3.533,1.644 C -0.854,1.097 -0.123,0.548 0,0" /></g><g
           transform="translate(632.6328,289.5439)"
           id="g376"><path
             id="path378"
             style="fill:none;stroke:#332d2b;stroke-width:0.26100001;stroke-linecap:round;stroke-linejoin:round;stroke-miterlimit:4;stroke-dasharray:none;stroke-opacity:1"
             d="m 0,0 0.242,-2.985 c 0,0 -0.487,-1.221 -1.342,-1.403 -0.853,-0.185 -2.74,-0.125 -3.168,0.121 -0.423,0.245 -1.949,2.133 -1.218,4.024 0.732,1.889 2.438,1.95 3.533,1.644 C -0.854,1.097 -0.123,0.548 0,0 Z" /></g><g
           transform="translate(627.1465,288.873)"
           id="g380"><path
             id="path382"
             style="fill:none;stroke:#332d2b;stroke-width:0.26100001;stroke-linecap:round;stroke-linejoin:round;stroke-miterlimit:4;stroke-dasharray:none;stroke-opacity:1"
             d="m 0,0 c 0,0 0.608,-2.805 2.193,-2.742 1.586,0.06 2.867,-0.063 3.416,1.706" /></g><g
           transform="translate(636.3379,289.3965)"
           id="g384"><path
             id="path386"
             style="fill:#ffffff;fill-opacity:1;fill-rule:nonzero;stroke:none"
             d="m 0,0 -0.083,-2.996 c 0,0 0.55,-1.19 1.411,-1.328 0.862,-0.137 2.746,0.025 3.159,0.291 0.412,0.266 1.835,2.234 1.003,4.08 C 4.659,1.896 2.951,1.866 1.873,1.504 0.794,1.141 0.092,0.555 0,0" /></g><g
           transform="translate(636.3379,289.3965)"
           id="g388"><path
             id="path390"
             style="fill:none;stroke:#332d2b;stroke-width:0.26100001;stroke-linecap:round;stroke-linejoin:round;stroke-miterlimit:4;stroke-dasharray:none;stroke-opacity:1"
             d="m 0,0 -0.083,-2.996 c 0,0 0.55,-1.19 1.411,-1.328 0.862,-0.137 2.746,0.025 3.159,0.291 0.412,0.266 1.835,2.234 1.003,4.082 C 4.659,1.896 2.951,1.866 1.873,1.504 0.794,1.141 0.092,0.555 0,0 Z" /></g><g
           transform="translate(641.8496,289.0195)"
           id="g392"><path
             id="path394"
             style="fill:none;stroke:#332d2b;stroke-width:0.26100001;stroke-linecap:round;stroke-linejoin:round;stroke-miterlimit:4;stroke-dasharray:none;stroke-opacity:1"
             d="M 0,0 C 0,0 -0.457,-2.831 -2.045,-2.856 -3.63,-2.881 -4.902,-3.068 -5.543,-1.334" /></g><g
           transform="translate(654.1787,159.9072)"
           id="g396"><path
             id="path398"
             style="fill:#babbbc;fill-opacity:1;fill-rule:nonzero;stroke:#332d2b;stroke-width:0.26100001;stroke-linecap:round;stroke-linejoin:round;stroke-miterlimit:4;stroke-dasharray:none;stroke-opacity:1"
             d="M 0,0 3.656,-5.76" /></g><g
           transform="translate(621.3105,280.7891)"
           id="g400"><path
             id="path402"
             style="fill:none;stroke:#332d2b;stroke-width:0.26100001;stroke-linecap:butt;stroke-linejoin:miter;stroke-miterlimit:4;stroke-dasharray:none;stroke-opacity:1"
             d="M 0,0 -1.462,-13.506" /></g><g
           transform="translate(621.7676,280.1504)"
           id="g404"><path
             id="path406"
             style="fill:none;stroke:#332d2b;stroke-width:0.26100001;stroke-linecap:butt;stroke-linejoin:miter;stroke-miterlimit:4;stroke-dasharray:none;stroke-opacity:1"
             d="M 0,0 -1.461,-13.668" /></g><g
           transform="translate(622.2363,279.6816)"
           id="g408"><path
             id="path410"
             style="fill:none;stroke:#332d2b;stroke-width:0.26100001;stroke-linecap:butt;stroke-linejoin:miter;stroke-miterlimit:4;stroke-dasharray:none;stroke-opacity:1"
             d="M 0,0 -1.475,-13.749" /></g><g
           transform="translate(622.6816,279.0078)"
           id="g412"><path
             id="path414"
             style="fill:none;stroke:#332d2b;stroke-width:0.26100001;stroke-linecap:butt;stroke-linejoin:miter;stroke-miterlimit:4;stroke-dasharray:none;stroke-opacity:1"
             d="M 0,0 -1.461,-13.736" /></g><g
           transform="translate(623.1738,278.7441)"
           id="g416"><path
             id="path418"
             style="fill:none;stroke:#332d2b;stroke-width:0.26100001;stroke-linecap:butt;stroke-linejoin:miter;stroke-miterlimit:4;stroke-dasharray:none;stroke-opacity:1"
             d="M 0,0 -1.496,-13.749" /></g><g
           transform="translate(623.6426,278.2754)"
           id="g420"><path
             id="path422"
             style="fill:none;stroke:#332d2b;stroke-width:0.26100001;stroke-linecap:butt;stroke-linejoin:miter;stroke-miterlimit:4;stroke-dasharray:none;stroke-opacity:1"
             d="M 0,0 -1.486,-13.803" /></g><g
           transform="translate(624.1104,277.8066)"
           id="g424"><path
             id="path426"
             style="fill:none;stroke:#332d2b;stroke-width:0.26100001;stroke-linecap:butt;stroke-linejoin:miter;stroke-miterlimit:4;stroke-dasharray:none;stroke-opacity:1"
             d="M 0,0 -1.462,-13.669" /></g><g
           transform="translate(624.6016,277.4756)"
           id="g428"><path
             id="path430"
             style="fill:none;stroke:#332d2b;stroke-width:0.26100001;stroke-linecap:butt;stroke-linejoin:miter;stroke-miterlimit:4;stroke-dasharray:none;stroke-opacity:1"
             d="M 0,0 -1.484,-13.804" /></g><g
           transform="translate(625.1055,277.1797)"
           id="g432"><path
             id="path434"
             style="fill:none;stroke:#332d2b;stroke-width:0.26100001;stroke-linecap:butt;stroke-linejoin:miter;stroke-miterlimit:4;stroke-dasharray:none;stroke-opacity:1"
             d="M 0,0 -1.486,-13.873" /></g><g
           transform="translate(625.584,276.9727)"
           id="g436"><path
             id="path438"
             style="fill:none;stroke:#332d2b;stroke-width:0.26100001;stroke-linecap:butt;stroke-linejoin:miter;stroke-miterlimit:4;stroke-dasharray:none;stroke-opacity:1"
             d="M 0,0 -1.461,-13.919" /></g><g
           transform="translate(626.2021,276.6533)"
           id="g440"><path
             id="path442"
             style="fill:none;stroke:#332d2b;stroke-width:0.26100001;stroke-linecap:butt;stroke-linejoin:miter;stroke-miterlimit:4;stroke-dasharray:none;stroke-opacity:1"
             d="M 0,0 -1.462,-13.919" /></g><g
           transform="translate(626.75,276.4023)"
           id="g444"><path
             id="path446"
             style="fill:none;stroke:#332d2b;stroke-width:0.26100001;stroke-linecap:butt;stroke-linejoin:miter;stroke-miterlimit:4;stroke-dasharray:none;stroke-opacity:1"
             d="M 0,0 -1.462,-13.92" /></g><g
           transform="translate(627.2988,276.1504)"
           id="g448"><path
             id="path450"
             style="fill:none;stroke:#332d2b;stroke-width:0.26800001;stroke-linecap:butt;stroke-linejoin:miter;stroke-miterlimit:4;stroke-dasharray:none;stroke-opacity:1"
             d="M 0,0 -1.531,-13.988" /></g><g
           transform="translate(627.8711,275.9668)"
           id="g452"><path
             id="path454"
             style="fill:none;stroke:#332d2b;stroke-width:0.264;stroke-linecap:butt;stroke-linejoin:miter;stroke-miterlimit:4;stroke-dasharray:none;stroke-opacity:1"
             d="M 0,0 -1.486,-13.987" /></g><g
           transform="translate(628.5332,275.8301)"
           id="g456"><path
             id="path458"
             style="fill:none;stroke:#332d2b;stroke-width:0.27500001;stroke-linecap:butt;stroke-linejoin:miter;stroke-miterlimit:4;stroke-dasharray:none;stroke-opacity:1"
             d="M 0,0 -1.601,-14.102" /></g><g
           transform="translate(629.127,275.6709)"
           id="g460"><path
             id="path462"
             style="fill:none;stroke:#332d2b;stroke-width:0.27500001;stroke-linecap:butt;stroke-linejoin:miter;stroke-miterlimit:4;stroke-dasharray:none;stroke-opacity:1"
             d="M 0,0 -1.6,-14.103" /></g><g
           transform="translate(629.79,275.6016)"
           id="g464"><path
             id="path466"
             style="fill:none;stroke:#332d2b;stroke-width:0.278;stroke-linecap:butt;stroke-linejoin:miter;stroke-miterlimit:4;stroke-dasharray:none;stroke-opacity:1"
             d="M 0,0 -1.601,-14.375" /></g><g
           transform="translate(630.498,275.3945)"
           id="g468"><path
             id="path470"
             style="fill:none;stroke:#332d2b;stroke-width:0.278;stroke-linecap:butt;stroke-linejoin:miter;stroke-miterlimit:4;stroke-dasharray:none;stroke-opacity:1"
             d="M 0,0 -1.6,-14.376" /></g><g
           transform="translate(631.252,275.2578)"
           id="g472"><path
             id="path474"
             style="fill:none;stroke:#332d2b;stroke-width:0.28200001;stroke-linecap:butt;stroke-linejoin:miter;stroke-miterlimit:4;stroke-dasharray:none;stroke-opacity:1"
             d="M 0,0 -1.645,-14.446" /></g><g
           transform="translate(635.3447,275.0303)"
           id="g476"><path
             id="path478"
             style="fill:#747373;fill-opacity:1;fill-rule:nonzero;stroke:#332d2b;stroke-width:0.26100001;stroke-linecap:round;stroke-linejoin:round;stroke-miterlimit:4;stroke-dasharray:none;stroke-opacity:1"
             d="M 0,0 0.021,-14.65" /></g><g
           transform="translate(634.7725,275.0303)"
           id="g480"><path
             id="path482"
             style="fill:#747373;fill-opacity:1;fill-rule:nonzero;stroke:#332d2b;stroke-width:0.26100001;stroke-linecap:round;stroke-linejoin:round;stroke-miterlimit:4;stroke-dasharray:none;stroke-opacity:1"
             d="M 0,0 -0.159,-14.673" /></g><g
           transform="translate(634.2012,275.0303)"
           id="g484"><path
             id="path486"
             style="fill:#747373;fill-opacity:1;fill-rule:nonzero;stroke:#332d2b;stroke-width:0.26100001;stroke-linecap:round;stroke-linejoin:round;stroke-miterlimit:4;stroke-dasharray:none;stroke-opacity:1"
             d="M 0,0 -0.479,-14.72" /></g><g
           transform="translate(633.5615,274.9844)"
           id="g488"><path
             id="path490"
             style="fill:#747373;fill-opacity:1;fill-rule:nonzero;stroke:#332d2b;stroke-width:0.26100001;stroke-linecap:round;stroke-linejoin:round;stroke-miterlimit:4;stroke-dasharray:none;stroke-opacity:1"
             d="M 0,0 -0.755,-14.49" /></g><g
           transform="translate(632.8291,274.9619)"
           id="g492"><path
             id="path494"
             style="fill:#747373;fill-opacity:1;fill-rule:nonzero;stroke:none"
             d="M 0,0 -0.823,-14.399" /></g><g
           transform="translate(632.8301,274.9619)"
           id="g496"><path
             id="path498"
             style="fill:none;stroke:#332d2b;stroke-width:0.26100001;stroke-linecap:round;stroke-linejoin:round;stroke-miterlimit:4;stroke-dasharray:none;stroke-opacity:1"
             d="M 0,0 -0.824,-14.399" /></g><g
           transform="translate(632.4648,275.0977)"
           id="g500"><path
             id="path502"
             style="fill:#747373;fill-opacity:1;fill-rule:nonzero;stroke:#332d2b;stroke-width:0.26100001;stroke-linecap:round;stroke-linejoin:round;stroke-miterlimit:4;stroke-dasharray:none;stroke-opacity:1"
             d="M 0,0 -1.35,-14.375" /></g><g
           transform="translate(631.8467,275.1211)"
           id="g504"><path
             id="path506"
             style="fill:#747373;fill-opacity:1;fill-rule:nonzero;stroke:#332d2b;stroke-width:0.26100001;stroke-linecap:round;stroke-linejoin:round;stroke-miterlimit:4;stroke-dasharray:none;stroke-opacity:1"
             d="M 0,0 -1.532,-14.283" /></g><g
           transform="translate(647.8701,280.333)"
           id="g508"><path
             id="path510"
             style="fill:none;stroke:#332d2b;stroke-width:0.25600001;stroke-linecap:butt;stroke-linejoin:miter;stroke-miterlimit:4;stroke-dasharray:none;stroke-opacity:1"
             d="M 0,0 1.485,-13.257" /></g><g
           transform="translate(647.377,279.5449)"
           id="g512"><path
             id="path514"
             style="fill:none;stroke:#332d2b;stroke-width:0.25600001;stroke-linecap:butt;stroke-linejoin:miter;stroke-miterlimit:4;stroke-dasharray:none;stroke-opacity:1"
             d="M 0,0 1.461,-13.352" /></g><g
           transform="translate(646.8818,278.9141)"
           id="g516"><path
             id="path518"
             style="fill:none;stroke:#332d2b;stroke-width:0.25600001;stroke-linecap:butt;stroke-linejoin:miter;stroke-miterlimit:4;stroke-dasharray:none;stroke-opacity:1"
             d="M 0,0 1.509,-13.395" /></g><g
           transform="translate(646.2412,278.2139)"
           id="g520"><path
             id="path522"
             style="fill:none;stroke:#332d2b;stroke-width:0.25600001;stroke-linecap:butt;stroke-linejoin:miter;stroke-miterlimit:4;stroke-dasharray:none;stroke-opacity:1"
             d="M 0,0 1.65,-13.194" /></g><g
           transform="translate(645.6309,277.6123)"
           id="g524"><path
             id="path526"
             style="fill:none;stroke:#332d2b;stroke-width:0.26100001;stroke-linecap:butt;stroke-linejoin:miter;stroke-miterlimit:4;stroke-dasharray:none;stroke-opacity:1"
             d="M 0,0 1.645,-13.256" /></g><g
           transform="translate(645.0625,277.1289)"
           id="g528"><path
             id="path530"
             style="fill:none;stroke:#332d2b;stroke-width:0.26100001;stroke-linecap:butt;stroke-linejoin:miter;stroke-miterlimit:4;stroke-dasharray:none;stroke-opacity:1"
             d="M 0,0 1.688,-13.412" /></g><g
           transform="translate(644.5332,276.8125)"
           id="g532"><path
             id="path534"
             style="fill:none;stroke:#332d2b;stroke-width:0.26100001;stroke-linecap:butt;stroke-linejoin:miter;stroke-miterlimit:4;stroke-dasharray:none;stroke-opacity:1"
             d="M 0,0 1.642,-13.568" /></g><g
           transform="translate(643.9619,276.585)"
           id="g536"><path
             id="path538"
             style="fill:none;stroke:#332d2b;stroke-width:0.26800001;stroke-linecap:butt;stroke-linejoin:miter;stroke-miterlimit:4;stroke-dasharray:none;stroke-opacity:1"
             d="M 0,0 1.735,-13.67" /></g><g
           transform="translate(643.3936,276.3936)"
           id="g540"><path
             id="path542"
             style="fill:none;stroke:#332d2b;stroke-width:0.264;stroke-linecap:butt;stroke-linejoin:miter;stroke-miterlimit:4;stroke-dasharray:none;stroke-opacity:1"
             d="M 0,0 1.692,-13.987" /></g><g
           transform="translate(642.7275,276.127)"
           id="g544"><path
             id="path546"
             style="fill:none;stroke:#332d2b;stroke-width:0.27500001;stroke-linecap:butt;stroke-linejoin:miter;stroke-miterlimit:4;stroke-dasharray:none;stroke-opacity:1"
             d="M 0,0 1.812,-13.982" /></g><g
           transform="translate(642.1367,275.959)"
           id="g548"><path
             id="path550"
             style="fill:none;stroke:#332d2b;stroke-width:0.27500001;stroke-linecap:butt;stroke-linejoin:miter;stroke-miterlimit:4;stroke-dasharray:none;stroke-opacity:1"
             d="M 0,0 1.812,-13.982" /></g><g
           transform="translate(641.4932,275.8301)"
           id="g552"><path
             id="path554"
             style="fill:none;stroke:#332d2b;stroke-width:0.278;stroke-linecap:butt;stroke-linejoin:miter;stroke-miterlimit:4;stroke-dasharray:none;stroke-opacity:1"
             d="M 0,0 1.797,-14.205" /></g><g
           transform="translate(640.7881,275.6123)"
           id="g556"><path
             id="path558"
             style="fill:none;stroke:#332d2b;stroke-width:0.278;stroke-linecap:butt;stroke-linejoin:miter;stroke-miterlimit:4;stroke-dasharray:none;stroke-opacity:1"
             d="M 0,0 1.803,-14.272" /></g><g
           transform="translate(640.0137,275.626)"
           id="g560"><path
             id="path562"
             style="fill:none;stroke:#332d2b;stroke-width:0.28200001;stroke-linecap:butt;stroke-linejoin:miter;stroke-miterlimit:4;stroke-dasharray:none;stroke-opacity:1"
             d="M 0,0 1.85,-14.545" /></g><g
           transform="translate(635.9443,275.0547)"
           id="g564"><path
             id="path566"
             style="fill:#747373;fill-opacity:1;fill-rule:nonzero;stroke:#332d2b;stroke-width:0.26100001;stroke-linecap:round;stroke-linejoin:round;stroke-miterlimit:4;stroke-dasharray:none;stroke-opacity:1"
             d="M 0,0 0.179,-14.654" /></g><g
           transform="translate(636.5156,275.0625)"
           id="g568"><path
             id="path570"
             style="fill:#747373;fill-opacity:1;fill-rule:nonzero;stroke:#332d2b;stroke-width:0.26100001;stroke-linecap:round;stroke-linejoin:round;stroke-miterlimit:4;stroke-dasharray:none;stroke-opacity:1"
             d="M 0,0 0.373,-14.668" /></g><g
           transform="translate(637.0869,275.0703)"
           id="g572"><path
             id="path574"
             style="fill:#747373;fill-opacity:1;fill-rule:nonzero;stroke:#332d2b;stroke-width:0.26100001;stroke-linecap:round;stroke-linejoin:round;stroke-miterlimit:4;stroke-dasharray:none;stroke-opacity:1"
             d="M 0,0 0.703,-14.576" /></g><g
           transform="translate(637.7266,275.0342)"
           id="g576"><path
             id="path578"
             style="fill:#747373;fill-opacity:1;fill-rule:nonzero;stroke:#332d2b;stroke-width:0.26100001;stroke-linecap:round;stroke-linejoin:round;stroke-miterlimit:4;stroke-dasharray:none;stroke-opacity:1"
             d="M 0,0 0.966,-14.479" /></g><g
           transform="translate(638.459,275.0215)"
           id="g580"><path
             id="path582"
             style="fill:#747373;fill-opacity:1;fill-rule:nonzero;stroke:#332d2b;stroke-width:0.26100001;stroke-linecap:round;stroke-linejoin:round;stroke-miterlimit:4;stroke-dasharray:none;stroke-opacity:1"
             d="M 0,0 1.032,-14.383" /></g><g
           transform="translate(638.8223,275.1641)"
           id="g584"><path
             id="path586"
             style="fill:#747373;fill-opacity:1;fill-rule:nonzero;stroke:#332d2b;stroke-width:0.26100001;stroke-linecap:round;stroke-linejoin:round;stroke-miterlimit:4;stroke-dasharray:none;stroke-opacity:1"
             d="M 0,0 1.558,-14.354" /></g><g
           transform="translate(639.4395,275.1973)"
           id="g588"><path
             id="path590"
             style="fill:#747373;fill-opacity:1;fill-rule:nonzero;stroke:#332d2b;stroke-width:0.26100001;stroke-linecap:round;stroke-linejoin:round;stroke-miterlimit:4;stroke-dasharray:none;stroke-opacity:1"
             d="M 0,0 1.734,-14.108" /></g><g
           transform="translate(668.0625,283.877)"
           id="g592"><path
             id="path594"
             style="fill:none;stroke:#ffffff;stroke-width:1;stroke-linecap:butt;stroke-linejoin:miter;stroke-miterlimit:4;stroke-dasharray:none;stroke-opacity:1"
             d="M 0,0 5.521,2.755 C -4.186,1.886 -4.33,2.225 -14.405,2.507 c 5.136,-2.234 9.496,-5.599 11.31,-9.172 l 0.562,4.913 c 2.999,-0.894 4.775,-1.968 4.775,-3.127 0,-3.088 -12.409,-5.592 -27.717,-5.592 -15.316,0 -27.72,2.504 -27.72,5.592 0,0.649 0.572,1.27 1.581,1.85 l -2.482,1.662 c -1.937,-1.067 -3.025,-2.256 -3.025,-3.512 0,-4.546 14.165,-8.23 31.646,-8.23 17.472,0 31.641,3.684 31.641,8.23 C 6.166,-3.054 3.874,-1.366 0,0 Z" /></g><g
           transform="translate(598.8457,270.7266)"
           id="g596"><path
             id="path598"
             style="fill:none;stroke:#ffffff;stroke-width:1;stroke-linecap:butt;stroke-linejoin:miter;stroke-miterlimit:4;stroke-dasharray:none;stroke-opacity:1"
             d="M 0,0 -5.521,2.755 C 4.184,1.886 4.33,2.224 14.405,2.507 9.268,0.273 4.908,-3.094 3.094,-6.665 l -0.561,4.913 c -3,-0.894 -4.777,-1.968 -4.777,-3.127 0,-3.088 12.412,-5.592 27.719,-5.592 15.31,0 27.715,2.504 27.715,5.592 0,0.649 -0.572,1.27 -1.581,1.85 l 2.484,1.66 c 1.934,-1.065 3.023,-2.254 3.023,-3.51 0,-4.547 -14.165,-8.23 -31.641,-8.23 -17.473,0 -31.642,3.683 -31.642,8.23 0,1.825 2.292,3.513 6.167,4.879 z" /></g><g
           transform="translate(668.0625,283.877)"
           id="g600"><path
             id="path602"
             style="fill:#333131;fill-opacity:1;fill-rule:nonzero;stroke:none"
             d="M 0,0 5.521,2.755 C -4.186,1.886 -4.33,2.225 -14.405,2.507 c 5.136,-2.234 9.496,-5.599 11.31,-9.172 l 0.562,4.913 c 2.999,-0.894 4.775,-1.968 4.775,-3.127 0,-3.088 -12.409,-5.592 -27.717,-5.592 -15.316,0 -27.72,2.504 -27.72,5.592 0,0.649 0.572,1.27 1.581,1.85 l -2.482,1.662 c -1.937,-1.067 -3.025,-2.256 -3.025,-3.512 0,-4.546 14.165,-8.23 31.646,-8.23 17.472,0 31.641,3.684 31.641,8.23 C 6.166,-3.054 3.874,-1.366 0,0" /></g><g
           transform="translate(598.8457,270.7266)"
           id="g604"><path
             id="path606"
             style="fill:#333131;fill-opacity:1;fill-rule:nonzero;stroke:none"
             d="M 0,0 -5.521,2.755 C 4.184,1.886 4.33,2.224 14.405,2.507 9.268,0.273 4.908,-3.094 3.094,-6.665 l -0.561,4.913 c -3,-0.894 -4.777,-1.968 -4.777,-3.127 0,-3.088 12.412,-5.592 27.719,-5.592 15.31,0 27.715,2.504 27.715,5.592 0,0.649 -0.572,1.27 -1.581,1.85 l 2.484,1.66 c 1.934,-1.065 3.023,-2.254 3.023,-3.51 0,-4.547 -14.165,-8.23 -31.641,-8.23 -17.473,0 -31.642,3.683 -31.642,8.23 0,1.825 2.292,3.513 6.167,4.879" /></g><g
           transform="translate(620.7666,201.5967)"
           id="g608"><path
             id="path610"
             style="fill:#ffffff;fill-opacity:1;fill-rule:nonzero;stroke:none"
             d="m 0,0 c 0,-2.047 -1.659,-3.708 -3.708,-3.708 -2.047,0 -3.707,1.661 -3.707,3.708 0,2.047 1.66,3.708 3.707,3.708 C -1.659,3.708 0,2.047 0,0" /></g><g
           transform="translate(620.7666,201.5967)"
           id="g612"><path
             id="path614"
             style="fill:none;stroke:#332d2b;stroke-width:0.40000001;stroke-linecap:butt;stroke-linejoin:miter;stroke-miterlimit:10;stroke-dasharray:none;stroke-opacity:1"
             d="m 0,0 c 0,-2.047 -1.659,-3.708 -3.708,-3.708 -2.047,0 -3.707,1.661 -3.707,3.708 0,2.047 1.66,3.708 3.707,3.708 C -1.659,3.708 0,2.047 0,0 Z" /></g><g
           transform="translate(616.8652,199.0498)"
           id="g616"><path
             id="path618"
             style="fill:#332d2b;fill-opacity:1;fill-rule:nonzero;stroke:none"
             d="M 0,0 V 3.94 C -0.18,3.853 -0.327,3.793 -0.447,3.766 -0.569,3.738 -0.703,3.725 -0.845,3.725 h -0.147 v 0.476 c 0.195,0 0.349,0.014 0.477,0.048 0.128,0.034 0.234,0.095 0.316,0.174 0.079,0.08 0.14,0.187 0.174,0.315 0.041,0.134 0.067,0.295 0.08,0.49 H 0.679 L 0.679,0 Z" /></g><g
           transform="translate(656.0762,201.5977)"
           id="g620"><path
             id="path622"
             style="fill:#ffffff;fill-opacity:1;fill-rule:nonzero;stroke:none"
             d="m 0,0 c 0,-2.048 -1.66,-3.708 -3.707,-3.708 -2.048,0 -3.708,1.66 -3.708,3.708 0,2.047 1.66,3.709 3.708,3.709 C -1.66,3.709 0,2.047 0,0" /></g><g
           transform="translate(656.0762,201.5977)"
           id="g624"><path
             id="path626"
             style="fill:none;stroke:#332d2b;stroke-width:0.40000001;stroke-linecap:butt;stroke-linejoin:miter;stroke-miterlimit:10;stroke-dasharray:none;stroke-opacity:1"
             d="m 0,0 c 0,-2.048 -1.66,-3.708 -3.707,-3.708 -2.048,0 -3.708,1.66 -3.708,3.708 0,2.047 1.66,3.709 3.708,3.709 C -1.66,3.709 0,2.047 0,0 Z" /></g><g
           transform="translate(650.8613,199.0801)"
           id="g628"><path
             id="path630"
             style="fill:#332d2b;fill-opacity:1;fill-rule:nonzero;stroke:none"
             d="m 0,0 c -0.007,0.228 0,0.43 0.027,0.61 0.028,0.182 0.08,0.357 0.16,0.518 0.082,0.168 0.196,0.33 0.337,0.489 0.14,0.16 0.335,0.335 0.565,0.524 0.14,0.115 0.273,0.235 0.408,0.349 0.141,0.115 0.263,0.236 0.369,0.356 0.109,0.129 0.196,0.256 0.263,0.39 0.065,0.134 0.1,0.282 0.1,0.435 0,0.297 -0.054,0.53 -0.155,0.7 C 1.975,4.544 1.793,4.632 1.537,4.632 1.276,4.632 1.074,4.523 0.952,4.303 0.826,4.081 0.758,3.766 0.758,3.37 H 0.08 c 0,0.605 0.135,1.067 0.397,1.383 0.262,0.314 0.618,0.476 1.06,0.476 0.417,0 0.744,-0.141 0.994,-0.416 C 2.779,4.53 2.907,4.154 2.907,3.693 2.907,3.444 2.865,3.223 2.786,3.041 2.707,2.859 2.598,2.692 2.464,2.537 2.324,2.383 2.168,2.229 1.986,2.088 1.805,1.946 1.617,1.792 1.422,1.624 1.222,1.451 1.055,1.275 0.933,1.107 0.806,0.939 0.726,0.785 0.699,0.658 H 2.88 V 0 Z" /></g><g
           transform="translate(620.7666,192.5771)"
           id="g632"><path
             id="path634"
             style="fill:#ffffff;fill-opacity:1;fill-rule:nonzero;stroke:none"
             d="m 0,0 c 0,-2.048 -1.658,-3.708 -3.706,-3.708 -2.049,0 -3.709,1.66 -3.709,3.708 0,2.047 1.66,3.707 3.709,3.707 C -1.658,3.707 0,2.047 0,0" /></g><g
           transform="translate(620.7666,192.5771)"
           id="g636"><path
             id="path638"
             style="fill:none;stroke:#332d2b;stroke-width:0.40000001;stroke-linecap:butt;stroke-linejoin:miter;stroke-miterlimit:10;stroke-dasharray:none;stroke-opacity:1"
             d="m 0,0 c 0,-2.048 -1.658,-3.708 -3.706,-3.708 -2.049,0 -3.709,1.66 -3.709,3.708 0,2.047 1.66,3.707 3.709,3.707 C -1.658,3.707 0,2.047 0,0 Z" /></g><g
           transform="translate(616.6562,192.4053)"
           id="g640"><path
             id="path642"
             style="fill:#332d2b;fill-opacity:1;fill-rule:nonzero;stroke:none"
             d="m 0,0 v 0.617 h 0.283 c 0.295,0 0.502,0.069 0.617,0.202 0.121,0.134 0.18,0.349 0.18,0.637 0,0.243 -0.053,0.436 -0.153,0.578 C 0.826,2.175 0.66,2.249 0.422,2.249 0.162,2.249 -0.021,2.143 -0.12,1.933 -0.229,1.726 -0.281,1.465 -0.281,1.155 h -0.677 c 0.019,0.55 0.161,0.974 0.408,1.262 0.255,0.288 0.589,0.436 1.007,0.436 C 0.84,2.853 1.154,2.726 1.396,2.47 1.639,2.208 1.759,1.873 1.759,1.456 1.759,1.377 1.752,1.282 1.745,1.182 1.732,1.073 1.713,0.967 1.678,0.866 1.646,0.765 1.605,0.665 1.545,0.571 1.483,0.47 1.403,0.396 1.303,0.336 1.551,0.175 1.713,-0.014 1.785,-0.222 1.858,-0.435 1.9,-0.67 1.9,-0.919 1.9,-1.402 1.766,-1.785 1.504,-2.074 1.235,-2.363 0.873,-2.511 0.416,-2.511 c -0.456,0 -0.818,0.148 -1.093,0.45 -0.276,0.303 -0.417,0.747 -0.417,1.323 h 0.679 c 0,-0.41 0.072,-0.705 0.221,-0.886 0.147,-0.188 0.34,-0.281 0.583,-0.281 0.283,0 0.492,0.088 0.626,0.26 0.139,0.174 0.207,0.417 0.207,0.732 0,0.322 -0.068,0.558 -0.207,0.698 C 0.873,-0.074 0.639,0 0.295,0 Z" /></g><g
           transform="translate(656.0762,192.5762)"
           id="g644"><path
             id="path646"
             style="fill:#ffffff;fill-opacity:1;fill-rule:nonzero;stroke:none"
             d="m 0,0 c 0,-2.047 -1.657,-3.709 -3.707,-3.709 -2.048,0 -3.708,1.662 -3.708,3.709 0,2.047 1.66,3.708 3.708,3.708 C -1.657,3.708 0,2.047 0,0" /></g><g
           transform="translate(656.0762,192.5762)"
           id="g648"><path
             id="path650"
             style="fill:none;stroke:#332d2b;stroke-width:0.40000001;stroke-linecap:butt;stroke-linejoin:miter;stroke-miterlimit:10;stroke-dasharray:none;stroke-opacity:1"
             d="m 0,0 c 0,-2.047 -1.657,-3.709 -3.707,-3.709 -2.048,0 -3.708,1.662 -3.708,3.709 0,2.047 1.66,3.708 3.708,3.708 C -1.657,3.708 0,2.047 0,0 Z" /></g><g
           transform="translate(652.377,193.9014)"
           id="g652"><path
             id="path654"
             style="fill:#332d2b;fill-opacity:1;fill-rule:nonzero;stroke:none"
             d="M 0,0 -1.049,-1.979 H 0 Z M 1.166,-1.979 V -2.618 H 0.67 V -3.94 H 0 v 1.322 h -1.788 v 0.571 L 0.019,1.29 H 0.67 v -3.269 z" /></g><g
           transform="translate(620.7666,183.5547)"
           id="g656"><path
             id="path658"
             style="fill:#ffffff;fill-opacity:1;fill-rule:nonzero;stroke:none"
             d="m 0,0 c 0,-2.047 -1.659,-3.707 -3.706,-3.707 -2.049,0 -3.709,1.66 -3.709,3.707 0,2.05 1.66,3.709 3.709,3.709 C -1.659,3.709 0,2.05 0,0" /></g><g
           transform="translate(620.7666,183.5547)"
           id="g660"><path
             id="path662"
             style="fill:none;stroke:#332d2b;stroke-width:0.40000001;stroke-linecap:butt;stroke-linejoin:miter;stroke-miterlimit:10;stroke-dasharray:none;stroke-opacity:1"
             d="m 0,0 c 0,-2.047 -1.659,-3.707 -3.706,-3.707 -2.049,0 -3.709,1.66 -3.709,3.707 0,2.05 1.66,3.709 3.709,3.709 C -1.659,3.709 0,2.05 0,0 Z" /></g><g
           transform="translate(616.4883,181.6855)"
           id="g664"><path
             id="path666"
             style="fill:#332d2b;fill-opacity:1;fill-rule:nonzero;stroke:none"
             d="m 0,0 c 0.115,-0.167 0.304,-0.242 0.564,-0.242 0.254,0 0.444,0.096 0.57,0.275 C 1.262,0.222 1.33,0.476 1.33,0.807 1.33,1.229 1.27,1.543 1.141,1.738 1.015,1.94 0.818,2.041 0.545,2.041 0.362,2.041 0.222,2 0.121,1.927 0.021,1.853 -0.086,1.725 -0.188,1.558 h -0.564 l 0.35,2.798 h 2.22 V 3.725 H 0.115 L -0.027,2.443 C 0.067,2.517 0.167,2.571 0.275,2.604 0.382,2.637 0.497,2.659 0.61,2.659 1.069,2.659 1.416,2.489 1.652,2.162 1.887,1.832 2.008,1.383 2.008,0.825 2.008,0.577 1.973,0.35 1.898,0.141 1.828,-0.066 1.732,-0.249 1.604,-0.396 1.479,-0.549 1.322,-0.664 1.147,-0.744 0.967,-0.832 0.771,-0.872 0.556,-0.872 c -0.414,0 -0.75,0.14 -1.012,0.423 -0.263,0.282 -0.396,0.671 -0.41,1.168 h 0.678 C -0.182,0.403 -0.115,0.168 0,0" /></g><g
           transform="translate(648.6602,183.5547)"
           id="g668"><path
             id="path670"
             style="fill:#ffffff;fill-opacity:1;fill-rule:nonzero;stroke:none"
             d="M 0,0 C 0,2.047 1.66,3.709 3.708,3.709 5.755,3.709 7.416,2.047 7.416,0 7.416,-2.047 5.755,-3.708 3.708,-3.708 1.66,-3.708 0,-2.047 0,0" /></g><g
           transform="translate(648.6602,183.5547)"
           id="g672"><path
             id="path674"
             style="fill:none;stroke:#332d2b;stroke-width:0.40000001;stroke-linecap:butt;stroke-linejoin:miter;stroke-miterlimit:10;stroke-dasharray:none;stroke-opacity:1"
             d="M 0,0 C 0,2.047 1.66,3.709 3.708,3.709 5.755,3.709 7.416,2.047 7.416,0 7.416,-2.047 5.755,-3.708 3.708,-3.708 1.66,-3.708 0,-2.047 0,0 Z" /></g><g
           transform="translate(651.7549,183.4922)"
           id="g676"><path
             id="path678"
             style="fill:#332d2b;fill-opacity:1;fill-rule:nonzero;stroke:none"
             d="m 0,0 c -0.143,-0.197 -0.209,-0.471 -0.209,-0.82 0,-0.355 0.06,-0.637 0.188,-0.837 0.128,-0.209 0.309,-0.324 0.544,-0.332 0.248,-0.006 0.431,0.1 0.551,0.298 0.127,0.193 0.194,0.466 0.2,0.825 C 1.281,-0.457 1.215,-0.161 1.086,0.019 0.962,0.199 0.778,0.295 0.537,0.295 0.315,0.295 0.134,0.193 0,0 m -0.531,-2.015 c -0.269,0.408 -0.409,1.02 -0.409,1.845 0,0.927 0.127,1.646 0.389,2.149 0.263,0.51 0.658,0.764 1.189,0.764 0.348,0 0.63,-0.12 0.844,-0.368 C 1.698,2.126 1.825,1.784 1.873,1.342 H 1.229 C 1.174,1.609 1.108,1.804 1.026,1.932 0.946,2.061 0.805,2.126 0.604,2.126 0.51,2.126 0.415,2.099 0.315,2.047 0.215,1.986 0.127,1.891 0.046,1.757 -0.034,1.629 -0.1,1.456 -0.161,1.246 -0.222,1.038 -0.261,0.776 -0.281,0.476 -0.127,0.664 0.026,0.784 0.182,0.83 0.335,0.885 0.47,0.912 0.59,0.912 0.791,0.912 0.973,0.871 1.141,0.784 1.309,0.696 1.449,0.576 1.563,0.421 1.677,0.268 1.771,0.079 1.832,-0.143 1.894,-0.363 1.92,-0.611 1.92,-0.88 1.92,-1.129 1.886,-1.358 1.825,-1.566 1.759,-1.773 1.664,-1.962 1.544,-2.115 1.431,-2.271 1.288,-2.392 1.12,-2.479 0.954,-2.566 0.765,-2.618 0.558,-2.618 c -0.464,0 -0.828,0.201 -1.089,0.603" /></g><g
           transform="translate(620.7666,174.5352)"
           id="g680"><path
             id="path682"
             style="fill:#ffffff;fill-opacity:1;fill-rule:nonzero;stroke:none"
             d="m 0,0 c 0,-2.048 -1.658,-3.708 -3.706,-3.708 -2.049,0 -3.709,1.66 -3.709,3.708 0,2.049 1.66,3.709 3.709,3.709 C -1.658,3.709 0,2.049 0,0" /></g><g
           transform="translate(620.7666,174.5352)"
           id="g684"><path
             id="path686"
             style="fill:none;stroke:#332d2b;stroke-width:0.40000001;stroke-linecap:butt;stroke-linejoin:miter;stroke-miterlimit:10;stroke-dasharray:none;stroke-opacity:1"
             d="m 0,0 c 0,-2.048 -1.658,-3.708 -3.706,-3.708 -2.049,0 -3.709,1.66 -3.709,3.708 0,2.049 1.66,3.709 3.709,3.709 C -1.658,3.709 0,2.049 0,0 Z" /></g><g
           transform="translate(616.1816,171.7939)"
           id="g688"><path
             id="path690"
             style="fill:#332d2b;fill-opacity:1;fill-rule:nonzero;stroke:none"
             d="m 0,0 c 0.047,0.402 0.114,0.792 0.194,1.16 0.087,0.378 0.187,0.746 0.308,1.115 0.121,0.37 0.263,0.746 0.424,1.121 0.168,0.377 0.356,0.773 0.576,1.182 h -1.986 v 0.651 h 2.82 V 4.651 C 2.107,4.29 1.904,3.926 1.725,3.564 1.543,3.202 1.381,2.833 1.248,2.456 1.114,2.073 1,1.686 0.912,1.282 0.819,0.872 0.751,0.45 0.705,0 Z" /></g><g
           transform="translate(656.0762,174.5371)"
           id="g692"><path
             id="path694"
             style="fill:#ffffff;fill-opacity:1;fill-rule:nonzero;stroke:none"
             d="m 0,0 c 0,-2.05 -1.66,-3.709 -3.708,-3.709 -2.048,0 -3.707,1.659 -3.707,3.709 0,2.047 1.659,3.705 3.707,3.705 C -1.66,3.705 0,2.047 0,0" /></g><g
           transform="translate(656.0762,174.5371)"
           id="g696"><path
             id="path698"
             style="fill:none;stroke:#332d2b;stroke-width:0.40000001;stroke-linecap:butt;stroke-linejoin:miter;stroke-miterlimit:10;stroke-dasharray:none;stroke-opacity:1"
             d="m 0,0 c 0,-2.05 -1.66,-3.709 -3.708,-3.709 -2.048,0 -3.707,1.659 -3.707,3.709 0,2.047 1.659,3.705 3.707,3.705 C -1.66,3.705 0,2.047 0,0 Z" /></g><g
           transform="translate(652.9189,175.2227)"
           id="g700"><path
             id="path702"
             style="fill:#332d2b;fill-opacity:1;fill-rule:nonzero;stroke:none"
             d="M 0,0 C 0.127,0.129 0.194,0.318 0.194,0.571 0.194,0.839 0.127,1.041 0,1.175 -0.136,1.317 -0.315,1.383 -0.55,1.383 -0.784,1.383 -0.966,1.317 -1.088,1.184 -1.215,1.05 -1.276,0.848 -1.276,0.579 c 0,-0.257 0.061,-0.442 0.181,-0.571 0.129,-0.128 0.311,-0.189 0.545,-0.189 0.239,0 0.421,0.061 0.55,0.181 m -1.194,-1.033 c -0.169,-0.166 -0.243,-0.41 -0.237,-0.738 0.007,-0.303 0.088,-0.543 0.243,-0.724 0.155,-0.181 0.37,-0.268 0.638,-0.268 0.262,0 0.476,0.087 0.636,0.268 0.161,0.181 0.243,0.429 0.243,0.752 0,0.3 -0.075,0.535 -0.229,0.705 -0.154,0.166 -0.374,0.25 -0.65,0.25 -0.268,0 -0.483,-0.084 -0.644,-0.245 M 0.054,1.889 C 0.229,1.814 0.376,1.714 0.49,1.585 0.604,1.457 0.691,1.311 0.751,1.143 0.812,0.976 0.845,0.787 0.845,0.593 0.845,0.418 0.805,0.229 0.738,0.021 0.664,-0.186 0.537,-0.355 0.362,-0.489 c 0.235,-0.148 0.403,-0.336 0.497,-0.569 0.1,-0.237 0.148,-0.469 0.148,-0.705 0,-0.492 -0.142,-0.88 -0.415,-1.17 -0.277,-0.289 -0.659,-0.436 -1.142,-0.436 -0.234,0 -0.45,0.041 -0.638,0.114 -0.195,0.075 -0.363,0.181 -0.497,0.322 -0.133,0.143 -0.243,0.31 -0.308,0.503 -0.073,0.202 -0.115,0.424 -0.115,0.667 0,0.236 0.047,0.468 0.135,0.705 0.094,0.233 0.269,0.421 0.515,0.578 -0.181,0.125 -0.301,0.294 -0.367,0.501 -0.067,0.208 -0.103,0.397 -0.103,0.572 0,0.393 0.115,0.724 0.35,0.992 0.235,0.268 0.585,0.41 1.041,0.41 0.222,0 0.422,-0.033 0.591,-0.106" /></g><g
           transform="translate(620.7666,165.5127)"
           id="g704"><path
             id="path706"
             style="fill:#ffffff;fill-opacity:1;fill-rule:nonzero;stroke:none"
             d="m 0,0 c 0,-2.046 -1.659,-3.706 -3.708,-3.706 -2.049,0 -3.707,1.66 -3.707,3.706 0,2.049 1.658,3.709 3.707,3.709 C -1.659,3.709 0,2.049 0,0" /></g><g
           transform="translate(620.7666,165.5127)"
           id="g708"><path
             id="path710"
             style="fill:none;stroke:#332d2b;stroke-width:0.40000001;stroke-linecap:butt;stroke-linejoin:miter;stroke-miterlimit:10;stroke-dasharray:none;stroke-opacity:1"
             d="m 0,0 c 0,-2.046 -1.659,-3.706 -3.708,-3.706 -2.049,0 -3.707,1.66 -3.707,3.706 0,2.049 1.658,3.709 3.707,3.709 C -1.659,3.709 0,2.049 0,0 Z" /></g><g
           transform="translate(617.5488,165.5791)"
           id="g712"><path
             id="path714"
             style="fill:#332d2b;fill-opacity:1;fill-rule:nonzero;stroke:none"
             d="m 0,0 c 0.142,0.193 0.207,0.469 0.207,0.818 0,0.356 -0.061,0.638 -0.187,0.837 -0.127,0.211 -0.309,0.324 -0.545,0.331 -0.246,0.006 -0.43,-0.1 -0.549,-0.295 -0.127,-0.195 -0.194,-0.469 -0.202,-0.825 -0.007,-0.41 0.059,-0.705 0.189,-0.888 0.127,-0.18 0.308,-0.275 0.548,-0.275 0.223,0 0.403,0.102 0.539,0.297 M 0.53,2.014 C 0.797,1.604 0.939,0.991 0.939,0.166 0.939,-0.76 0.812,-1.479 0.551,-1.981 0.288,-2.492 -0.107,-2.747 -0.64,-2.747 c -0.348,0 -0.628,0.12 -0.843,0.369 -0.216,0.249 -0.343,0.59 -0.392,1.034 h 0.645 c 0.054,-0.268 0.121,-0.463 0.203,-0.592 0.08,-0.127 0.22,-0.193 0.422,-0.193 0.093,0 0.188,0.027 0.289,0.082 0.102,0.06 0.187,0.152 0.268,0.286 0.08,0.129 0.148,0.304 0.209,0.512 0.059,0.207 0.101,0.47 0.12,0.77 -0.156,-0.187 -0.309,-0.307 -0.463,-0.355 -0.154,-0.053 -0.289,-0.079 -0.408,-0.079 -0.202,0 -0.383,0.038 -0.552,0.127 -0.168,0.086 -0.307,0.208 -0.422,0.362 -0.114,0.154 -0.209,0.342 -0.269,0.563 -0.06,0.221 -0.087,0.468 -0.087,0.739 0,0.248 0.032,0.477 0.094,0.684 0.066,0.209 0.161,0.397 0.283,0.551 0.113,0.155 0.253,0.275 0.421,0.364 0.167,0.086 0.356,0.139 0.565,0.139 0.463,0 0.825,-0.199 1.087,-0.602" /></g><g
           transform="translate(656.0762,165.5127)"
           id="g716"><path
             id="path718"
             style="fill:#ffffff;fill-opacity:1;fill-rule:nonzero;stroke:none"
             d="m 0,0 c 0,-2.048 -1.66,-3.706 -3.707,-3.706 -2.048,0 -3.708,1.658 -3.708,3.706 0,2.049 1.66,3.709 3.708,3.709 C -1.66,3.709 0,2.049 0,0" /></g><g
           transform="translate(656.0762,165.5127)"
           id="g720"><path
             id="path722"
             style="fill:none;stroke:#332d2b;stroke-width:0.40000001;stroke-linecap:butt;stroke-linejoin:miter;stroke-miterlimit:10;stroke-dasharray:none;stroke-opacity:1"
             d="m 0,0 c 0,-2.048 -1.66,-3.706 -3.707,-3.706 -2.048,0 -3.708,1.658 -3.708,3.706 0,2.049 1.66,3.709 3.708,3.709 C -1.66,3.709 0,2.049 0,0 Z" /></g><g
           transform="translate(650.5566,163.3027)"
           id="g724"><path
             id="path726"
             style="fill:#332d2b;fill-opacity:1;fill-rule:nonzero;stroke:none"
             d="M 0,0 V 3.418 C -0.157,3.343 -0.284,3.291 -0.39,3.268 -0.495,3.245 -0.612,3.232 -0.732,3.232 h -0.129 v 0.415 c 0.168,0 0.302,0.012 0.413,0.04 0.112,0.029 0.203,0.082 0.273,0.152 0.071,0.07 0.123,0.163 0.153,0.275 0.034,0.115 0.057,0.255 0.07,0.423 H 0.589 L 0.589,0 Z" /></g><g
           transform="translate(654.1133,164.1357)"
           id="g728"><path
             id="path730"
             style="fill:#332d2b;fill-opacity:1;fill-rule:nonzero;stroke:none"
             d="m 0,0 c 0.1,0.284 0.15,0.739 0.15,1.368 0,0.63 -0.046,1.09 -0.145,1.376 -0.098,0.291 -0.273,0.437 -0.525,0.437 -0.25,0 -0.43,-0.146 -0.535,-0.432 C -1.16,2.458 -1.212,1.998 -1.212,1.368 -1.212,0.739 -1.16,0.284 -1.055,0 -0.95,-0.285 -0.77,-0.426 -0.52,-0.426 -0.268,-0.426 -0.1,-0.285 0,0 m -1.469,-0.345 c -0.226,0.409 -0.332,0.979 -0.332,1.72 0,0.74 0.106,1.31 0.332,1.719 0.228,0.407 0.542,0.61 0.949,0.61 0.409,0 0.718,-0.203 0.932,-0.61 C 0.629,2.685 0.739,2.108 0.739,1.362 0.739,0.618 0.629,0.047 0.418,-0.35 0.203,-0.751 -0.111,-0.951 -0.52,-0.951 c -0.407,0 -0.721,0.205 -0.949,0.606" /></g><g
           transform="translate(625.7559,292.2539)"
           id="g732"><path
             id="path734"
             style="fill:#ffffff;fill-opacity:1;fill-rule:nonzero;stroke:none"
             d="m 0,0 c 0,-2.047 -1.66,-3.709 -3.708,-3.709 -2.048,0 -3.71,1.662 -3.71,3.709 0,2.047 1.662,3.707 3.71,3.707 C -1.66,3.707 0,2.047 0,0" /></g><g
           transform="translate(625.7559,292.2539)"
           id="g736"><path
             id="path738"
             style="fill:none;stroke:#332d2b;stroke-width:0.40000001;stroke-linecap:butt;stroke-linejoin:miter;stroke-miterlimit:10;stroke-dasharray:none;stroke-opacity:1"
             d="m 0,0 c 0,-2.047 -1.66,-3.709 -3.708,-3.709 -2.048,0 -3.71,1.662 -3.71,3.709 0,2.047 1.662,3.707 3.71,3.707 C -1.66,3.707 0,2.047 0,0 Z" /></g><g
           transform="translate(620.4004,289.8477)"
           id="g740"><path
             id="path742"
             style="fill:#332d2b;fill-opacity:1;fill-rule:nonzero;stroke:none"
             d="M 0,0 V 3.419 C -0.156,3.344 -0.285,3.291 -0.391,3.268 -0.495,3.244 -0.611,3.232 -0.732,3.232 h -0.13 v 0.414 c 0.169,0 0.303,0.012 0.415,0.042 0.108,0.028 0.203,0.081 0.272,0.151 0.07,0.069 0.123,0.162 0.152,0.272 0.034,0.117 0.058,0.258 0.07,0.426 H 0.589 L 0.589,0 Z" /></g><g
           transform="translate(623.3828,289.8477)"
           id="g744"><path
             id="path746"
             style="fill:#332d2b;fill-opacity:1;fill-rule:nonzero;stroke:none"
             d="M 0,0 V 3.419 C -0.154,3.344 -0.283,3.291 -0.389,3.268 -0.495,3.244 -0.609,3.232 -0.731,3.232 h -0.13 v 0.414 c 0.169,0 0.304,0.012 0.414,0.042 0.11,0.028 0.205,0.081 0.274,0.151 0.069,0.069 0.122,0.162 0.152,0.272 0.034,0.117 0.058,0.258 0.07,0.426 H 0.591 L 0.591,0 Z" /></g><g
           transform="translate(651.1455,292.1172)"
           id="g748"><path
             id="path750"
             style="fill:#ffffff;fill-opacity:1;fill-rule:nonzero;stroke:none"
             d="m 0,0 c 0,-2.049 -1.662,-3.708 -3.707,-3.708 -2.048,0 -3.708,1.659 -3.708,3.708 0,2.047 1.66,3.707 3.708,3.707 C -1.662,3.707 0,2.047 0,0" /></g><g
           transform="translate(651.1455,292.1172)"
           id="g752"><path
             id="path754"
             style="fill:none;stroke:#332d2b;stroke-width:0.40000001;stroke-linecap:butt;stroke-linejoin:miter;stroke-miterlimit:10;stroke-dasharray:none;stroke-opacity:1"
             d="m 0,0 c 0,-2.049 -1.662,-3.708 -3.707,-3.708 -2.048,0 -3.708,1.659 -3.708,3.708 0,2.047 1.66,3.707 3.708,3.707 C -1.662,3.707 0,2.047 0,0 Z" /></g><g
           transform="translate(645.5186,289.8828)"
           id="g756"><path
             id="path758"
             style="fill:#332d2b;fill-opacity:1;fill-rule:nonzero;stroke:none"
             d="M 0,0 V 3.365 C -0.154,3.291 -0.28,3.239 -0.384,3.217 -0.487,3.195 -0.602,3.182 -0.722,3.182 H -0.849 V 3.59 c 0.167,0 0.301,0.012 0.409,0.041 0.108,0.027 0.2,0.078 0.269,0.148 0.068,0.069 0.12,0.16 0.15,0.27 0.035,0.114 0.056,0.252 0.068,0.418 H 0.579 L 0.579,0 Z" /></g><g
           transform="translate(647.2754,289.8828)"
           id="g760"><path
             id="path762"
             style="fill:#332d2b;fill-opacity:1;fill-rule:nonzero;stroke:none"
             d="M 0,0 C -0.005,0.195 0,0.367 0.022,0.521 0.047,0.676 0.092,0.826 0.16,0.963 0.229,1.105 0.327,1.244 0.447,1.381 0.567,1.52 0.732,1.668 0.93,1.83 1.05,1.926 1.164,2.031 1.279,2.127 1.399,2.225 1.504,2.328 1.595,2.431 1.687,2.54 1.76,2.649 1.817,2.764 1.875,2.879 1.902,3.004 1.902,3.137 1.902,3.389 1.857,3.59 1.771,3.733 1.687,3.882 1.53,3.956 1.311,3.956 1.09,3.956 0.917,3.865 0.814,3.675 0.705,3.486 0.648,3.217 0.648,2.879 h -0.58 c 0,0.516 0.116,0.91 0.339,1.18 C 0.63,4.33 0.935,4.467 1.311,4.467 1.669,4.467 1.949,4.346 2.16,4.111 2.374,3.871 2.481,3.551 2.481,3.154 2.481,2.941 2.447,2.752 2.379,2.598 2.311,2.443 2.22,2.299 2.104,2.168 1.984,2.036 1.854,1.903 1.697,1.783 1.542,1.662 1.382,1.531 1.215,1.387 1.044,1.239 0.9,1.089 0.797,0.947 0.687,0.803 0.619,0.671 0.596,0.562 H 2.46 V 0 Z" /></g><g
           transform="translate(645.5225,180.1621)"
           id="g764"><path
             id="path766"
             style="fill:none;stroke:#ffffff;stroke-width:1.41700006;stroke-linecap:round;stroke-linejoin:round;stroke-miterlimit:4;stroke-dasharray:none;stroke-opacity:1"
             d="M 0,0 V 25.72 H -23.094 V 6.516 -1.272 -9.459 h 11.047 l 12.051,0.033 z" /></g><g
           transform="translate(645.5225,180.1621)"
           id="g768"><path
             id="path770"
             style="fill:none;stroke:#ee7620;stroke-width:0.85000002;stroke-linecap:round;stroke-linejoin:round;stroke-miterlimit:4;stroke-dasharray:none;stroke-opacity:1"
             d="M 0,0 V 25.72 H -23.094 V 6.516 -1.272 -9.459 h 11.047 l 12.051,0.033 z" /></g><g
           transform="translate(645.5225,161.8545)"
           id="g772"><path
             id="path774"
             style="fill:none;stroke:#ee7620;stroke-width:0.85000002;stroke-linecap:round;stroke-linejoin:round;stroke-miterlimit:4;stroke-dasharray:none;stroke-opacity:1"
             d="M 0,0 V 6.705 H -23.094 V -0.007 Z" /></g><g
           transform="translate(633.4453,206.1699)"
           id="g776"><path
             id="path778"
             style="fill:none;stroke:#ffffff;stroke-width:1.41700006;stroke-linecap:butt;stroke-linejoin:miter;stroke-miterlimit:4;stroke-dasharray:none;stroke-opacity:1"
             d="M 0,0 V 9.069 H 84.898" /></g><g
           transform="translate(633.4453,206.1699)"
           id="g780"><path
             id="path782"
             style="fill:none;stroke:#ee7620;stroke-width:1.00100005;stroke-linecap:butt;stroke-linejoin:miter;stroke-miterlimit:4;stroke-dasharray:none;stroke-opacity:1"
             d="M 0,0 V 9.069 H 85.641" /></g><g
           transform="translate(633.4453,161.166)"
           id="g784"><path
             id="path786"
             style="fill:none;stroke:#ffffff;stroke-width:1.41700006;stroke-linecap:butt;stroke-linejoin:miter;stroke-miterlimit:4;stroke-dasharray:none;stroke-opacity:1"
             d="M 0,0 V -9.07 H 84.898" /></g><g
           transform="translate(633.4453,161.166)"
           id="g788"><path
             id="path790"
             style="fill:none;stroke:#ee7620;stroke-width:1.00100005;stroke-linecap:butt;stroke-linejoin:miter;stroke-miterlimit:4;stroke-dasharray:none;stroke-opacity:1"
             d="M 0,0 V -9.07 H 85.782" /></g><g
           transform="translate(655.0576,264.7676)"
           id="g792"><path
             id="path794"
             style="fill:none;stroke:#ee7620;stroke-width:1.00100005;stroke-linecap:butt;stroke-linejoin:miter;stroke-miterlimit:4;stroke-dasharray:none;stroke-opacity:1"
             d="M 0,0 H 23.031 V 14.488 H 19.193" /></g><g
           transform="translate(678.1885,272.6426)"
           id="g796"><path
             id="path798"
             style="fill:none;stroke:#ee7620;stroke-width:1;stroke-linecap:butt;stroke-linejoin:miter;stroke-miterlimit:4;stroke-dasharray:none;stroke-opacity:1"
             d="M 0,0 H 41.039" /></g><g
           transform="translate(725.4023,276.1582)"
           id="g800"><path
             id="path802"
             style="fill:#332d2b;fill-opacity:1;fill-rule:nonzero;stroke:none"
             d="M 0,0 H -1.008 C -1.145,-0.956 -1.952,-1.26 -2.834,-1.239 V -2.195 H -1.27 V -6.258 H 0 Z m 3.653,0.021 c 0,0.829 -0.682,1.511 -1.522,1.511 h -6.288 c -0.84,0 -1.512,-0.682 -1.512,-1.511 v -6.299 c 0,-0.829 0.672,-1.512 1.512,-1.512 h 6.288 c 0.84,0 1.522,0.683 1.522,1.512 z m 0.21,-6.299 C 3.863,-7.223 3.087,-8 2.131,-8 h -6.288 c -0.955,0 -1.732,0.777 -1.732,1.722 v 6.299 c 0,0.944 0.777,1.721 1.732,1.721 h 6.288 c 0.956,0 1.732,-0.777 1.732,-1.721 z" /></g><g
           transform="translate(634.8096,317.0459)"
           id="g804"><path
             id="path806"
             style="fill:#332d2b;fill-opacity:1;fill-rule:nonzero;stroke:none"
             d="m 0,0 h -1.647 l 1.616,2.173 H 0 Z m 0,-2.488 h 1.196 v 1.448 h 0.84 V 0 H 1.196 V 3.758 H 0.063 L -2.646,0.115 V -1.04 H 0 Z m 4.356,6.267 c 0,0.84 -0.681,1.512 -1.521,1.512 h -6.289 c -0.84,0 -1.512,-0.672 -1.512,-1.512 v -6.288 c 0,-0.84 0.672,-1.512 1.512,-1.512 h 6.289 c 0.84,0 1.521,0.672 1.521,1.512 z m 0.21,-6.288 c 0,-0.955 -0.776,-1.732 -1.731,-1.732 h -6.289 c -0.955,0 -1.733,0.777 -1.733,1.732 v 6.288 c 0,0.955 0.778,1.732 1.733,1.732 h 6.289 c 0.955,0 1.731,-0.777 1.731,-1.732 z" /></g><g
           transform="translate(634.4375,293.4375)"
           id="g808"><path
             id="path810"
             style="fill:none;stroke:#ee7620;stroke-width:1;stroke-linecap:butt;stroke-linejoin:miter;stroke-miterlimit:4;stroke-dasharray:none;stroke-opacity:1"
             d="M 0,0 V 18.748" /></g><g
           transform="translate(729.0576,218.3848)"
           id="g812"><path
             id="path814"
             style="fill:#332d2b;fill-opacity:1;fill-rule:nonzero;stroke:none"
             d="M 0,0 C 0,0.828 -0.684,1.512 -1.523,1.512 H -7.811 C -8.65,1.512 -9.322,0.828 -9.322,0 v -6.299 c 0,-0.83 0.672,-1.512 1.511,-1.512 h 6.288 c 0.839,0 1.523,0.682 1.523,1.512 z m 0.209,-6.299 c 0,-0.945 -0.775,-1.722 -1.732,-1.722 h -6.288 c -0.955,0 -1.732,0.777 -1.732,1.722 V 0 c 0,0.943 0.777,1.721 1.732,1.721 h 6.288 C -0.566,1.721 0.209,0.943 0.209,0 Z" /></g><g
           transform="translate(722.2217,215.9004)"
           id="g816"><path
             id="path818"
             style="fill:#332d2b;fill-opacity:1;fill-rule:nonzero;stroke:none"
             d="m 0,0 c -0.045,1.441 0.773,2.549 2.287,2.549 1.152,0 2.16,-0.738 2.16,-1.973 0,-0.945 -0.504,-1.467 -1.125,-1.908 C 2.701,-1.773 1.963,-2.133 1.504,-2.781 h 2.978 v -1.098 h -4.627 c 0.01,1.457 0.901,2.078 1.991,2.817 0.556,0.378 1.314,0.765 1.322,1.541 0,0.593 -0.397,0.97 -0.945,0.97 C 1.467,1.449 1.225,0.666 1.225,0 Z" /></g><g
           transform="translate(729.0576,155.1934)"
           id="g820"><path
             id="path822"
             style="fill:#332d2b;fill-opacity:1;fill-rule:nonzero;stroke:none"
             d="M 0,0 C 0,0.828 -0.684,1.512 -1.523,1.512 H -7.811 C -8.65,1.512 -9.322,0.828 -9.322,0 v -6.299 c 0,-0.83 0.672,-1.512 1.511,-1.512 h 6.288 c 0.839,0 1.523,0.682 1.523,1.512 z m 0.209,-6.299 c 0,-0.945 -0.775,-1.722 -1.732,-1.722 h -6.288 c -0.955,0 -1.732,0.777 -1.732,1.722 V 0 c 0,0.943 0.777,1.721 1.732,1.721 h 6.288 C -0.566,1.721 0.209,0.943 0.209,0 Z" /></g><g
           transform="translate(723.9414,152.6465)"
           id="g824"><path
             id="path826"
             style="fill:#332d2b;fill-opacity:1;fill-rule:nonzero;stroke:none"
             d="m 0,0 c 0.549,-0.045 1.341,0.062 1.341,0.783 0,0.531 -0.423,0.838 -0.891,0.838 -0.639,0 -0.981,-0.478 -0.972,-1.127 h -1.215 c 0.045,1.289 0.882,2.18 2.178,2.18 1.008,0 2.116,-0.621 2.116,-1.746 0,-0.594 -0.297,-1.125 -0.882,-1.287 v -0.02 c 0.692,-0.152 1.116,-0.728 1.116,-1.432 0,-1.322 -1.107,-2.07 -2.341,-2.07 -1.414,0 -2.368,0.848 -2.341,2.297 h 1.215 c 0.028,-0.686 0.369,-1.242 1.108,-1.242 0.576,0 1.026,0.394 1.026,0.99 C 1.458,-0.883 0.621,-0.9 0,-0.9 Z" /></g><g
           transform="translate(645.125,287.7168)"
           id="g828"><path
             id="path830"
             style="fill:none;stroke:#ee7620;stroke-width:1.00100005;stroke-linecap:butt;stroke-linejoin:miter;stroke-miterlimit:4;stroke-dasharray:none;stroke-opacity:1"
             d="m 0,0 c 0,-3.21 -4.673,-5.812 -10.438,-5.812 -5.764,0 -10.437,2.602 -10.437,5.812 0,3.21 4.673,5.812 10.437,5.812 C -4.673,5.812 0,3.21 0,0 Z" /></g></g></g></g></svg>