<?xml version="1.0" encoding="utf-8"?>
<!-- Generator: Adobe Illustrator 26.0.2, SVG Export Plug-In . SVG Version: 6.00 Build 0)  -->
<svg version="1.1" id="레이어_1" xmlns="http://www.w3.org/2000/svg" xmlns:xlink="http://www.w3.org/1999/xlink" x="0px"
	 y="0px" viewBox="0 0 400.9 118.3" style="enable-background:new 0 0 400.9 118.3;" xml:space="preserve">
<style type="text/css">
	.st0{fill:#B3B3B3;}
	.st1{fill:#FFFFFF;}
	.st2{fill:#E36F0D;}
</style>
<g>
	<rect x="74.3" y="27.9" class="st0" width="56" height="31.5"/>
	<path d="M74.7,59.4V27.9H74v31.5H74.7z M130.3,59.1h-56v0.7h56V59.1z M130,27.9v31.5h0.7V27.9H130z M74.3,28.3h56v-0.7h-56V28.3z
		 M74.3,59.4H74v0.4h0.3V59.4z M130.3,59.4v0.4h0.4v-0.4H130.3z M130.3,27.9h0.4v-0.4h-0.4V27.9z M74.3,27.9v-0.4H74v0.4H74.3z"/>
	<rect x="74.3" y="59.4" class="st1" width="56" height="31.5"/>
	<path d="M74.7,90.9V59.4H74v31.5H74.7z M130.3,90.6h-56v0.7h56V90.6z M130,59.4v31.5h0.7V59.4H130z M74.3,59.8h56v-0.7h-56V59.8z
		 M74.3,90.9H74v0.3h0.3V90.9z M130.3,90.9v0.3h0.4v-0.3H130.3z M130.3,59.4h0.4v-0.3h-0.4V59.4z M74.3,59.4v-0.3H74v0.3H74.3z"/>
	<rect x="130.3" y="27.9" class="st1" width="56" height="31.5"/>
	<path d="M130.7,59.4V27.9H130v31.5H130.7z M186.3,59.1h-56v0.7h56V59.1z M186,27.9v31.5h0.7V27.9H186z M130.3,28.3h56v-0.7h-56
		V28.3z M130.3,59.4H130v0.4h0.4V59.4z M186.3,59.4v0.4h0.4v-0.4H186.3z M186.3,27.9h0.4v-0.4h-0.4V27.9z M130.3,27.9v-0.4H130v0.4
		H130.3z"/>
	<rect x="130.3" y="59.4" class="st1" width="56" height="31.5"/>
	<path d="M130.7,90.9V59.4H130v31.5H130.7z M186.3,90.6h-56v0.7h56V90.6z M186,59.4v31.5h0.7V59.4H186z M130.3,59.8h56v-0.7h-56
		V59.8z M130.3,90.9H130v0.3h0.4V90.9z M186.3,90.9v0.3h0.4v-0.3H186.3z M186.3,59.4h0.4v-0.3h-0.4V59.4z M130.3,59.4v-0.3H130v0.3
		H130.3z"/>
</g>
<g>
	<rect x="222" y="27.9" class="st1" width="112" height="31.5"/>
	<path d="M222.4,59.4V27.9h-0.7v31.5H222.4z M334,59.1H222v0.7h112V59.1z M333.7,27.9v31.5h0.7V27.9H333.7z M222,28.3h112v-0.7H222
		V28.3z M222,59.4h-0.3v0.4h0.3V59.4z M334,59.4v0.4h0.4v-0.4H334z M334,27.9h0.4v-0.4H334V27.9z M222,27.9v-0.4h-0.3v0.4H222z"/>
	<rect x="222" y="59.4" class="st1" width="112" height="31.5"/>
	<path d="M222.4,90.9V59.4h-0.7v31.5H222.4z M334,90.6H222v0.7h112V90.6z M333.7,59.4v31.5h0.7V59.4H333.7z M222,59.8h112v-0.7H222
		V59.8z M222,90.9h-0.3v0.3h0.3V90.9z M334,90.9v0.3h0.4v-0.3H334z M334,59.4h0.4v-0.3H334V59.4z M222,59.4v-0.3h-0.3v0.3H222z"/>
	<rect x="222" y="38.4" class="st0" width="37.3" height="21"/>
	<path d="M222.4,59.4v-21h-0.7v21H222.4z M259.3,59.1H222v0.7h37.3V59.1z M259,38.4v21h0.7v-21H259z M222,38.8h37.3v-0.7H222V38.8z
		 M222,59.4h-0.3v0.4h0.3V59.4z M259.3,59.4v0.4h0.4v-0.4H259.3z M259.3,38.4h0.4v-0.3h-0.4V38.4z M222,38.4v-0.3h-0.3v0.3H222z"/>
	<rect x="222" y="59.4" class="st0" width="37.3" height="21"/>
	<path d="M222.4,80.4v-21h-0.7v21H222.4z M259.3,80.1H222v0.7h37.3V80.1z M259,59.4v21h0.7v-21H259z M222,59.8h37.3v-0.7H222V59.8z
		 M222,80.4h-0.3v0.3h0.3V80.4z M259.3,80.4v0.3h0.4v-0.3H259.3z M259.3,59.4h0.4v-0.3h-0.4V59.4z M222,59.4v-0.3h-0.3v0.3H222z"/>
	<rect x="259.1" y="38.4" class="st0" width="37.3" height="21"/>
	<path d="M259.5,59.4v-21h-0.7v21H259.5z M296.4,59.1h-37.3v0.7h37.3V59.1z M296.1,38.4v21h0.7v-21H296.1z M259.1,38.8h37.3v-0.7
		h-37.3V38.8z M259.1,59.4h-0.4v0.4h0.4V59.4z M296.4,59.4v0.4h0.4v-0.4H296.4z M296.4,38.4h0.4v-0.3h-0.4V38.4z M259.1,38.4v-0.3
		h-0.4v0.3H259.1z"/>
	<rect x="296.7" y="38.4" class="st0" width="37.3" height="21"/>
	<path d="M297,59.4v-21h-0.7v21H297z M334,59.1h-37.3v0.7H334V59.1z M333.7,38.4v21h0.7v-21H333.7z M296.7,38.8H334v-0.7h-37.3V38.8
		z M296.7,59.4h-0.4v0.4h0.4V59.4z M334,59.4v0.4h0.4v-0.4H334z M334,38.4h0.4v-0.3H334V38.4z M296.7,38.4v-0.3h-0.4v0.3H296.7z"/>
	<rect x="259.1" y="59.4" class="st0" width="37.3" height="21"/>
	<path d="M259.5,80.4v-21h-0.7v21H259.5z M296.4,80.1h-37.3v0.7h37.3V80.1z M296.1,59.4v21h0.7v-21H296.1z M259.1,59.8h37.3v-0.7
		h-37.3V59.8z M259.1,80.4h-0.4v0.3h0.4V80.4z M296.4,80.4v0.3h0.4v-0.3H296.4z M296.4,59.4h0.4v-0.3h-0.4V59.4z M259.1,59.4v-0.3
		h-0.4v0.3H259.1z"/>
	<path d="M243.3,67.2c0,0.3,0,0.6-0.1,0.8c-0.1,0.2-0.2,0.5-0.4,0.6c-0.2,0.2-0.4,0.3-0.6,0.4c-0.2,0.1-0.5,0.2-0.8,0.2v0
		c0.7,0.1,1.3,0.3,1.7,0.7c0.4,0.4,0.6,0.9,0.6,1.4c0,0.4-0.1,0.8-0.2,1.1c-0.1,0.3-0.3,0.6-0.6,0.8c-0.3,0.2-0.6,0.4-1,0.6
		c-0.4,0.1-0.9,0.2-1.5,0.2c-0.4,0-0.9,0-1.3-0.1c-0.4-0.1-0.8-0.2-1.1-0.4v-1c0.4,0.2,0.7,0.3,1.2,0.4c0.4,0.1,0.8,0.2,1.2,0.2
		c0.4,0,0.7,0,1-0.1c0.3-0.1,0.5-0.2,0.7-0.4c0.2-0.2,0.3-0.3,0.4-0.6c0.1-0.2,0.1-0.5,0.1-0.7c0-0.3-0.1-0.5-0.2-0.7
		c-0.1-0.2-0.3-0.4-0.5-0.5c-0.2-0.1-0.4-0.2-0.7-0.3c-0.3-0.1-0.6-0.1-1-0.1h-0.8V69h0.8c0.3,0,0.6,0,0.9-0.1
		c0.3-0.1,0.5-0.2,0.6-0.4c0.2-0.2,0.3-0.3,0.4-0.5c0.1-0.2,0.1-0.4,0.1-0.7c0-0.2,0-0.4-0.1-0.6c-0.1-0.2-0.2-0.3-0.3-0.4
		c-0.1-0.1-0.3-0.2-0.5-0.3c-0.2-0.1-0.4-0.1-0.6-0.1c-0.4,0-0.8,0.1-1.2,0.2c-0.3,0.1-0.7,0.3-1,0.5l-0.6-0.8
		c0.2-0.1,0.3-0.2,0.5-0.4c0.2-0.1,0.4-0.2,0.6-0.3c0.2-0.1,0.5-0.2,0.7-0.2c0.3,0,0.5-0.1,0.8-0.1c0.4,0,0.8,0.1,1.2,0.2
		c0.3,0.1,0.6,0.3,0.8,0.5c0.2,0.2,0.4,0.4,0.5,0.7C243.3,66.6,243.3,66.9,243.3,67.2z"/>
	<path d="M278.8,71.1v-2.2c0-0.2,0-0.5,0-0.7c0-0.3,0-0.5,0-0.7c0-0.2,0-0.5,0-0.7c0-0.2,0-0.4,0-0.5h-0.1c0,0.1-0.1,0.2-0.1,0.3
		c0,0.1-0.1,0.2-0.1,0.3c0,0.1-0.1,0.2-0.2,0.3c-0.1,0.1-0.1,0.2-0.1,0.2l-2.5,3.7H278.8z M281.2,72.1h-1.3v2h-1.1v-2h-4.2v-1l4.1-6
		h1.2v6h1.3V72.1z"/>
	<path d="M278.9,53.1h-1.1v-5.6c0-0.2,0-0.4,0-0.6c0-0.2,0-0.4,0-0.6c0-0.2,0-0.4,0-0.6c0-0.2,0-0.3,0-0.5c-0.1,0.1-0.1,0.1-0.2,0.2
		c-0.1,0.1-0.1,0.1-0.2,0.2c-0.1,0-0.1,0.1-0.2,0.2c-0.1,0.1-0.1,0.1-0.2,0.2l-0.9,0.7l-0.6-0.8l2.4-1.8h0.9V53.1z"/>
	<path d="M317.8,53.1h-5.6v-1l2.2-2.3c0.3-0.3,0.6-0.6,0.8-0.9c0.2-0.3,0.4-0.5,0.6-0.8c0.2-0.3,0.3-0.5,0.4-0.8
		c0.1-0.3,0.1-0.6,0.1-0.9c0-0.2,0-0.5-0.1-0.6s-0.2-0.3-0.3-0.5c-0.1-0.1-0.3-0.2-0.5-0.3s-0.4-0.1-0.6-0.1c-0.4,0-0.7,0.1-1.1,0.2
		c-0.3,0.2-0.6,0.4-0.9,0.6l-0.6-0.7c0.2-0.1,0.3-0.3,0.5-0.4c0.2-0.1,0.4-0.2,0.6-0.3c0.2-0.1,0.4-0.2,0.7-0.2
		c0.2-0.1,0.5-0.1,0.8-0.1c0.4,0,0.7,0.1,1.1,0.2c0.3,0.1,0.6,0.3,0.8,0.5c0.2,0.2,0.4,0.5,0.5,0.8c0.1,0.3,0.2,0.6,0.2,1
		c0,0.3-0.1,0.7-0.2,1c-0.1,0.3-0.3,0.6-0.4,0.9c-0.2,0.3-0.4,0.6-0.7,0.9c-0.3,0.3-0.5,0.6-0.9,1l-1.7,1.8v0h4.2V53.1z"/>
</g>
<g>
	<rect x="124.5" y="41.6" class="st2" width="12.5" height="3.9"/>
	<polygon class="st2" points="135.5,43.6 135.5,38.7 139.7,41.1 143.9,43.6 139.7,46 135.5,48.4 	"/>
</g>
<g>
	
		<rect x="96" y="58.7" transform="matrix(-1.836970e-16 1 -1 -1.836970e-16 162.8517 -41.7009)" class="st2" width="12.5" height="3.9"/>
	<polygon class="st2" points="102.3,65.3 107.2,65.3 104.7,69.5 102.3,73.8 99.8,69.5 97.4,65.3 	"/>
</g>
</svg>
