<?xml version="1.0" encoding="utf-8"?>
<!-- Generator: Adobe Illustrator 26.0.2, SVG Export Plug-In . SVG Version: 6.00 Build 0)  -->
<svg version="1.1" id="레이어_1" xmlns="http://www.w3.org/2000/svg" xmlns:xlink="http://www.w3.org/1999/xlink" x="0px"
	 y="0px" viewBox="0 0 863.9 571.3" style="enable-background:new 0 0 863.9 571.3;" xml:space="preserve">
<style type="text/css">
	.st0{fill:#C9CACA;}
	.st1{fill:#C4C4C4;}
	.st2{fill:#E36F0D;}
	.st3{fill:#040000;}
	.st4{fill:#FFFFFF;}
	.st5{fill:#FFFFFF;stroke:#231815;stroke-width:1.4173;stroke-miterlimit:10;}
	.st6{fill:#D3D3D4;}
	.st7{fill-rule:evenodd;clip-rule:evenodd;fill:none;}
	.st8{fill-rule:evenodd;clip-rule:evenodd;fill:none;stroke:#000000;stroke-miterlimit:10;}
	.st9{fill:#595757;}
</style>
<g>
	<rect x="505" y="300.3" class="st2" width="42.1" height="27.7"/>
	<rect x="547.1" y="328.5" class="st0" width="42.1" height="27.7"/>
	<rect x="547.1" y="356.4" class="st0" width="42.1" height="27.7"/>
	<rect x="589.4" y="356.4" class="st0" width="42.1" height="27.7"/>
	<rect x="462.6" y="272.7" class="st0" width="42.1" height="27.7"/>
	<rect x="266.2" y="356.4" class="st0" width="42.1" height="27.7"/>
	<rect x="223.9" y="356.4" class="st0" width="42.1" height="27.7"/>
	<rect x="181.6" y="300.6" class="st0" width="42.1" height="27.7"/>
	<rect x="139.3" y="272.7" class="st0" width="42.1" height="27.7"/>
	<rect x="223.9" y="328.5" class="st0" width="42.1" height="27.7"/>
	<rect x="266.2" y="356.4" class="st0" width="42.1" height="27.7"/>
	<rect x="223.7" y="68.7" class="st2" width="42.3" height="28.1"/>
	<rect x="136.2" y="68.2" class="st2" width="260.7" height="0.7"/>
	<rect x="136.2" y="207.7" class="st2" width="260.7" height="0.7"/>
	<rect x="136.2" y="235.5" class="st2" width="260.7" height="0.7"/>
	<rect x="308.3" y="65.8" class="st2" width="0.7" height="174.1"/>
	<rect x="350.5" y="65.8" class="st2" width="0.7" height="174.1"/>
	<rect x="392.9" y="65.8" class="st2" width="0.7" height="174.1"/>
	<rect x="181.6" y="96.8" class="st6" width="42.1" height="27.7"/>
	<path d="M207.8,106.6c0,1.2-0.3,2.2-1,2.9c-0.7,0.7-1.6,1.2-2.7,1.4v0.1c1.4,0.2,2.5,0.6,3.2,1.4c0.7,0.7,1.1,1.7,1.1,2.9
		c0,1-0.2,2-0.7,2.8c-0.5,0.8-1.2,1.4-2.3,1.9c-1,0.5-2.3,0.7-3.9,0.7c-0.9,0-1.8-0.1-2.6-0.2c-0.8-0.1-1.6-0.4-2.3-0.8v-2.1
		c0.8,0.4,1.6,0.7,2.4,0.9c0.9,0.2,1.7,0.3,2.5,0.3c1.6,0,2.8-0.3,3.5-0.9c0.7-0.6,1.1-1.5,1.1-2.6c0-1.1-0.4-1.9-1.3-2.4
		c-0.9-0.5-2.1-0.8-3.7-0.8h-1.7v-1.9h1.8c1.5,0,2.6-0.3,3.4-0.9c0.8-0.6,1.2-1.4,1.2-2.5c0-0.9-0.3-1.5-0.9-2
		c-0.6-0.5-1.4-0.7-2.4-0.7c-1,0-1.8,0.1-2.5,0.4c-0.7,0.3-1.4,0.6-2,1.1l-1.1-1.5c0.6-0.5,1.4-0.9,2.4-1.3c1-0.4,2-0.6,3.3-0.6
		c1.9,0,3.3,0.4,4.2,1.3C207.4,104.2,207.8,105.3,207.8,106.6z"/>
	<rect x="139.3" y="68.9" class="st6" width="42.1" height="27.7"/>
	<path d="M162.3,80.7c0-0.9,0-1.6,0.1-2.2c0-0.6,0.1-1.2,0.1-1.8h-0.1c-0.1,0.3-0.3,0.7-0.5,1c-0.2,0.4-0.4,0.7-0.6,0.9l-5.4,7.7
		h6.5V80.7z M167,88.4h-2.6v4.1h-2.1v-4.1h-8.6v-1.9l8.5-12.1h2.3v12h2.6V88.4z"/>
	<path class="st3" d="M246.6,80.7c0-0.9,0-1.6,0.1-2.2c0-0.6,0.1-1.2,0.1-1.8h-0.1c-0.1,0.3-0.3,0.7-0.5,1c-0.2,0.4-0.4,0.7-0.6,0.9
		l-5.4,7.7h6.5V80.7z M251.4,88.4h-2.6v4.1h-2.1v-4.1H238v-1.9l8.5-12.1h2.3v12h2.6V88.4z"/>
	<rect x="223.9" y="124.7" class="st6" width="42.1" height="27.7"/>
	<path d="M246.7,148.3h-2.2v-12.6c0-0.7,0-1.3,0-1.7c0-0.4,0-0.9,0.1-1.4c-0.3,0.3-0.5,0.5-0.7,0.7c-0.2,0.2-0.5,0.4-0.8,0.7
		l-1.9,1.6L240,134l4.9-3.8h1.8V148.3z"/>
	<rect x="223.9" y="152.6" class="st6" width="42.1" height="27.7"/>
	<path d="M244.6,165.1c1.8,0,3.3,0.5,4.4,1.4c1.1,0.9,1.6,2.2,1.6,3.9c0,1.9-0.6,3.3-1.8,4.4c-1.2,1.1-2.8,1.6-4.9,1.6
		c-0.9,0-1.8-0.1-2.6-0.3c-0.8-0.2-1.5-0.4-2-0.7v-2.1c0.6,0.4,1.3,0.7,2.2,0.9c0.9,0.2,1.7,0.3,2.5,0.3c1.3,0,2.4-0.3,3.2-0.9
		c0.8-0.6,1.2-1.6,1.2-2.9c0-1.2-0.4-2.1-1.1-2.7c-0.7-0.6-1.9-1-3.4-1c-0.5,0-1,0-1.6,0.1c-0.6,0.1-1.1,0.2-1.5,0.3l-1.1-0.7
		l0.7-8.5h9v2h-7.1l-0.4,5.2c0.3-0.1,0.7-0.1,1.2-0.2C243.5,165.1,244.1,165.1,244.6,165.1z"/>
	<rect x="266.2" y="152.6" class="st1" width="42.1" height="27.7"/>
	<path class="st3" d="M293.1,176.2h-11.9v-1.8l4.7-4.8c0.9-0.9,1.7-1.7,2.3-2.4c0.6-0.7,1.1-1.4,1.4-2.1c0.3-0.7,0.5-1.4,0.5-2.2
		c0-1-0.3-1.7-0.9-2.2c-0.6-0.5-1.4-0.8-2.3-0.8c-0.9,0-1.6,0.2-2.3,0.5c-0.7,0.3-1.3,0.7-2,1.3l-1.2-1.5c0.7-0.6,1.5-1.1,2.4-1.5
		c0.9-0.4,2-0.6,3.1-0.6c1.7,0,3,0.4,4,1.3c1,0.8,1.5,2,1.5,3.5c0,0.9-0.2,1.8-0.6,2.6c-0.4,0.8-0.9,1.6-1.6,2.4
		c-0.7,0.8-1.5,1.6-2.4,2.5L284,174v0.1h9.1V176.2z"/>
	<rect x="266.2" y="152.6" class="st6" width="42.1" height="27.7"/>
	<path d="M293.1,176.2h-11.9v-1.8l4.7-4.8c0.9-0.9,1.7-1.7,2.3-2.4c0.6-0.7,1.1-1.4,1.4-2.1c0.3-0.7,0.5-1.4,0.5-2.2
		c0-1-0.3-1.7-0.9-2.2c-0.6-0.5-1.4-0.8-2.3-0.8c-0.9,0-1.6,0.2-2.3,0.5c-0.7,0.3-1.3,0.7-2,1.3l-1.2-1.5c0.7-0.6,1.5-1.1,2.4-1.5
		c0.9-0.4,2-0.6,3.1-0.6c1.7,0,3,0.4,4,1.3c1,0.8,1.5,2,1.5,3.5c0,0.9-0.2,1.8-0.6,2.6c-0.4,0.8-0.9,1.6-1.6,2.4
		c-0.7,0.8-1.5,1.6-2.4,2.5L284,174v0.1h9.1V176.2z"/>
	<rect x="136.2" y="271.9" class="st2" width="260.7" height="0.7"/>
	<rect x="136.2" y="299.9" class="st2" width="260.7" height="0.7"/>
	<rect x="136.2" y="411.5" class="st2" width="260.7" height="0.7"/>
	<rect x="136.2" y="439.3" class="st2" width="260.7" height="0.7"/>
	<rect x="136.2" y="383.5" class="st2" width="260.7" height="0.7"/>
	<rect x="136.2" y="327.7" class="st2" width="260.7" height="0.7"/>
	<rect x="136.2" y="355.7" class="st2" width="260.7" height="0.7"/>
	<rect x="139.1" y="269.6" class="st2" width="0.7" height="174.1"/>
	<rect x="181.4" y="269.6" class="st2" width="0.7" height="174.1"/>
	<rect x="223.6" y="269.6" class="st2" width="0.7" height="174.1"/>
	<rect x="308.3" y="269.6" class="st2" width="0.7" height="174.1"/>
	<rect x="266" y="269.6" class="st2" width="0.7" height="174.1"/>
	<rect x="350.5" y="269.6" class="st2" width="0.7" height="174.1"/>
	<rect x="392.9" y="269.6" class="st2" width="0.7" height="174.1"/>
	<path d="M207.8,310.3c0,1.2-0.3,2.2-1,2.9c-0.7,0.7-1.6,1.2-2.7,1.4v0.1c1.4,0.2,2.5,0.6,3.2,1.4c0.7,0.7,1.1,1.7,1.1,2.9
		c0,1-0.2,2-0.7,2.8c-0.5,0.8-1.2,1.4-2.3,1.9c-1,0.5-2.3,0.7-3.9,0.7c-0.9,0-1.8-0.1-2.6-0.2c-0.8-0.1-1.6-0.4-2.3-0.8v-2.1
		c0.8,0.4,1.6,0.7,2.4,0.9c0.9,0.2,1.7,0.3,2.5,0.3c1.6,0,2.8-0.3,3.5-0.9c0.7-0.6,1.1-1.5,1.1-2.6c0-1.1-0.4-1.9-1.3-2.4
		c-0.9-0.5-2.1-0.8-3.7-0.8h-1.7v-1.9h1.8c1.5,0,2.6-0.3,3.4-0.9c0.8-0.6,1.2-1.4,1.2-2.5c0-0.9-0.3-1.5-0.9-2
		c-0.6-0.5-1.4-0.7-2.4-0.7c-1,0-1.8,0.1-2.5,0.4s-1.4,0.6-2,1.1l-1.1-1.5c0.6-0.5,1.4-0.9,2.4-1.3c1-0.4,2-0.6,3.3-0.6
		c1.9,0,3.3,0.4,4.2,1.3C207.4,308,207.8,309,207.8,310.3z"/>
	<path d="M162.3,284.5c0-0.9,0-1.6,0.1-2.2c0-0.6,0.1-1.2,0.1-1.8h-0.1c-0.1,0.3-0.3,0.7-0.5,1c-0.2,0.4-0.4,0.7-0.6,0.9l-5.4,7.7
		h6.5V284.5z M167,292.1h-2.6v4.1h-2.1v-4.1h-8.6v-1.9l8.5-12.1h2.3v12h2.6V292.1z"/>
	<path d="M246.7,352h-2.2v-12.6c0-0.7,0-1.3,0-1.7c0-0.4,0-0.9,0.1-1.4c-0.3,0.3-0.5,0.5-0.7,0.7c-0.2,0.2-0.5,0.4-0.8,0.7l-1.9,1.6
		l-1.2-1.5l4.9-3.8h1.8V352z"/>
	<path d="M244.6,368.9c1.8,0,3.3,0.5,4.4,1.4s1.6,2.2,1.6,3.9c0,1.9-0.6,3.3-1.8,4.4c-1.2,1.1-2.8,1.6-4.9,1.6
		c-0.9,0-1.8-0.1-2.6-0.3c-0.8-0.2-1.5-0.4-2-0.7v-2.1c0.6,0.4,1.3,0.7,2.2,0.9c0.9,0.2,1.7,0.3,2.5,0.3c1.3,0,2.4-0.3,3.2-0.9
		c0.8-0.6,1.2-1.6,1.2-2.9c0-1.2-0.4-2.1-1.1-2.7c-0.7-0.6-1.9-1-3.4-1c-0.5,0-1,0-1.6,0.1c-0.6,0.1-1.1,0.2-1.5,0.3l-1.1-0.7
		l0.7-8.5h9v2h-7.1l-0.4,5.2c0.3-0.1,0.7-0.1,1.2-0.2C243.5,368.9,244.1,368.9,244.6,368.9z"/>
	<path class="st3" d="M293.1,379.9h-11.9v-1.8l4.7-4.8c0.9-0.9,1.7-1.7,2.3-2.4c0.6-0.7,1.1-1.4,1.4-2.1c0.3-0.7,0.5-1.4,0.5-2.2
		c0-1-0.3-1.7-0.9-2.2c-0.6-0.5-1.4-0.8-2.3-0.8c-0.9,0-1.6,0.2-2.3,0.5c-0.7,0.3-1.3,0.7-2,1.3l-1.2-1.5c0.7-0.6,1.5-1.1,2.4-1.5
		c0.9-0.4,2-0.6,3.1-0.6c1.7,0,3,0.4,4,1.3c1,0.8,1.5,2,1.5,3.5c0,0.9-0.2,1.8-0.6,2.6s-0.9,1.6-1.6,2.4c-0.7,0.8-1.5,1.6-2.4,2.5
		l-3.8,3.7v0.1h9.1V379.9z"/>
	<path d="M293.1,379.9h-11.9v-1.8l4.7-4.8c0.9-0.9,1.7-1.7,2.3-2.4c0.6-0.7,1.1-1.4,1.4-2.1c0.3-0.7,0.5-1.4,0.5-2.2
		c0-1-0.3-1.7-0.9-2.2c-0.6-0.5-1.4-0.8-2.3-0.8c-0.9,0-1.6,0.2-2.3,0.5c-0.7,0.3-1.3,0.7-2,1.3l-1.2-1.5c0.7-0.6,1.5-1.1,2.4-1.5
		c0.9-0.4,2-0.6,3.1-0.6c1.7,0,3,0.4,4,1.3c1,0.8,1.5,2,1.5,3.5c0,0.9-0.2,1.8-0.6,2.6s-0.9,1.6-1.6,2.4c-0.7,0.8-1.5,1.6-2.4,2.5
		l-3.8,3.7v0.1h9.1V379.9z"/>
	<rect x="459.5" y="271.9" class="st2" width="260.7" height="0.7"/>
	<rect x="459.5" y="299.9" class="st2" width="260.7" height="0.7"/>
	<rect x="459.5" y="411.5" class="st2" width="260.7" height="0.7"/>
	<rect x="459.5" y="439.3" class="st2" width="260.7" height="0.7"/>
	<rect x="459.5" y="327.7" class="st2" width="260.7" height="0.7"/>
	<rect x="459.5" y="355.7" class="st2" width="260.7" height="0.7"/>
	<rect x="462.3" y="269.6" class="st2" width="0.7" height="174.1"/>
	<rect x="504.7" y="269.6" class="st2" width="0.7" height="174.1"/>
	<rect x="546.9" y="269.6" class="st2" width="0.7" height="174.1"/>
	<rect x="631.6" y="269.6" class="st2" width="0.7" height="174.1"/>
	<rect x="673.8" y="269.6" class="st2" width="0.7" height="174.1"/>
	<rect x="716.1" y="269.6" class="st2" width="0.7" height="174.1"/>
	<path d="M488.8,282.5c0,1.2-0.3,2.2-1,2.9c-0.7,0.7-1.6,1.2-2.7,1.4v0.1c1.4,0.2,2.5,0.6,3.2,1.4c0.7,0.7,1.1,1.7,1.1,2.9
		c0,1-0.2,2-0.7,2.8c-0.5,0.8-1.2,1.4-2.3,1.9c-1,0.5-2.3,0.7-3.9,0.7c-0.9,0-1.8-0.1-2.6-0.2c-0.8-0.1-1.6-0.4-2.3-0.8v-2.1
		c0.8,0.4,1.6,0.7,2.4,0.9c0.9,0.2,1.7,0.3,2.5,0.3c1.6,0,2.8-0.3,3.5-0.9c0.7-0.6,1.1-1.5,1.1-2.6c0-1.1-0.4-1.9-1.3-2.4
		c-0.9-0.5-2.1-0.8-3.7-0.8h-1.7V286h1.8c1.5,0,2.6-0.3,3.4-0.9c0.8-0.6,1.2-1.4,1.2-2.5c0-0.9-0.3-1.5-0.9-2
		c-0.6-0.5-1.4-0.7-2.4-0.7c-1,0-1.8,0.1-2.5,0.4s-1.4,0.6-2,1.1l-1.1-1.5c0.6-0.5,1.4-0.9,2.4-1.3c1-0.4,2-0.6,3.3-0.6
		c1.9,0,3.3,0.4,4.2,1.3C488.4,280.1,488.8,281.2,488.8,282.5z"/>
	<path d="M527.9,312.1c0-0.9,0-1.6,0.1-2.2c0-0.6,0.1-1.2,0.1-1.8H528c-0.1,0.3-0.3,0.7-0.5,1c-0.2,0.4-0.4,0.7-0.6,0.9l-5.4,7.7
		h6.5V312.1z M532.7,319.8h-2.6v4.1h-2.1v-4.1h-8.6v-1.9l8.5-12.1h2.3v12h2.6V319.8z"/>
	<path d="M569.9,352h-2.2v-12.6c0-0.7,0-1.3,0-1.7c0-0.4,0-0.9,0.1-1.4c-0.3,0.3-0.5,0.5-0.7,0.7c-0.2,0.2-0.5,0.4-0.8,0.7l-1.9,1.6
		l-1.2-1.5l4.9-3.8h1.8V352z"/>
	<path d="M567.9,368.9c1.8,0,3.3,0.5,4.4,1.4c1.1,0.9,1.6,2.2,1.6,3.9c0,1.9-0.6,3.3-1.8,4.4c-1.2,1.1-2.8,1.6-4.9,1.6
		c-0.9,0-1.8-0.1-2.6-0.3c-0.8-0.2-1.5-0.4-2-0.7v-2.1c0.6,0.4,1.3,0.7,2.2,0.9c0.9,0.2,1.7,0.3,2.5,0.3c1.3,0,2.4-0.3,3.2-0.9
		c0.8-0.6,1.2-1.6,1.2-2.9c0-1.2-0.4-2.1-1.1-2.7c-0.7-0.6-1.9-1-3.4-1c-0.5,0-1,0-1.6,0.1c-0.6,0.1-1.1,0.2-1.5,0.3l-1.1-0.7
		l0.7-8.5h9v2h-7.1l-0.4,5.2c0.3-0.1,0.7-0.1,1.2-0.2C566.8,368.9,567.3,368.9,567.9,368.9z"/>
	<rect x="589.4" y="356.4" class="st1" width="42.1" height="27.7"/>
	<path class="st3" d="M616.4,379.9h-11.9v-1.8l4.7-4.8c0.9-0.9,1.7-1.7,2.3-2.4c0.6-0.7,1.1-1.4,1.4-2.1c0.3-0.7,0.5-1.4,0.5-2.2
		c0-1-0.3-1.7-0.9-2.2c-0.6-0.5-1.4-0.8-2.3-0.8c-0.9,0-1.6,0.2-2.3,0.5c-0.7,0.3-1.3,0.7-2,1.3l-1.2-1.5c0.7-0.6,1.5-1.1,2.4-1.5
		c0.9-0.4,2-0.6,3.1-0.6c1.7,0,3,0.4,4,1.3c1,0.8,1.5,2,1.5,3.5c0,0.9-0.2,1.8-0.6,2.6s-0.9,1.6-1.6,2.4c-0.7,0.8-1.5,1.6-2.4,2.5
		l-3.8,3.7v0.1h9.1V379.9z"/>
	<path d="M616.4,379.9h-11.9v-1.8l4.7-4.8c0.9-0.9,1.7-1.7,2.3-2.4c0.6-0.7,1.1-1.4,1.4-2.1c0.3-0.7,0.5-1.4,0.5-2.2
		c0-1-0.3-1.7-0.9-2.2c-0.6-0.5-1.4-0.8-2.3-0.8c-0.9,0-1.6,0.2-2.3,0.5c-0.7,0.3-1.3,0.7-2,1.3l-1.2-1.5c0.7-0.6,1.5-1.1,2.4-1.5
		c0.9-0.4,2-0.6,3.1-0.6c1.7,0,3,0.4,4,1.3c1,0.8,1.5,2,1.5,3.5c0,0.9-0.2,1.8-0.6,2.6s-0.9,1.6-1.6,2.4c-0.7,0.8-1.5,1.6-2.4,2.5
		l-3.8,3.7v0.1h9.1V379.9z"/>
	<path d="M173.8,293.9l14.3,15.7l1.6-1.4l-14.3-15.7L173.8,293.9z M188.8,309.9c0.6,0,1.1-0.4,1.1-1l0.4-9.4c0-0.6-0.4-1.1-1-1.1
		c-0.6,0-1.1,0.4-1.1,1l-0.4,8.4l-8.4-0.4c-0.6,0-1.1,0.4-1.1,1c0,0.6,0.4,1.1,1,1.1L188.8,309.9z"/>
	<rect x="136.2" y="179.7" class="st2" width="260.7" height="0.7"/>
	<rect x="136.2" y="151.9" class="st2" width="260.7" height="0.7"/>
	<rect x="266" y="65.8" class="st2" width="0.7" height="174.1"/>
	<rect x="136.2" y="124" class="st2" width="260.7" height="0.7"/>
	<rect x="136.2" y="96.2" class="st2" width="260.7" height="0.7"/>
	<rect x="139.1" y="65.8" class="st2" width="0.7" height="174.1"/>
	<rect x="223.6" y="65.8" class="st2" width="0.7" height="174.1"/>
	<path class="st3" d="M136.7,239.9V65.6h-1.4v174.2H136.7z M396.9,239.2H136v1.4h260.9V239.2z M396.2,65.6v174.2h1.4V65.6H396.2z
		 M136,66.3h260.9v-1.4H136V66.3z M136,239.9h-0.7v0.7h0.7V239.9z M396.9,239.9v0.7h0.7v-0.7H396.9z M396.9,65.6h0.7v-0.7h-0.7V65.6
		z M136,65.6v-0.7h-0.7v0.7H136z"/>
	<rect x="136" y="65.6" class="st7" width="260.9" height="174.2"/>
	<rect x="181.4" y="65.8" class="st2" width="0.7" height="174.1"/>
	<path d="M176.6,83.5h55.3v-2.1h-55.3V83.5z M232.7,83.2c0.4-0.4,0.4-1.1,0-1.5L226,75c-0.4-0.4-1.1-0.4-1.5,0
		c-0.4,0.4-0.4,1.1,0,1.5l5.9,5.9l-5.9,5.9c-0.4,0.4-0.4,1.1,0,1.5c0.4,0.4,1.1,0.4,1.5,0L232.7,83.2z"/>
	<path class="st3" d="M136.7,443.6V269.4h-1.4v174.2H136.7z M396.9,442.9H136v1.4h260.9V442.9z M396.2,269.4v174.2h1.4V269.4H396.2z
		 M136,270.1h260.9v-1.4H136V270.1z M136,443.6h-0.7v0.7h0.7V443.6z M396.9,443.6v0.7h0.7v-0.7H396.9z M396.9,269.4h0.7v-0.7h-0.7
		V269.4z M136,269.4v-0.7h-0.7v0.7H136z"/>
	<rect x="136" y="269.4" class="st8" width="260.9" height="174.2"/>
	<rect x="589.2" y="269.6" class="st2" width="0.7" height="174.1"/>
	<rect x="459.5" y="383.5" class="st2" width="260.7" height="0.7"/>
	<rect x="459.3" y="269.4" class="st7" width="260.9" height="174.2"/>
	<path d="M460,443.6V269.4h-1.4v174.2H460z M720.1,442.9H459.3v1.4h260.9V442.9z M719.4,269.4v174.2h1.4V269.4H719.4z M459.3,270.1
		h260.9v-1.4H459.3V270.1z M459.3,443.6h-0.7v0.7h0.7V443.6z M720.1,443.6v0.7h0.7v-0.7H720.1z M720.1,269.4h0.7v-0.7h-0.7V269.4z
		 M459.3,269.4v-0.7h-0.7v0.7H459.3z"/>
	<polygon class="st5" points="182.8,86.6 177.7,82.7 172.8,78.8 171.9,85.1 171,91.4 175.6,89.6 177.2,93.4 179.9,92.3 178.3,88.5 	
		"/>
	<polygon class="st5" points="182.1,291.7 177,287.8 172.1,283.9 171.2,290.2 170.3,296.5 174.9,294.7 176.5,298.5 179.2,297.4 
		177.6,293.6 	"/>
	<g>
		<rect x="408.4" y="351.9" class="st9" width="25.6" height="7.9"/>
		<polygon class="st9" points="430.9,355.8 430.9,345.8 439.6,350.8 448.2,355.8 439.6,360.9 430.9,365.9 		"/>
	</g>
</g>
</svg>
