<?xml version="1.0" encoding="utf-8"?>
<!-- Generator: Adobe Illustrator 26.0.2, SVG Export Plug-In . SVG Version: 6.00 Build 0)  -->
<svg version="1.1" id="레이어_1" xmlns="http://www.w3.org/2000/svg" xmlns:xlink="http://www.w3.org/1999/xlink" x="0px"
	 y="0px" viewBox="0 0 857 278" style="enable-background:new 0 0 857 278;" xml:space="preserve">
<style type="text/css">
	.st0{fill:#C9CACA;}
	.st1{fill:#C4C4C4;}
	.st2{fill:#E36F0D;}
	.st3{fill:#040000;}
	.st4{fill:#FFFFFF;}
	.st5{fill:#FFFFFF;stroke:#231815;stroke-width:1.4173;stroke-miterlimit:10;}
	.st6{fill:#D3D3D4;}
	.st7{fill-rule:evenodd;clip-rule:evenodd;fill:none;}
	.st8{fill-rule:evenodd;clip-rule:evenodd;fill:none;stroke:#000000;stroke-miterlimit:10;}
	.st9{fill:#595757;}
</style>
<rect x="505" y="81.2" class="st0" width="42.1" height="27.7"/>
<rect x="462.7" y="53.3" class="st0" width="42.1" height="27.7"/>
<rect x="504.9" y="53.5" class="st1" width="42.1" height="27.7"/>
<rect x="547.2" y="53.5" class="st0" width="42.1" height="27.7"/>
<rect x="266.2" y="137" class="st1" width="42.1" height="27.7"/>
<rect x="181.6" y="81.2" class="st0" width="42.1" height="27.7"/>
<rect x="139.3" y="53.3" class="st0" width="42.1" height="27.7"/>
<rect x="223.9" y="109.1" class="st0" width="42.1" height="27.7"/>
<rect x="223.9" y="137" class="st0" width="42.1" height="27.7"/>
<rect x="266.2" y="137" class="st0" width="42.1" height="27.7"/>
<rect x="136.2" y="52.6" class="st2" width="260.7" height="0.7"/>
<rect x="136.2" y="80.6" class="st2" width="260.7" height="0.7"/>
<rect x="136.2" y="192.1" class="st2" width="260.7" height="0.7"/>
<rect x="136.2" y="219.9" class="st2" width="260.7" height="0.7"/>
<rect x="136.2" y="164.1" class="st2" width="260.7" height="0.7"/>
<rect x="136.2" y="108.4" class="st2" width="260.7" height="0.7"/>
<rect x="136.2" y="136.3" class="st2" width="260.7" height="0.7"/>
<rect x="139.1" y="50.2" class="st2" width="0.7" height="174.1"/>
<rect x="181.4" y="50.2" class="st2" width="0.7" height="174.1"/>
<rect x="223.6" y="50.2" class="st2" width="0.7" height="174.1"/>
<rect x="308.3" y="50.2" class="st2" width="0.7" height="174.1"/>
<rect x="266" y="50.2" class="st2" width="0.7" height="174.1"/>
<rect x="350.5" y="50.2" class="st2" width="0.7" height="174.1"/>
<rect x="392.9" y="50.2" class="st2" width="0.7" height="174.1"/>
<path d="M207.8,91c0,1.2-0.3,2.2-1,2.9c-0.7,0.7-1.6,1.2-2.7,1.4v0.1c1.4,0.2,2.5,0.6,3.2,1.4s1.1,1.7,1.1,2.9c0,1-0.2,2-0.7,2.8
	c-0.5,0.8-1.2,1.4-2.3,1.9c-1,0.5-2.3,0.7-3.9,0.7c-0.9,0-1.8-0.1-2.6-0.2c-0.8-0.1-1.6-0.4-2.3-0.8V102c0.8,0.4,1.6,0.7,2.4,0.9
	c0.9,0.2,1.7,0.3,2.5,0.3c1.6,0,2.8-0.3,3.5-0.9c0.7-0.6,1.1-1.5,1.1-2.6c0-1.1-0.4-1.9-1.3-2.4c-0.9-0.5-2.1-0.8-3.7-0.8h-1.7v-1.9
	h1.8c1.5,0,2.6-0.3,3.4-0.9c0.8-0.6,1.2-1.4,1.2-2.5c0-0.9-0.3-1.5-0.9-2c-0.6-0.5-1.4-0.7-2.4-0.7c-1,0-1.8,0.1-2.5,0.4
	c-0.7,0.3-1.4,0.6-2,1.1l-1.1-1.5c0.6-0.5,1.4-0.9,2.4-1.3c1-0.4,2-0.6,3.3-0.6c1.9,0,3.3,0.4,4.2,1.3
	C207.4,88.6,207.8,89.7,207.8,91z"/>
<path d="M162.3,65.1c0-0.9,0-1.6,0.1-2.2c0-0.6,0.1-1.2,0.1-1.8h-0.1c-0.1,0.3-0.3,0.7-0.5,1c-0.2,0.4-0.4,0.7-0.6,0.9l-5.4,7.7h6.5
	V65.1z M167,72.8h-2.6v4.1h-2.1v-4.1h-8.6v-1.9l8.5-12.1h2.3v12h2.6V72.8z"/>
<path d="M246.7,132.7h-2.2v-12.6c0-0.7,0-1.3,0-1.7c0-0.4,0-0.9,0.1-1.4c-0.3,0.3-0.5,0.5-0.7,0.7c-0.2,0.2-0.5,0.4-0.8,0.7
	l-1.9,1.6l-1.2-1.5l4.9-3.8h1.8V132.7z"/>
<path d="M244.6,149.5c1.8,0,3.3,0.5,4.4,1.4c1.1,0.9,1.6,2.2,1.6,3.9c0,1.9-0.6,3.3-1.8,4.4c-1.2,1.1-2.8,1.6-4.9,1.6
	c-0.9,0-1.8-0.1-2.6-0.3c-0.8-0.2-1.5-0.4-2-0.7v-2.1c0.6,0.4,1.3,0.7,2.2,0.9c0.9,0.2,1.7,0.3,2.5,0.3c1.3,0,2.4-0.3,3.2-0.9
	c0.8-0.6,1.2-1.6,1.2-2.9c0-1.2-0.4-2.1-1.1-2.7c-0.7-0.6-1.9-1-3.4-1c-0.5,0-1,0-1.6,0.1c-0.6,0.1-1.1,0.2-1.5,0.3l-1.1-0.7
	l0.7-8.5h9v2h-7.1l-0.4,5.2c0.3-0.1,0.7-0.1,1.2-0.2C243.5,149.5,244.1,149.5,244.6,149.5z"/>
<path class="st3" d="M293.1,160.6h-11.9v-1.8l4.7-4.8c0.9-0.9,1.7-1.7,2.3-2.4c0.6-0.7,1.1-1.4,1.4-2.1c0.3-0.7,0.5-1.4,0.5-2.2
	c0-1-0.3-1.7-0.9-2.2c-0.6-0.5-1.4-0.8-2.3-0.8c-0.9,0-1.6,0.2-2.3,0.5c-0.7,0.3-1.3,0.7-2,1.3l-1.2-1.5c0.7-0.6,1.5-1.1,2.4-1.5
	c0.9-0.4,2-0.6,3.1-0.6c1.7,0,3,0.4,4,1.3c1,0.8,1.5,2,1.5,3.5c0,0.9-0.2,1.8-0.6,2.6c-0.4,0.8-0.9,1.6-1.6,2.4
	c-0.7,0.8-1.5,1.6-2.4,2.5l-3.8,3.7v0.1h9.1V160.6z"/>
<path d="M293.1,160.6h-11.9v-1.8l4.7-4.8c0.9-0.9,1.7-1.7,2.3-2.4c0.6-0.7,1.1-1.4,1.4-2.1c0.3-0.7,0.5-1.4,0.5-2.2
	c0-1-0.3-1.7-0.9-2.2c-0.6-0.5-1.4-0.8-2.3-0.8c-0.9,0-1.6,0.2-2.3,0.5c-0.7,0.3-1.3,0.7-2,1.3l-1.2-1.5c0.7-0.6,1.5-1.1,2.4-1.5
	c0.9-0.4,2-0.6,3.1-0.6c1.7,0,3,0.4,4,1.3c1,0.8,1.5,2,1.5,3.5c0,0.9-0.2,1.8-0.6,2.6c-0.4,0.8-0.9,1.6-1.6,2.4
	c-0.7,0.8-1.5,1.6-2.4,2.5l-3.8,3.7v0.1h9.1V160.6z"/>
<rect x="459.6" y="52.6" class="st2" width="260.7" height="0.7"/>
<rect x="459.6" y="80.6" class="st2" width="260.7" height="0.7"/>
<rect x="459.6" y="192.1" class="st2" width="260.7" height="0.7"/>
<rect x="459.6" y="219.9" class="st2" width="260.7" height="0.7"/>
<rect x="459.6" y="164.1" class="st2" width="260.7" height="0.7"/>
<rect x="459.6" y="108.4" class="st2" width="260.7" height="0.7"/>
<rect x="459.6" y="136.3" class="st2" width="260.7" height="0.7"/>
<rect x="462.5" y="50.2" class="st2" width="0.7" height="174.1"/>
<rect x="504.8" y="50.2" class="st2" width="0.7" height="174.1"/>
<rect x="547" y="50.2" class="st2" width="0.7" height="174.1"/>
<rect x="631.7" y="50.2" class="st2" width="0.7" height="174.1"/>
<rect x="589.4" y="50.2" class="st2" width="0.7" height="174.1"/>
<rect x="673.9" y="50.2" class="st2" width="0.7" height="174.1"/>
<rect x="716.3" y="50.2" class="st2" width="0.7" height="174.1"/>
<path d="M531.2,91c0,1.2-0.3,2.2-1,2.9c-0.7,0.7-1.6,1.2-2.7,1.4v0.1c1.4,0.2,2.5,0.6,3.2,1.4c0.7,0.7,1.1,1.7,1.1,2.9
	c0,1-0.2,2-0.7,2.8c-0.5,0.8-1.2,1.4-2.3,1.9c-1,0.5-2.3,0.7-3.9,0.7c-0.9,0-1.8-0.1-2.6-0.2c-0.8-0.1-1.6-0.4-2.3-0.8V102
	c0.8,0.4,1.6,0.7,2.4,0.9c0.9,0.2,1.7,0.3,2.5,0.3c1.6,0,2.8-0.3,3.5-0.9c0.7-0.6,1.1-1.5,1.1-2.6c0-1.1-0.4-1.9-1.3-2.4
	c-0.9-0.5-2.1-0.8-3.7-0.8h-1.7v-1.9h1.8c1.5,0,2.6-0.3,3.4-0.9c0.8-0.6,1.2-1.4,1.2-2.5c0-0.9-0.3-1.5-0.9-2
	c-0.6-0.5-1.4-0.7-2.4-0.7c-1,0-1.8,0.1-2.5,0.4c-0.7,0.3-1.4,0.6-2,1.1l-1.1-1.5c0.6-0.5,1.4-0.9,2.4-1.3c1-0.4,2-0.6,3.3-0.6
	c1.9,0,3.3,0.4,4.2,1.3C530.8,88.6,531.2,89.7,531.2,91z"/>
<path d="M485.7,65.1c0-0.9,0-1.6,0.1-2.2c0-0.6,0.1-1.2,0.1-1.8h-0.1c-0.1,0.3-0.3,0.7-0.5,1c-0.2,0.4-0.4,0.7-0.6,0.9l-5.4,7.7h6.5
	V65.1z M490.4,72.8h-2.6v4.1h-2.1v-4.1h-8.6v-1.9l8.5-12.1h2.3v12h2.6V72.8z"/>
<rect x="547.6" y="108.8" class="st2" width="84.7" height="56"/>
<path d="M591.3,146.6h-2.2V134c0-0.7,0-1.3,0-1.7c0-0.4,0-0.9,0.1-1.4c-0.3,0.3-0.5,0.5-0.7,0.7c-0.2,0.2-0.5,0.4-0.8,0.7l-1.9,1.6
	l-1.2-1.5l4.9-3.8h1.8V146.6z"/>
<path d="M525.7,66c1.8,0,3.3,0.5,4.4,1.4c1.1,0.9,1.6,2.2,1.6,3.9c0,1.9-0.6,3.3-1.8,4.4c-1.2,1.1-2.8,1.6-4.9,1.6
	c-0.9,0-1.8-0.1-2.6-0.3c-0.8-0.2-1.5-0.4-2-0.7v-2.1c0.6,0.4,1.3,0.7,2.2,0.9c0.9,0.2,1.7,0.3,2.5,0.3c1.3,0,2.4-0.3,3.2-0.9
	c0.8-0.6,1.2-1.6,1.2-2.9c0-1.2-0.4-2.1-1.1-2.7c-0.7-0.6-1.9-1-3.4-1c-0.5,0-1,0-1.6,0.1c-0.6,0.1-1.1,0.2-1.5,0.3l-1.1-0.7
	l0.7-8.5h9v2h-7.1l-0.4,5.2c0.3-0.1,0.7-0.1,1.2-0.2S525.1,66,525.7,66z"/>
<path d="M574.1,77.1h-11.9v-1.8l4.7-4.8c0.9-0.9,1.7-1.7,2.3-2.4c0.6-0.7,1.1-1.4,1.4-2.1c0.3-0.7,0.5-1.4,0.5-2.2
	c0-1-0.3-1.7-0.9-2.2c-0.6-0.5-1.4-0.8-2.3-0.8c-0.9,0-1.6,0.2-2.3,0.5c-0.7,0.3-1.3,0.7-2,1.3l-1.2-1.5c0.7-0.6,1.5-1.1,2.4-1.5
	c0.9-0.4,2-0.6,3.1-0.6c1.7,0,3,0.4,4,1.3c1,0.8,1.5,2,1.5,3.5c0,0.9-0.2,1.8-0.6,2.6c-0.4,0.8-0.9,1.6-1.6,2.4
	c-0.7,0.8-1.5,1.6-2.4,2.5l-3.8,3.7V75h9.1V77.1z"/>
<g>
	<defs>
		<rect id="SVGID_1_" x="258.7" y="131.4" width="12.3" height="12.3"/>
	</defs>
	<clipPath id="SVGID_00000076598918959419639680000014725237213001129120_">
		<use xlink:href="#SVGID_1_"  style="overflow:visible;"/>
	</clipPath>
	<g style="clip-path:url(#SVGID_00000076598918959419639680000014725237213001129120_);">
		
			<image style="overflow:visible;" width="35" height="35" xlink:href="CEBEB45B.png"  transform="matrix(0.3514 0 0 0.3514 258.6542 131.3516)">
		</image>
	</g>
</g>
<polygon class="st4" points="262.9,136.9 265.7,139.7 263.8,141.7 269.7,141.7 269.7,135.7 267.7,137.7 264.9,134.9 263.9,133.9 
	265.9,131.9 259.9,131.9 259.9,137.8 261.9,135.9 "/>
<polygon points="263.6,136.6 266.7,139.7 265.4,141 269,141 269,137.4 267.7,138.7 264.6,135.6 262.9,133.9 264.2,132.6 
	260.6,132.6 260.6,136.2 261.9,134.9 "/>
<path d="M270.7,144.1l37.1,17.5l0.9-1.9l-37.1-17.5L270.7,144.1z M308.6,161.6c0.5-0.2,0.8-0.8,0.6-1.3l-3.2-8.9
	c-0.2-0.5-0.8-0.8-1.3-0.6c-0.5,0.2-0.8,0.8-0.6,1.3l2.8,7.9l-7.9,2.8c-0.5,0.2-0.8,0.8-0.6,1.3c0.2,0.5,0.8,0.8,1.3,0.6
	L308.6,161.6z"/>
<polygon class="st5" points="264.7,123.5 259.6,119.6 254.7,115.7 253.8,122 252.9,128.3 257.5,126.5 259.1,130.3 261.8,129.2 
	260.2,125.4 "/>
<g>
	<rect x="505" y="-302.7" class="st2" width="42.1" height="27.7"/>
	<rect x="547.1" y="-274.5" class="st0" width="42.1" height="27.7"/>
	<rect x="547.1" y="-246.6" class="st0" width="42.1" height="27.7"/>
	<rect x="589.4" y="-246.6" class="st0" width="42.1" height="27.7"/>
	<rect x="462.6" y="-330.3" class="st0" width="42.1" height="27.7"/>
	<rect x="266.2" y="-246.6" class="st0" width="42.1" height="27.7"/>
	<rect x="223.9" y="-246.6" class="st0" width="42.1" height="27.7"/>
	<rect x="181.6" y="-302.4" class="st0" width="42.1" height="27.7"/>
	<rect x="139.3" y="-330.3" class="st0" width="42.1" height="27.7"/>
	<rect x="223.9" y="-274.5" class="st0" width="42.1" height="27.7"/>
	<rect x="266.2" y="-246.6" class="st0" width="42.1" height="27.7"/>
	<rect x="223.7" y="-534.3" class="st2" width="42.3" height="28.1"/>
	<rect x="136.2" y="-534.8" class="st2" width="260.7" height="0.7"/>
	<rect x="136.2" y="-395.3" class="st2" width="260.7" height="0.7"/>
	<rect x="136.2" y="-367.5" class="st2" width="260.7" height="0.7"/>
	<rect x="308.3" y="-537.2" class="st2" width="0.7" height="174.1"/>
	<rect x="350.5" y="-537.2" class="st2" width="0.7" height="174.1"/>
	<rect x="392.9" y="-537.2" class="st2" width="0.7" height="174.1"/>
	<rect x="181.6" y="-506.2" class="st6" width="42.1" height="27.7"/>
	<path d="M207.8-496.4c0,1.2-0.3,2.2-1,2.9c-0.7,0.7-1.6,1.2-2.7,1.4v0.1c1.4,0.2,2.5,0.6,3.2,1.4c0.7,0.7,1.1,1.7,1.1,2.9
		c0,1-0.2,2-0.7,2.8c-0.5,0.8-1.2,1.4-2.3,1.9c-1,0.5-2.3,0.7-3.9,0.7c-0.9,0-1.8-0.1-2.6-0.2c-0.8-0.1-1.6-0.4-2.3-0.8v-2.1
		c0.8,0.4,1.6,0.7,2.4,0.9c0.9,0.2,1.7,0.3,2.5,0.3c1.6,0,2.8-0.3,3.5-0.9c0.7-0.6,1.1-1.5,1.1-2.6c0-1.1-0.4-1.9-1.3-2.4
		c-0.9-0.5-2.1-0.8-3.7-0.8h-1.7v-1.9h1.8c1.5,0,2.6-0.3,3.4-0.9c0.8-0.6,1.2-1.4,1.2-2.5c0-0.9-0.3-1.5-0.9-2
		c-0.6-0.5-1.4-0.7-2.4-0.7c-1,0-1.8,0.1-2.5,0.4c-0.7,0.3-1.4,0.6-2,1.1l-1.1-1.5c0.6-0.5,1.4-0.9,2.4-1.3c1-0.4,2-0.6,3.3-0.6
		c1.9,0,3.3,0.4,4.2,1.3C207.4-498.8,207.8-497.7,207.8-496.4z"/>
	<rect x="139.3" y="-534.1" class="st6" width="42.1" height="27.7"/>
	<path d="M162.3-522.3c0-0.9,0-1.6,0.1-2.2c0-0.6,0.1-1.2,0.1-1.8h-0.1c-0.1,0.3-0.3,0.7-0.5,1c-0.2,0.4-0.4,0.7-0.6,0.9l-5.4,7.7
		h6.5V-522.3z M167-514.6h-2.6v4.1h-2.1v-4.1h-8.6v-1.9l8.5-12.1h2.3v12h2.6V-514.6z"/>
	<path class="st3" d="M246.6-522.3c0-0.9,0-1.6,0.1-2.2c0-0.6,0.1-1.2,0.1-1.8h-0.1c-0.1,0.3-0.3,0.7-0.5,1
		c-0.2,0.4-0.4,0.7-0.6,0.9l-5.4,7.7h6.5V-522.3z M251.4-514.6h-2.6v4.1h-2.1v-4.1H238v-1.9l8.5-12.1h2.3v12h2.6V-514.6z"/>
	<rect x="223.9" y="-478.3" class="st6" width="42.1" height="27.7"/>
	<path d="M246.7-454.7h-2.2v-12.6c0-0.7,0-1.3,0-1.7c0-0.4,0-0.9,0.1-1.4c-0.3,0.3-0.5,0.5-0.7,0.7c-0.2,0.2-0.5,0.4-0.8,0.7
		l-1.9,1.6L240-469l4.9-3.8h1.8V-454.7z"/>
	<rect x="223.9" y="-450.4" class="st6" width="42.1" height="27.7"/>
	<path d="M244.6-437.9c1.8,0,3.3,0.5,4.4,1.4s1.6,2.2,1.6,3.9c0,1.9-0.6,3.3-1.8,4.4c-1.2,1.1-2.8,1.6-4.9,1.6
		c-0.9,0-1.8-0.1-2.6-0.3c-0.8-0.2-1.5-0.4-2-0.7v-2.1c0.6,0.4,1.3,0.7,2.2,0.9c0.9,0.2,1.7,0.3,2.5,0.3c1.3,0,2.4-0.3,3.2-0.9
		c0.8-0.6,1.2-1.6,1.2-2.9c0-1.2-0.4-2.1-1.1-2.7c-0.7-0.6-1.9-1-3.4-1c-0.5,0-1,0-1.6,0.1c-0.6,0.1-1.1,0.2-1.5,0.3l-1.1-0.7
		l0.7-8.5h9v2h-7.1l-0.4,5.2c0.3-0.1,0.7-0.1,1.2-0.2C243.5-437.9,244.1-437.9,244.6-437.9z"/>
	<rect x="266.2" y="-450.4" class="st1" width="42.1" height="27.7"/>
	<path class="st3" d="M293.1-426.8h-11.9v-1.8l4.7-4.8c0.9-0.9,1.7-1.7,2.3-2.4c0.6-0.7,1.1-1.4,1.4-2.1c0.3-0.7,0.5-1.4,0.5-2.2
		c0-1-0.3-1.7-0.9-2.2c-0.6-0.5-1.4-0.8-2.3-0.8c-0.9,0-1.6,0.2-2.3,0.5c-0.7,0.3-1.3,0.7-2,1.3l-1.2-1.5c0.7-0.6,1.5-1.1,2.4-1.5
		c0.9-0.4,2-0.6,3.1-0.6c1.7,0,3,0.4,4,1.3c1,0.8,1.5,2,1.5,3.5c0,0.9-0.2,1.8-0.6,2.6s-0.9,1.6-1.6,2.4c-0.7,0.8-1.5,1.6-2.4,2.5
		L284-429v0.1h9.1V-426.8z"/>
	<rect x="266.2" y="-450.4" class="st6" width="42.1" height="27.7"/>
	<path d="M293.1-426.8h-11.9v-1.8l4.7-4.8c0.9-0.9,1.7-1.7,2.3-2.4c0.6-0.7,1.1-1.4,1.4-2.1c0.3-0.7,0.5-1.4,0.5-2.2
		c0-1-0.3-1.7-0.9-2.2c-0.6-0.5-1.4-0.8-2.3-0.8c-0.9,0-1.6,0.2-2.3,0.5c-0.7,0.3-1.3,0.7-2,1.3l-1.2-1.5c0.7-0.6,1.5-1.1,2.4-1.5
		c0.9-0.4,2-0.6,3.1-0.6c1.7,0,3,0.4,4,1.3c1,0.8,1.5,2,1.5,3.5c0,0.9-0.2,1.8-0.6,2.6s-0.9,1.6-1.6,2.4c-0.7,0.8-1.5,1.6-2.4,2.5
		L284-429v0.1h9.1V-426.8z"/>
	<rect x="136.2" y="-331.1" class="st2" width="260.7" height="0.7"/>
	<rect x="136.2" y="-303.1" class="st2" width="260.7" height="0.7"/>
	<rect x="136.2" y="-191.5" class="st2" width="260.7" height="0.7"/>
	<rect x="136.2" y="-163.7" class="st2" width="260.7" height="0.7"/>
	<rect x="136.2" y="-219.5" class="st2" width="260.7" height="0.7"/>
	<rect x="136.2" y="-275.3" class="st2" width="260.7" height="0.7"/>
	<rect x="136.2" y="-247.3" class="st2" width="260.7" height="0.7"/>
	<rect x="139.1" y="-333.4" class="st2" width="0.7" height="174.1"/>
	<rect x="181.4" y="-333.4" class="st2" width="0.7" height="174.1"/>
	<rect x="223.6" y="-333.4" class="st2" width="0.7" height="174.1"/>
	<rect x="308.3" y="-333.4" class="st2" width="0.7" height="174.1"/>
	<rect x="266" y="-333.4" class="st2" width="0.7" height="174.1"/>
	<rect x="350.5" y="-333.4" class="st2" width="0.7" height="174.1"/>
	<rect x="392.9" y="-333.4" class="st2" width="0.7" height="174.1"/>
	<path d="M207.8-292.7c0,1.2-0.3,2.2-1,2.9c-0.7,0.7-1.6,1.2-2.7,1.4v0.1c1.4,0.2,2.5,0.6,3.2,1.4c0.7,0.7,1.1,1.7,1.1,2.9
		c0,1-0.2,2-0.7,2.8c-0.5,0.8-1.2,1.4-2.3,1.9c-1,0.5-2.3,0.7-3.9,0.7c-0.9,0-1.8-0.1-2.6-0.2c-0.8-0.1-1.6-0.4-2.3-0.8v-2.1
		c0.8,0.4,1.6,0.7,2.4,0.9c0.9,0.2,1.7,0.3,2.5,0.3c1.6,0,2.8-0.3,3.5-0.9c0.7-0.6,1.1-1.5,1.1-2.6c0-1.1-0.4-1.9-1.3-2.4
		c-0.9-0.5-2.1-0.8-3.7-0.8h-1.7v-1.9h1.8c1.5,0,2.6-0.3,3.4-0.9c0.8-0.6,1.2-1.4,1.2-2.5c0-0.9-0.3-1.5-0.9-2
		c-0.6-0.5-1.4-0.7-2.4-0.7c-1,0-1.8,0.1-2.5,0.4s-1.4,0.6-2,1.1l-1.1-1.5c0.6-0.5,1.4-0.9,2.4-1.3c1-0.4,2-0.6,3.3-0.6
		c1.9,0,3.3,0.4,4.2,1.3C207.4-295,207.8-294,207.8-292.7z"/>
	<path d="M162.3-318.5c0-0.9,0-1.6,0.1-2.2c0-0.6,0.1-1.2,0.1-1.8h-0.1c-0.1,0.3-0.3,0.7-0.5,1c-0.2,0.4-0.4,0.7-0.6,0.9l-5.4,7.7
		h6.5V-318.5z M167-310.9h-2.6v4.1h-2.1v-4.1h-8.6v-1.9l8.5-12.1h2.3v12h2.6V-310.9z"/>
	<path d="M246.7-251h-2.2v-12.6c0-0.7,0-1.3,0-1.7c0-0.4,0-0.9,0.1-1.4c-0.3,0.3-0.5,0.5-0.7,0.7c-0.2,0.2-0.5,0.4-0.8,0.7l-1.9,1.6
		l-1.2-1.5l4.9-3.8h1.8V-251z"/>
	<path d="M244.6-234.1c1.8,0,3.3,0.5,4.4,1.4c1.1,0.9,1.6,2.2,1.6,3.9c0,1.9-0.6,3.3-1.8,4.4c-1.2,1.1-2.8,1.6-4.9,1.6
		c-0.9,0-1.8-0.1-2.6-0.3c-0.8-0.2-1.5-0.4-2-0.7v-2.1c0.6,0.4,1.3,0.7,2.2,0.9c0.9,0.2,1.7,0.3,2.5,0.3c1.3,0,2.4-0.3,3.2-0.9
		c0.8-0.6,1.2-1.6,1.2-2.9c0-1.2-0.4-2.1-1.1-2.7c-0.7-0.6-1.9-1-3.4-1c-0.5,0-1,0-1.6,0.1c-0.6,0.1-1.1,0.2-1.5,0.3l-1.1-0.7
		l0.7-8.5h9v2h-7.1l-0.4,5.2c0.3-0.1,0.7-0.1,1.2-0.2C243.5-234.1,244.1-234.1,244.6-234.1z"/>
	<path class="st3" d="M293.1-223.1h-11.9v-1.8l4.7-4.8c0.9-0.9,1.7-1.7,2.3-2.4c0.6-0.7,1.1-1.4,1.4-2.1c0.3-0.7,0.5-1.4,0.5-2.2
		c0-1-0.3-1.7-0.9-2.2c-0.6-0.5-1.4-0.8-2.3-0.8c-0.9,0-1.6,0.2-2.3,0.5c-0.7,0.3-1.3,0.7-2,1.3l-1.2-1.5c0.7-0.6,1.5-1.1,2.4-1.5
		c0.9-0.4,2-0.6,3.1-0.6c1.7,0,3,0.4,4,1.3c1,0.8,1.5,2,1.5,3.5c0,0.9-0.2,1.8-0.6,2.6c-0.4,0.8-0.9,1.6-1.6,2.4
		c-0.7,0.8-1.5,1.6-2.4,2.5l-3.8,3.7v0.1h9.1V-223.1z"/>
	<path d="M293.1-223.1h-11.9v-1.8l4.7-4.8c0.9-0.9,1.7-1.7,2.3-2.4c0.6-0.7,1.1-1.4,1.4-2.1c0.3-0.7,0.5-1.4,0.5-2.2
		c0-1-0.3-1.7-0.9-2.2c-0.6-0.5-1.4-0.8-2.3-0.8c-0.9,0-1.6,0.2-2.3,0.5c-0.7,0.3-1.3,0.7-2,1.3l-1.2-1.5c0.7-0.6,1.5-1.1,2.4-1.5
		c0.9-0.4,2-0.6,3.1-0.6c1.7,0,3,0.4,4,1.3c1,0.8,1.5,2,1.5,3.5c0,0.9-0.2,1.8-0.6,2.6c-0.4,0.8-0.9,1.6-1.6,2.4
		c-0.7,0.8-1.5,1.6-2.4,2.5l-3.8,3.7v0.1h9.1V-223.1z"/>
	<rect x="459.5" y="-331.1" class="st2" width="260.7" height="0.7"/>
	<rect x="459.5" y="-303.1" class="st2" width="260.7" height="0.7"/>
	<rect x="459.5" y="-191.5" class="st2" width="260.7" height="0.7"/>
	<rect x="459.5" y="-163.7" class="st2" width="260.7" height="0.7"/>
	<rect x="459.5" y="-275.3" class="st2" width="260.7" height="0.7"/>
	<rect x="459.5" y="-247.3" class="st2" width="260.7" height="0.7"/>
	<rect x="462.3" y="-333.4" class="st2" width="0.7" height="174.1"/>
	<rect x="504.7" y="-333.4" class="st2" width="0.7" height="174.1"/>
	<rect x="546.9" y="-333.4" class="st2" width="0.7" height="174.1"/>
	<rect x="631.6" y="-333.4" class="st2" width="0.7" height="174.1"/>
	<rect x="673.8" y="-333.4" class="st2" width="0.7" height="174.1"/>
	<rect x="716.1" y="-333.4" class="st2" width="0.7" height="174.1"/>
	<path d="M488.8-320.5c0,1.2-0.3,2.2-1,2.9c-0.7,0.7-1.6,1.2-2.7,1.4v0.1c1.4,0.2,2.5,0.6,3.2,1.4c0.7,0.7,1.1,1.7,1.1,2.9
		c0,1-0.2,2-0.7,2.8c-0.5,0.8-1.2,1.4-2.3,1.9c-1,0.5-2.3,0.7-3.9,0.7c-0.9,0-1.8-0.1-2.6-0.2c-0.8-0.1-1.6-0.4-2.3-0.8v-2.1
		c0.8,0.4,1.6,0.7,2.4,0.9c0.9,0.2,1.7,0.3,2.5,0.3c1.6,0,2.8-0.3,3.5-0.9c0.7-0.6,1.1-1.5,1.1-2.6c0-1.1-0.4-1.9-1.3-2.4
		c-0.9-0.5-2.1-0.8-3.7-0.8h-1.7v-1.9h1.8c1.5,0,2.6-0.3,3.4-0.9c0.8-0.6,1.2-1.4,1.2-2.5c0-0.9-0.3-1.5-0.9-2
		c-0.6-0.5-1.4-0.7-2.4-0.7c-1,0-1.8,0.1-2.5,0.4s-1.4,0.6-2,1.1l-1.1-1.5c0.6-0.5,1.4-0.9,2.4-1.3c1-0.4,2-0.6,3.3-0.6
		c1.9,0,3.3,0.4,4.2,1.3C488.4-322.9,488.8-321.8,488.8-320.5z"/>
	<path d="M527.9-290.9c0-0.9,0-1.6,0.1-2.2c0-0.6,0.1-1.2,0.1-1.8H528c-0.1,0.3-0.3,0.7-0.5,1c-0.2,0.4-0.4,0.7-0.6,0.9l-5.4,7.7
		h6.5V-290.9z M532.7-283.2h-2.6v4.1h-2.1v-4.1h-8.6v-1.9l8.5-12.1h2.3v12h2.6V-283.2z"/>
	<path d="M569.9-251h-2.2v-12.6c0-0.7,0-1.3,0-1.7c0-0.4,0-0.9,0.1-1.4c-0.3,0.3-0.5,0.5-0.7,0.7c-0.2,0.2-0.5,0.4-0.8,0.7l-1.9,1.6
		l-1.2-1.5l4.9-3.8h1.8V-251z"/>
	<path d="M567.9-234.1c1.8,0,3.3,0.5,4.4,1.4c1.1,0.9,1.6,2.2,1.6,3.9c0,1.9-0.6,3.3-1.8,4.4c-1.2,1.1-2.8,1.6-4.9,1.6
		c-0.9,0-1.8-0.1-2.6-0.3c-0.8-0.2-1.5-0.4-2-0.7v-2.1c0.6,0.4,1.3,0.7,2.2,0.9c0.9,0.2,1.7,0.3,2.5,0.3c1.3,0,2.4-0.3,3.2-0.9
		c0.8-0.6,1.2-1.6,1.2-2.9c0-1.2-0.4-2.1-1.1-2.7c-0.7-0.6-1.9-1-3.4-1c-0.5,0-1,0-1.6,0.1c-0.6,0.1-1.1,0.2-1.5,0.3l-1.1-0.7
		l0.7-8.5h9v2h-7.1l-0.4,5.2c0.3-0.1,0.7-0.1,1.2-0.2C566.8-234.1,567.3-234.1,567.9-234.1z"/>
	<rect x="589.4" y="-246.6" class="st1" width="42.1" height="27.7"/>
	<path class="st3" d="M616.4-223.1h-11.9v-1.8l4.7-4.8c0.9-0.9,1.7-1.7,2.3-2.4c0.6-0.7,1.1-1.4,1.4-2.1c0.3-0.7,0.5-1.4,0.5-2.2
		c0-1-0.3-1.7-0.9-2.2c-0.6-0.5-1.4-0.8-2.3-0.8c-0.9,0-1.6,0.2-2.3,0.5c-0.7,0.3-1.3,0.7-2,1.3l-1.2-1.5c0.7-0.6,1.5-1.1,2.4-1.5
		c0.9-0.4,2-0.6,3.1-0.6c1.7,0,3,0.4,4,1.3c1,0.8,1.5,2,1.5,3.5c0,0.9-0.2,1.8-0.6,2.6c-0.4,0.8-0.9,1.6-1.6,2.4
		c-0.7,0.8-1.5,1.6-2.4,2.5l-3.8,3.7v0.1h9.1V-223.1z"/>
	<path d="M616.4-223.1h-11.9v-1.8l4.7-4.8c0.9-0.9,1.7-1.7,2.3-2.4c0.6-0.7,1.1-1.4,1.4-2.1c0.3-0.7,0.5-1.4,0.5-2.2
		c0-1-0.3-1.7-0.9-2.2c-0.6-0.5-1.4-0.8-2.3-0.8c-0.9,0-1.6,0.2-2.3,0.5c-0.7,0.3-1.3,0.7-2,1.3l-1.2-1.5c0.7-0.6,1.5-1.1,2.4-1.5
		c0.9-0.4,2-0.6,3.1-0.6c1.7,0,3,0.4,4,1.3c1,0.8,1.5,2,1.5,3.5c0,0.9-0.2,1.8-0.6,2.6c-0.4,0.8-0.9,1.6-1.6,2.4
		c-0.7,0.8-1.5,1.6-2.4,2.5l-3.8,3.7v0.1h9.1V-223.1z"/>
	<path d="M173.8-309.1l14.3,15.7l1.6-1.4l-14.3-15.7L173.8-309.1z M188.8-293.1c0.6,0,1.1-0.4,1.1-1l0.4-9.4c0-0.6-0.4-1.1-1-1.1
		c-0.6,0-1.1,0.4-1.1,1l-0.4,8.4l-8.4-0.4c-0.6,0-1.1,0.4-1.1,1c0,0.6,0.4,1.1,1,1.1L188.8-293.1z"/>
	<rect x="136.2" y="-423.3" class="st2" width="260.7" height="0.7"/>
	<rect x="136.2" y="-451.1" class="st2" width="260.7" height="0.7"/>
	<rect x="266" y="-537.2" class="st2" width="0.7" height="174.1"/>
	<rect x="136.2" y="-479" class="st2" width="260.7" height="0.7"/>
	<rect x="136.2" y="-506.8" class="st2" width="260.7" height="0.7"/>
	<rect x="139.1" y="-537.2" class="st2" width="0.7" height="174.1"/>
	<rect x="223.6" y="-537.2" class="st2" width="0.7" height="174.1"/>
	<path class="st3" d="M136.7-363.1v-174.2h-1.4v174.2H136.7z M396.9-363.8H136v1.4h260.9V-363.8z M396.2-537.4v174.2h1.4v-174.2
		H396.2z M136-536.7h260.9v-1.4H136V-536.7z M136-363.1h-0.7v0.7h0.7V-363.1z M396.9-363.1v0.7h0.7v-0.7H396.9z M396.9-537.4h0.7
		v-0.7h-0.7V-537.4z M136-537.4v-0.7h-0.7v0.7H136z"/>
	<rect x="136" y="-537.4" class="st7" width="260.9" height="174.2"/>
	<rect x="181.4" y="-537.2" class="st2" width="0.7" height="174.1"/>
	<path d="M176.6-519.5h55.3v-2.1h-55.3V-519.5z M232.7-519.8c0.4-0.4,0.4-1.1,0-1.5L226-528c-0.4-0.4-1.1-0.4-1.5,0
		c-0.4,0.4-0.4,1.1,0,1.5l5.9,5.9l-5.9,5.9c-0.4,0.4-0.4,1.1,0,1.5c0.4,0.4,1.1,0.4,1.5,0L232.7-519.8z"/>
	<path class="st3" d="M136.7-159.4v-174.2h-1.4v174.2H136.7z M396.9-160.1H136v1.4h260.9V-160.1z M396.2-333.6v174.2h1.4v-174.2
		H396.2z M136-332.9h260.9v-1.4H136V-332.9z M136-159.4h-0.7v0.7h0.7V-159.4z M396.9-159.4v0.7h0.7v-0.7H396.9z M396.9-333.6h0.7
		v-0.7h-0.7V-333.6z M136-333.6v-0.7h-0.7v0.7H136z"/>
	<rect x="136" y="-333.6" class="st8" width="260.9" height="174.2"/>
	<rect x="589.2" y="-333.4" class="st2" width="0.7" height="174.1"/>
	<rect x="459.5" y="-219.5" class="st2" width="260.7" height="0.7"/>
	<rect x="459.3" y="-333.6" class="st7" width="260.9" height="174.2"/>
	<path d="M460-159.4v-174.2h-1.4v174.2H460z M720.1-160.1H459.3v1.4h260.9V-160.1z M719.4-333.6v174.2h1.4v-174.2H719.4z
		 M459.3-332.9h260.9v-1.4H459.3V-332.9z M459.3-159.4h-0.7v0.7h0.7V-159.4z M720.1-159.4v0.7h0.7v-0.7H720.1z M720.1-333.6h0.7
		v-0.7h-0.7V-333.6z M459.3-333.6v-0.7h-0.7v0.7H459.3z"/>
	<polygon class="st5" points="182.8,-516.4 177.7,-520.3 172.8,-524.2 171.9,-517.9 171,-511.6 175.6,-513.4 177.2,-509.6 
		179.9,-510.7 178.3,-514.5 	"/>
	<polygon class="st5" points="182.1,-311.3 177,-315.2 172.1,-319.1 171.2,-312.8 170.3,-306.5 174.9,-308.3 176.5,-304.5 
		179.2,-305.6 177.6,-309.4 	"/>
	<g>
		<rect x="408.4" y="-251.1" class="st9" width="25.6" height="7.9"/>
		<polygon class="st9" points="430.9,-247.2 430.9,-257.2 439.6,-252.2 448.2,-247.2 439.6,-242.1 430.9,-237.1 		"/>
	</g>
</g>
<g>
	<rect x="408.4" y="133.7" class="st9" width="25.6" height="7.9"/>
	<polygon class="st9" points="430.9,137.6 430.9,127.6 439.6,132.6 448.2,137.6 439.6,142.6 430.9,147.6 	"/>
</g>
<path d="M136.7,224.3V50h-1.4v174.2H136.7z M396.9,223.6H136v1.4h260.9V223.6z M396.2,50v174.2h1.4V50H396.2z M136,50.7h260.9v-1.4
	H136V50.7z M136,224.3h-0.7v0.7h0.7V224.3z M396.9,224.3v0.7h0.7v-0.7H396.9z M396.9,50h0.7v-0.7h-0.7V50z M136,50v-0.7h-0.7V50H136
	z"/>
<path d="M460.1,224.3V50h-1.4v174.2H460.1z M720.3,223.6H459.4v1.4h260.9V223.6z M719.6,50v174.2h1.4V50H719.6z M459.4,50.7h260.9
	v-1.4H459.4V50.7z M459.4,224.3h-0.7v0.7h0.7V224.3z M720.3,224.3v0.7h0.7v-0.7H720.3z M720.3,50h0.7v-0.7h-0.7V50z M459.4,50v-0.7
	h-0.7V50H459.4z"/>
</svg>
