<?xml version="1.0" encoding="utf-8"?>
<!-- Generator: Adobe Illustrator 26.0.2, SVG Export Plug-In . SVG Version: 6.00 Build 0)  -->
<svg version="1.1" id="레이어_1" xmlns="http://www.w3.org/2000/svg" xmlns:xlink="http://www.w3.org/1999/xlink" x="0px"
	 y="0px" viewBox="0 0 378.9 232.3" style="enable-background:new 0 0 378.9 232.3;" xml:space="preserve">
<style type="text/css">
	.st0{fill:none;stroke:#000000;stroke-width:0.7743;stroke-miterlimit:10;}
	.st1{fill:#FFFFFF;}
</style>
<rect x="66.4" y="46.5" class="st0" width="240.1" height="135.5"/>
<g>
	<g>
		<defs>
			<rect id="SVGID_1_" x="177.2" y="34.4" width="19.9" height="25"/>
		</defs>
		<clipPath id="SVGID_00000104668549678177041850000008714404284295101357_">
			<use xlink:href="#SVGID_1_"  style="overflow:visible;"/>
		</clipPath>
		<g style="clip-path:url(#SVGID_00000104668549678177041850000008714404284295101357_);">
			
				<image style="overflow:visible;" width="31" height="39" xlink:href="EED4BE52.png"  transform="matrix(0.6431 0 0 0.6422 177.1619 34.4147)">
			</image>
		</g>
	</g>
	<path class="st1" d="M187.1,35.4l-7.7,7.7h5.1v5.1h-5.1l7.7,7.7l7.7-7.7h-5.1v-5.1h5.1L187.1,35.4z M187.1,37.2l4.6,4.6h-3.3v7.7
		h3.3l-4.6,4.6l-4.6-4.6h3.3v-7.7h-3.3L187.1,37.2z"/>
	<polygon points="188.4,45 188.4,41.8 191.7,41.8 187.1,37.2 182.5,41.8 185.9,41.8 185.9,45 185.9,49.5 182.5,49.5 187.1,54.1 
		191.7,49.5 188.4,49.5 	"/>
</g>
<g>
	<g>
		<defs>
			
				<rect id="SVGID_00000090994728742188491080000011852376860719274631_" x="59.4" y="37" transform="matrix(0.723 -0.6909 0.6909 0.723 -15.0202 61.6399)" width="19.9" height="25"/>
		</defs>
		<clipPath id="SVGID_00000145026756436523277780000005689958867391792567_">
			<use xlink:href="#SVGID_00000090994728742188491080000011852376860719274631_"  style="overflow:visible;"/>
		</clipPath>
		
			<g transform="matrix(1 -2.980232e-08 -2.980232e-08 1 0 3.814697e-06)" style="clip-path:url(#SVGID_00000145026756436523277780000005689958867391792567_);">
			
				<image style="overflow:visible;" width="31" height="39" xlink:href="EED4BE56.png"  transform="matrix(0.4649 -0.4443 0.4437 0.4643 53.4964 47.382)">
			</image>
		</g>
	</g>
	<path class="st1" d="M61.4,41.2l-0.2,10.8l3.7-3.5l3.5,3.7l-3.7,3.5L75.5,56l0.2-10.8l-3.7,3.5L68.6,45l3.7-3.5L61.4,41.2z
		 M62.7,42.5l6.5,0.1L66.7,45l5.3,5.5l2.4-2.3l-0.1,6.5l-6.5-0.1l2.4-2.3l-5.3-5.5L62.5,49L62.7,42.5z"/>
	<polygon points="69,47.3 66.7,45 69.1,42.7 62.7,42.5 62.5,49 64.9,46.7 67.1,49 70.2,52.3 67.8,54.6 74.3,54.7 74.4,48.2 72,50.5 
			"/>
</g>
<g>
	<g>
		<defs>
			
				<rect id="SVGID_00000084521962125408075430000017080416364193013888_" x="293.9" y="167.2" transform="matrix(0.723 -0.6909 0.6909 0.723 -40.0115 259.7118)" width="19.9" height="25"/>
		</defs>
		<clipPath id="SVGID_00000181808461439172483790000006366389267054462118_">
			<use xlink:href="#SVGID_00000084521962125408075430000017080416364193013888_"  style="overflow:visible;"/>
		</clipPath>
		
			<g transform="matrix(1 -2.980232e-08 -2.980232e-08 1 0 0)" style="clip-path:url(#SVGID_00000181808461439172483790000006366389267054462118_);">
			
				<image style="overflow:visible;" width="31" height="39" xlink:href="EED4BE51.png"  transform="matrix(0.4649 -0.4443 0.4437 0.4643 287.9964 177.582)">
			</image>
		</g>
	</g>
	<path class="st1" d="M295.9,171.4l-0.2,10.8l3.7-3.5l3.5,3.7l-3.7,3.5l10.8,0.2l0.2-10.8l-3.7,3.5l-3.5-3.7l3.7-3.5L295.9,171.4z
		 M297.2,172.7l6.5,0.1l-2.4,2.3l5.3,5.5l2.4-2.3l-0.1,6.5l-6.5-0.1l2.4-2.3l-5.3-5.5l-2.4,2.3L297.2,172.7z"/>
	<polygon points="303.5,177.5 301.2,175.2 303.6,172.9 297.2,172.7 297,179.2 299.4,176.9 301.6,179.2 304.7,182.5 302.3,184.8 
		308.8,184.9 308.9,178.4 306.5,180.7 	"/>
</g>
<g>
	<g>
		<defs>
			
				<rect id="SVGID_00000013191978193017317220000008929753979731221895_" x="56.8" y="169.8" transform="matrix(0.6909 -0.723 0.723 0.6909 -108.5174 105.7118)" width="25" height="19.9"/>
		</defs>
		<clipPath id="SVGID_00000063607578684673445630000014914398282984027324_">
			<use xlink:href="#SVGID_00000013191978193017317220000008929753979731221895_"  style="overflow:visible;"/>
		</clipPath>
		
			<g transform="matrix(1 2.980232e-08 2.980232e-08 1 -7.629395e-06 0)" style="clip-path:url(#SVGID_00000063607578684673445630000014914398282984027324_);">
			
				<image style="overflow:visible;" width="31" height="39" xlink:href="EED4BE53.png"  transform="matrix(-0.4649 -0.4443 -0.4437 0.4643 85.2132 177.582)">
			</image>
		</g>
	</g>
	<path class="st1" d="M66.5,171.7l3.7,3.5l-3.5,3.7l-3.7-3.5l0.2,10.8L74,186l-3.7-3.5l3.5-3.7l3.7,3.5l-0.2-10.8L66.5,171.7z
		 M76.2,179.2l-2.4-2.3l-5.3,5.5l2.4,2.3l-6.5,0.1l-0.1-6.5l2.4,2.3l5.3-5.5l-2.4-2.3l6.5-0.1L76.2,179.2z"/>
	<polygon points="69.8,177.5 72,175.2 69.6,172.9 76.1,172.7 76.2,179.2 73.8,176.9 71.6,179.2 68.5,182.5 70.9,184.8 64.4,184.9 
		64.3,178.4 66.7,180.7 	"/>
</g>
<g>
	<g>
		<defs>
			
				<rect id="SVGID_00000010291418866476376120000015174093739817330587_" x="293.4" y="38.9" transform="matrix(0.6909 -0.723 0.723 0.6909 59.2659 236.3049)" width="25" height="19.9"/>
		</defs>
		<clipPath id="SVGID_00000100364524494373165250000000724908169259958158_">
			<use xlink:href="#SVGID_00000010291418866476376120000015174093739817330587_"  style="overflow:visible;"/>
		</clipPath>
		
			<g transform="matrix(1 2.980232e-08 2.980232e-08 1 0 3.814697e-06)" style="clip-path:url(#SVGID_00000100364524494373165250000000724908169259958158_);">
			
				<image style="overflow:visible;" width="31" height="39" xlink:href="EED4BE50.png"  transform="matrix(-0.4649 -0.4443 -0.4437 0.4643 321.8132 46.682)">
			</image>
		</g>
	</g>
	<path class="st1" d="M303.1,40.8l3.7,3.5l-3.5,3.7l-3.7-3.5l0.2,10.8l10.8-0.2l-3.7-3.5l3.5-3.7l3.7,3.5l-0.2-10.8L303.1,40.8z
		 M312.8,48.3l-2.4-2.3l-5.3,5.5l2.4,2.3L301,54l-0.1-6.5l2.4,2.3l5.3-5.5l-2.4-2.3l6.5-0.1L312.8,48.3z"/>
	<polygon points="306.4,46.6 308.6,44.3 306.2,42 312.7,41.8 312.8,48.3 310.4,46 308.2,48.3 305.1,51.6 307.5,53.9 301,54 
		300.9,47.5 303.3,49.8 	"/>
</g>
<g>
	<g>
		<defs>
			<rect id="SVGID_00000089566387625020795430000012363968588077488800_" x="54.4" y="101.4" width="25" height="19.9"/>
		</defs>
		<clipPath id="SVGID_00000072990058706581833890000000490058189179941564_">
			<use xlink:href="#SVGID_00000089566387625020795430000012363968588077488800_"  style="overflow:visible;"/>
		</clipPath>
		
			<g transform="matrix(1 0 0 1 -3.814697e-06 0)" style="clip-path:url(#SVGID_00000072990058706581833890000000490058189179941564_);">
			
				<image style="overflow:visible;" width="31" height="39" xlink:href="EED4BE5E.png"  transform="matrix(0 -0.6431 0.6422 0 54.4325 121.3056)">
			</image>
		</g>
	</g>
	<path class="st1" d="M55.5,111.3l7.7,7.7v-5.1h5.1v5.1l7.7-7.7l-7.7-7.7v5.1h-5.1v-5.1L55.5,111.3z M57.3,111.3l4.6-4.6v3.3h7.7
		v-3.3l4.6,4.6l-4.6,4.6v-3.3h-7.7v3.3L57.3,111.3z"/>
	<polygon points="65,110.1 61.8,110.1 61.8,106.8 57.3,111.3 61.8,115.9 61.8,112.6 65,112.6 69.5,112.6 69.5,115.9 74.1,111.3 
		69.5,106.8 69.5,110.1 	"/>
</g>
<g>
	<g>
		<defs>
			<rect id="SVGID_00000092439030934644048840000000067898032627775393_" x="295.2" y="101.4" width="25" height="19.9"/>
		</defs>
		<clipPath id="SVGID_00000103956573404542079830000015252244998532523956_">
			<use xlink:href="#SVGID_00000092439030934644048840000000067898032627775393_"  style="overflow:visible;"/>
		</clipPath>
		<g style="clip-path:url(#SVGID_00000103956573404542079830000015252244998532523956_);">
			
				<image style="overflow:visible;" width="31" height="39" xlink:href="EED4BE55.png"  transform="matrix(0 -0.6431 0.6422 0 295.1625 121.3056)">
			</image>
		</g>
	</g>
	<path class="st1" d="M296.2,111.3l7.7,7.7v-5.1h5.1v5.1l7.7-7.7l-7.7-7.7v5.1h-5.1v-5.1L296.2,111.3z M298,111.3l4.6-4.6v3.3h7.7
		v-3.3l4.6,4.6l-4.6,4.6v-3.3h-7.7v3.3L298,111.3z"/>
	<polygon points="305.8,110.1 302.5,110.1 302.5,106.8 298,111.3 302.5,115.9 302.5,112.6 305.8,112.6 310.2,112.6 310.2,115.9 
		314.8,111.3 310.2,106.8 310.2,110.1 	"/>
</g>
<g>
	<g>
		<defs>
			<rect id="SVGID_00000175281243204074211100000002022015150170337450_" x="177.2" y="170.8" width="19.9" height="25"/>
		</defs>
		<clipPath id="SVGID_00000106118849696905303520000016558392470461249158_">
			<use xlink:href="#SVGID_00000175281243204074211100000002022015150170337450_"  style="overflow:visible;"/>
		</clipPath>
		<g style="clip-path:url(#SVGID_00000106118849696905303520000016558392470461249158_);">
			
				<image style="overflow:visible;" width="31" height="39" xlink:href="EED4BE57.png"  transform="matrix(0.6431 0 0 0.6422 177.1619 170.7747)">
			</image>
		</g>
	</g>
	<path class="st1" d="M187.1,171.8l-7.7,7.7h5.1v5.1h-5.1l7.7,7.7l7.7-7.7h-5.1v-5.1h5.1L187.1,171.8z M187.1,173.6l4.6,4.6h-3.3
		v7.7h3.3l-4.6,4.6l-4.6-4.6h3.3v-7.7h-3.3L187.1,173.6z"/>
	<polygon points="188.4,181.4 188.4,178.2 191.7,178.2 187.1,173.6 182.5,178.2 185.9,178.2 185.9,181.4 185.9,185.9 182.5,185.9 
		187.1,190.4 191.7,185.9 188.4,185.9 	"/>
</g>
</svg>
