<?xml version="1.0" encoding="utf-8"?>
<!-- Generator: Adobe Illustrator 26.0.2, SVG Export Plug-In . SVG Version: 6.00 Build 0)  -->
<svg version="1.1" id="레이어_1" xmlns="http://www.w3.org/2000/svg" xmlns:xlink="http://www.w3.org/1999/xlink" x="0px"
	 y="0px" viewBox="0 0 779.9 246.3" style="enable-background:new 0 0 779.9 246.3;" xml:space="preserve">
<style type="text/css">
	.st0{fill:#C9CACA;}
	.st1{fill:#E36F0D;}
	.st2{fill:#E2700E;}
	.st3{fill:#040000;}
	.st4{clip-path:url(#SVGID_00000170276117950553635730000004886357679562522041_);fill:#E2700E;}
	.st5{fill-rule:evenodd;clip-rule:evenodd;fill:#FFFFFF;}
	.st6{fill:none;stroke:#E36F0D;stroke-width:0.72;stroke-miterlimit:10;}
	.st7{fill:none;stroke:#E36F0D;stroke-width:0.5102;stroke-miterlimit:10;}
</style>
<g>
	<rect x="431.1" y="43.3" class="st0" width="112" height="63"/>
	<path d="M431.5,106.3v-63h-0.7v63H431.5z M543.1,106h-112v0.7h112V106z M542.8,43.3v63h0.7v-63H542.8z M431.1,43.7h112V43h-112
		V43.7z M431.1,106.3h-0.4v0.3h0.4V106.3z M543.1,106.3v0.3h0.4v-0.3H543.1z M543.1,43.3h0.4V43h-0.4V43.3z M431.1,43.3V43h-0.4v0.3
		H431.1z"/>
	<rect x="431.1" y="106.3" class="st0" width="112" height="63"/>
	<path d="M431.5,169.3v-63h-0.7v63H431.5z M543.1,169h-112v0.7h112V169z M542.8,106.3v63h0.7v-63H542.8z M431.1,106.7h112V106h-112
		V106.7z M431.1,169.3h-0.4v0.3h0.4V169.3z M543.1,169.3v0.3h0.4v-0.3H543.1z M543.1,106.3h0.4V106h-0.4V106.3z M431.1,106.3V106
		h-0.4v0.3H431.1z"/>
	<rect x="543.1" y="43.3" class="st0" width="112" height="63"/>
	<path d="M543.5,106.3v-63h-0.7v63H543.5z M655.1,106h-112v0.7h112V106z M654.8,43.3v63h0.7v-63H654.8z M543.1,43.7h112V43h-112
		V43.7z M543.1,106.3h-0.3v0.3h0.3V106.3z M655.1,106.3v0.3h0.4v-0.3H655.1z M655.1,43.3h0.4V43h-0.4V43.3z M543.1,43.3V43h-0.3v0.3
		H543.1z"/>
	<rect x="543.1" y="106.3" class="st0" width="112" height="63"/>
	<path d="M543.5,169.3v-63h-0.7v63H543.5z M655.1,169h-112v0.7h112V169z M654.8,106.3v63h0.7v-63H654.8z M543.1,106.7h112V106h-112
		V106.7z M543.1,169.3h-0.3v0.3h0.3V169.3z M655.1,169.3v0.3h0.4v-0.3H655.1z M655.1,106.3h0.4V106h-0.4V106.3z M543.1,106.3V106
		h-0.3v0.3H543.1z"/>
	<path d="M488,79.7h-1.1v-5.6c0-0.2,0-0.4,0-0.6c0-0.2,0-0.4,0-0.6c0-0.2,0-0.4,0-0.6c0-0.2,0-0.3,0-0.5c-0.1,0.1-0.1,0.1-0.2,0.2
		c-0.1,0.1-0.1,0.1-0.2,0.2c-0.1,0-0.1,0.1-0.2,0.2c-0.1,0.1-0.1,0.1-0.2,0.2l-0.9,0.7l-0.6-0.8l2.4-1.8h0.9V79.7z"/>
	<path d="M489.6,135.9c0,0.3,0,0.6-0.1,0.8s-0.2,0.5-0.4,0.6c-0.2,0.2-0.4,0.3-0.6,0.4c-0.2,0.1-0.5,0.2-0.8,0.2v0
		c0.7,0.1,1.3,0.3,1.7,0.7c0.4,0.4,0.6,0.9,0.6,1.4c0,0.4-0.1,0.8-0.2,1.1c-0.1,0.3-0.3,0.6-0.6,0.8c-0.3,0.2-0.6,0.4-1,0.6
		c-0.4,0.1-0.9,0.2-1.5,0.2c-0.4,0-0.9,0-1.3-0.1c-0.4-0.1-0.8-0.2-1.1-0.4v-1c0.4,0.2,0.7,0.3,1.2,0.4c0.4,0.1,0.8,0.2,1.2,0.2
		c0.4,0,0.7,0,1-0.1s0.5-0.2,0.7-0.4c0.2-0.2,0.3-0.3,0.4-0.6c0.1-0.2,0.1-0.5,0.1-0.7c0-0.3-0.1-0.5-0.2-0.7
		c-0.1-0.2-0.3-0.4-0.5-0.5c-0.2-0.1-0.4-0.2-0.7-0.3c-0.3-0.1-0.6-0.1-1-0.1h-0.8v-0.9h0.8c0.3,0,0.6,0,0.9-0.1
		c0.3-0.1,0.5-0.2,0.6-0.4c0.2-0.2,0.3-0.3,0.4-0.5c0.1-0.2,0.1-0.4,0.1-0.7c0-0.2,0-0.4-0.1-0.6c-0.1-0.2-0.2-0.3-0.3-0.4
		c-0.1-0.1-0.3-0.2-0.5-0.3c-0.2-0.1-0.4-0.1-0.6-0.1c-0.4,0-0.8,0.1-1.2,0.2c-0.3,0.1-0.7,0.3-1,0.5l-0.6-0.8
		c0.2-0.1,0.3-0.2,0.5-0.4c0.2-0.1,0.4-0.2,0.6-0.3c0.2-0.1,0.5-0.2,0.7-0.2c0.3,0,0.5-0.1,0.8-0.1c0.4,0,0.8,0.1,1.2,0.2
		c0.3,0.1,0.6,0.3,0.8,0.5c0.2,0.2,0.4,0.4,0.5,0.7C489.5,135.2,489.6,135.5,489.6,135.9z"/>
	<path d="M601.3,139.7v-2.2c0-0.2,0-0.5,0-0.7c0-0.3,0-0.5,0-0.7c0-0.2,0-0.5,0-0.7c0-0.2,0-0.4,0-0.5h-0.1c0,0.1-0.1,0.2-0.1,0.3
		c0,0.1-0.1,0.2-0.1,0.3c0,0.1-0.1,0.2-0.2,0.3c-0.1,0.1-0.1,0.2-0.1,0.2l-2.5,3.7H601.3z M603.7,140.7h-1.3v2h-1.1v-2h-4.2v-1
		l4.1-6h1.2v6h1.3V140.7z"/>
	<path d="M603.2,79.7h-5.6v-1l2.2-2.3c0.3-0.3,0.6-0.6,0.8-0.9c0.2-0.3,0.4-0.5,0.6-0.8c0.2-0.3,0.3-0.5,0.4-0.8
		c0.1-0.3,0.1-0.6,0.1-0.9c0-0.2,0-0.5-0.1-0.6s-0.2-0.3-0.3-0.5c-0.1-0.1-0.3-0.2-0.5-0.3c-0.2-0.1-0.4-0.1-0.6-0.1
		c-0.4,0-0.7,0.1-1.1,0.2c-0.3,0.2-0.6,0.4-0.9,0.6l-0.6-0.7c0.2-0.1,0.3-0.3,0.5-0.4c0.2-0.1,0.4-0.2,0.6-0.3
		c0.2-0.1,0.4-0.2,0.7-0.2c0.2-0.1,0.5-0.1,0.8-0.1c0.4,0,0.7,0.1,1.1,0.2c0.3,0.1,0.6,0.3,0.8,0.5c0.2,0.2,0.4,0.5,0.5,0.8
		c0.1,0.3,0.2,0.6,0.2,1c0,0.3-0.1,0.7-0.2,1c-0.1,0.3-0.3,0.6-0.4,0.9c-0.2,0.3-0.4,0.6-0.7,0.9c-0.3,0.3-0.5,0.6-0.9,1l-1.7,1.8v0
		h4.2V79.7z"/>
</g>
<g>
	<path class="st1" d="M124.4,64.3v-21h-0.7v21H124.4z M161.4,64h-37.3v0.7h37.3V64z M161,43.3v21h0.7v-21H161z M124.1,43.7h37.3V43
		h-37.3V43.7z M124.1,64.3h-0.3v0.3h0.3V64.3z M161.4,64.3v0.3h0.4v-0.3H161.4z M161.4,43.3h0.4V43h-0.4V43.3z M124.1,43.3V43h-0.3
		v0.3H124.1z"/>
	<path class="st1" d="M124.4,85.3v-21h-0.7v21H124.4z M161.4,85h-37.3v0.7h37.3V85z M161,64.3v21h0.7v-21H161z M124.1,64.7h37.3V64
		h-37.3V64.7z M124.1,85.3h-0.3v0.3h0.3V85.3z M161.4,85.3v0.3h0.4v-0.3H161.4z M161.4,64.3h0.4V64h-0.4V64.3z M124.1,64.3V64h-0.3
		v0.4H124.1z"/>
	<path class="st1" d="M161.7,64.3v-21H161v21H161.7z M198.7,64h-37.3v0.7h37.3V64z M198.4,43.3v21h0.7v-21H198.4z M161.4,43.7h37.3
		V43h-37.3V43.7z M161.4,64.3H161v0.3h0.3V64.3z M198.7,64.3v0.3h0.3v-0.3H198.7z M198.7,43.3h0.3V43h-0.3V43.3z M161.4,43.3V43H161
		v0.3H161.4z"/>
	<path class="st1" d="M161.7,85.3v-21H161v21H161.7z M198.7,85h-37.3v0.7h37.3V85z M198.4,64.3v21h0.7v-21H198.4z M161.4,64.7h37.3
		V64h-37.3V64.7z M161.4,85.3H161v0.3h0.3V85.3z M198.7,85.3v0.3h0.3v-0.3H198.7z M198.7,64.3h0.3V64h-0.3V64.3z M161.4,64.3V64H161
		v0.4H161.4z"/>
	<path class="st1" d="M124.4,106.3v-21h-0.7v21H124.4z M161.4,106h-37.3v0.7h37.3V106z M161,85.3v21h0.7v-21H161z M124.1,85.7h37.3
		V85h-37.3V85.7z M124.1,106.3h-0.3v0.3h0.3V106.3z M161.4,106.3v0.3h0.4v-0.3H161.4z M161.4,85.3h0.4V85h-0.4V85.3z M124.1,85.3V85
		h-0.3v0.3H124.1z"/>
	<path class="st1" d="M124.4,127.3v-21h-0.7v21H124.4z M161.4,127h-37.3v0.7h37.3V127z M161,106.3v21h0.7v-21H161z M124.1,106.7
		h37.3V106h-37.3V106.7z M124.1,127.3h-0.3v0.3h0.3V127.3z M161.4,127.3v0.3h0.4v-0.3H161.4z M161.4,106.3h0.4V106h-0.4V106.3z
		 M124.1,106.3V106h-0.3v0.3H124.1z"/>
	<path class="st1" d="M161.7,106.3v-21H161v21H161.7z M198.7,106h-37.3v0.7h37.3V106z M198.4,85.3v21h0.7v-21H198.4z M161.4,85.7
		h37.3V85h-37.3V85.7z M161.4,106.3H161v0.3h0.3V106.3z M198.7,106.3v0.3h0.3v-0.3H198.7z M198.7,85.3h0.3V85h-0.3V85.3z
		 M161.4,85.3V85H161v0.3H161.4z"/>
	<path class="st1" d="M161.7,127.3v-21H161v21H161.7z M198.7,127h-37.3v0.7h37.3V127z M198.4,106.3v21h0.7v-21H198.4z M161.4,106.7
		h37.3V106h-37.3V106.7z M161.4,127.3H161v0.3h0.3V127.3z M198.7,127.3v0.3h0.3v-0.3H198.7z M198.7,106.3h0.3V106h-0.3V106.3z
		 M161.4,106.3V106H161v0.3H161.4z"/>
	<path class="st1" d="M124.4,148.3v-21h-0.7v21H124.4z M161.4,148h-37.3v0.7h37.3V148z M161,127.3v21h0.7v-21H161z M124.1,127.7
		h37.3V127h-37.3V127.7z M124.1,148.3h-0.3v0.3h0.3V148.3z M161.4,148.3v0.3h0.4v-0.3H161.4z M161.4,127.3h0.4V127h-0.4V127.3z
		 M124.1,127.3V127h-0.3v0.3H124.1z"/>
	<path class="st1" d="M124.4,169.3v-21h-0.7v21H124.4z M161.4,169h-37.3v0.7h37.3V169z M161,148.3v21h0.7v-21H161z M124.1,148.7
		h37.3V148h-37.3V148.7z M124.1,169.3h-0.3v0.3h0.3V169.3z M161.4,169.3v0.3h0.4v-0.3H161.4z M161.4,148.3h0.4V148h-0.4V148.3z
		 M124.1,148.3V148h-0.3v0.4H124.1z"/>
	<path class="st1" d="M161.7,148.3v-21H161v21H161.7z M198.7,148h-37.3v0.7h37.3V148z M198.4,127.3v21h0.7v-21H198.4z M161.4,127.7
		h37.3V127h-37.3V127.7z M161.4,148.3H161v0.3h0.3V148.3z M198.7,148.3v0.3h0.3v-0.3H198.7z M198.7,127.3h0.3V127h-0.3V127.3z
		 M161.4,127.3V127H161v0.3H161.4z"/>
	<path class="st1" d="M161.7,169.3v-21H161v21H161.7z M198.7,169h-37.3v0.7h37.3V169z M198.4,148.3v21h0.7v-21H198.4z M161.4,148.7
		h37.3V148h-37.3V148.7z M161.4,169.3H161v0.3h0.3V169.3z M198.7,169.3v0.3h0.3v-0.3H198.7z M198.7,148.3h0.3V148h-0.3V148.3z
		 M161.4,148.3V148H161v0.4H161.4z"/>
	<path class="st1" d="M199.1,64.3v-21h-0.7v21H199.1z M236.1,64h-37.3v0.7h37.3V64z M235.7,43.3v21h0.7v-21H235.7z M198.7,43.7h37.3
		V43h-37.3V43.7z M198.7,64.3h-0.4v0.3h0.4V64.3z M236.1,64.3v0.3h0.3v-0.3H236.1z M236.1,43.3h0.3V43h-0.3V43.3z M198.7,43.3V43
		h-0.4v0.3H198.7z"/>
	<path class="st1" d="M199.1,85.3v-21h-0.7v21H199.1z M236.1,85h-37.3v0.7h37.3V85z M235.7,64.3v21h0.7v-21H235.7z M198.7,64.7h37.3
		V64h-37.3V64.7z M198.7,85.3h-0.4v0.3h0.4V85.3z M236.1,85.3v0.3h0.3v-0.3H236.1z M236.1,64.3h0.3V64h-0.3V64.3z M198.7,64.3V64
		h-0.4v0.4H198.7z"/>
	<path class="st1" d="M236.4,64.3v-21h-0.7v21H236.4z M273.4,64h-37.3v0.7h37.3V64z M273,43.3v21h0.7v-21H273z M236.1,43.7h37.3V43
		h-37.3V43.7z M236.1,64.3h-0.4v0.3h0.4V64.3z M273.4,64.3v0.3h0.4v-0.3H273.4z M273.4,43.3h0.4V43h-0.4V43.3z M236.1,43.3V43h-0.4
		v0.3H236.1z"/>
	<path class="st1" d="M236.4,85.3v-21h-0.7v21H236.4z M273.4,85h-37.3v0.7h37.3V85z M273,64.3v21h0.7v-21H273z M236.1,64.7h37.3V64
		h-37.3V64.7z M236.1,85.3h-0.4v0.3h0.4V85.3z M273.4,85.3v0.3h0.4v-0.3H273.4z M273.4,64.3h0.4V64h-0.4V64.3z M236.1,64.3V64h-0.4
		v0.4H236.1z"/>
	<path class="st1" d="M199.1,148.3v-21h-0.7v21H199.1z M236.1,148h-37.3v0.7h37.3V148z M235.7,127.3v21h0.7v-21H235.7z M198.7,127.7
		h37.3V127h-37.3V127.7z M198.7,148.3h-0.4v0.3h0.4V148.3z M236.1,148.3v0.3h0.3v-0.3H236.1z M236.1,127.3h0.3V127h-0.3V127.3z
		 M198.7,127.3V127h-0.4v0.3H198.7z"/>
	<path class="st1" d="M199.1,169.3v-21h-0.7v21H199.1z M236.1,169h-37.3v0.7h37.3V169z M235.7,148.3v21h0.7v-21H235.7z M198.7,148.7
		h37.3V148h-37.3V148.7z M198.7,169.3h-0.4v0.3h0.4V169.3z M236.1,169.3v0.3h0.3v-0.3H236.1z M236.1,148.3h0.3V148h-0.3V148.3z
		 M198.7,148.3V148h-0.4v0.4H198.7z"/>
	<path class="st1" d="M236.4,148.3v-21h-0.7v21H236.4z M273.4,148h-37.3v0.7h37.3V148z M273,127.3v21h0.7v-21H273z M236.1,127.7
		h37.3V127h-37.3V127.7z M236.1,148.3h-0.4v0.3h0.4V148.3z M273.4,148.3v0.3h0.4v-0.3H273.4z M273.4,127.3h0.4V127h-0.4V127.3z
		 M236.1,127.3V127h-0.4v0.3H236.1z"/>
	<path class="st1" d="M236.4,169.3v-21h-0.7v21H236.4z M273.4,169h-37.3v0.7h37.3V169z M273,148.3v21h0.7v-21H273z M236.1,148.7
		h37.3V148h-37.3V148.7z M236.1,169.3h-0.4v0.3h0.4V169.3z M273.4,169.3v0.3h0.4v-0.3H273.4z M273.4,148.3h0.4V148h-0.4V148.3z
		 M236.1,148.3V148h-0.4v0.4H236.1z"/>
	<path class="st1" d="M273.7,64.3v-21H273v21H273.7z M310.7,64h-37.3v0.7h37.3V64z M310.4,43.3v21h0.7v-21H310.4z M273.4,43.7h37.3
		V43h-37.3V43.7z M273.4,64.3H273v0.3h0.4V64.3z M310.7,64.3v0.3h0.4v-0.3H310.7z M310.7,43.3h0.4V43h-0.4V43.3z M273.4,43.3V43H273
		v0.3H273.4z"/>
	<path class="st2" d="M273.7,85.3v-21H273v21H273.7z M310.7,85h-37.3v0.7h37.3V85z M310.4,64.3v21h0.7v-21H310.4z M273.4,64.7h37.3
		V64h-37.3V64.7z M273.4,85.3H273v0.3h0.4V85.3z M310.7,85.3v0.3h0.4v-0.3H310.7z M310.7,64.3h0.4V64h-0.4V64.3z M273.4,64.3V64H273
		v0.4H273.4z"/>
	<path class="st2" d="M311.1,64.3v-21h-0.7v21H311.1z M348.1,64h-37.3v0.7h37.3V64z M347.7,43.3v21h0.7v-21H347.7z M310.7,43.7h37.3
		V43h-37.3V43.7z M310.7,64.3h-0.4v0.3h0.4V64.3z M348.1,64.3v0.3h0.4v-0.3H348.1z M348.1,43.3h0.4V43h-0.4V43.3z M310.7,43.3V43
		h-0.4v0.3H310.7z"/>
	<path class="st1" d="M311.1,85.3v-21h-0.7v21H311.1z M348.1,85h-37.3v0.7h37.3V85z M347.7,64.3v21h0.7v-21H347.7z M310.7,64.7h37.3
		V64h-37.3V64.7z M310.7,85.3h-0.4v0.3h0.4V85.3z M348.1,85.3v0.3h0.4v-0.3H348.1z M348.1,64.3h0.4V64h-0.4V64.3z M310.7,64.3V64
		h-0.4v0.4H310.7z"/>
	<path class="st1" d="M273.7,106.3v-21H273v21H273.7z M310.7,106h-37.3v0.7h37.3V106z M310.4,85.3v21h0.7v-21H310.4z M273.4,85.7
		h37.3V85h-37.3V85.7z M273.4,106.3H273v0.3h0.4V106.3z M310.7,106.3v0.3h0.4v-0.3H310.7z M310.7,85.3h0.4V85h-0.4V85.3z
		 M273.4,85.3V85H273v0.3H273.4z"/>
	<path class="st1" d="M273.7,127.3v-21H273v21H273.7z M310.7,127h-37.3v0.7h37.3V127z M310.4,106.3v21h0.7v-21H310.4z M273.4,106.7
		h37.3V106h-37.3V106.7z M273.4,127.3H273v0.3h0.4V127.3z M310.7,127.3v0.3h0.4v-0.3H310.7z M310.7,106.3h0.4V106h-0.4V106.3z
		 M273.4,106.3V106H273v0.3H273.4z"/>
	<path class="st1" d="M311.1,106.3v-21h-0.7v21H311.1z M348.1,106h-37.3v0.7h37.3V106z M347.7,85.3v21h0.7v-21H347.7z M310.7,85.7
		h37.3V85h-37.3V85.7z M310.7,106.3h-0.4v0.3h0.4V106.3z M348.1,106.3v0.3h0.4v-0.3H348.1z M348.1,85.3h0.4V85h-0.4V85.3z
		 M310.7,85.3V85h-0.4v0.3H310.7z"/>
	<path class="st1" d="M311.1,127.3v-21h-0.7v21H311.1z M348.1,127h-37.3v0.7h37.3V127z M347.7,106.3v21h0.7v-21H347.7z M310.7,106.7
		h37.3V106h-37.3V106.7z M310.7,127.3h-0.4v0.3h0.4V127.3z M348.1,127.3v0.3h0.4v-0.3H348.1z M348.1,106.3h0.4V106h-0.4V106.3z
		 M310.7,106.3V106h-0.4v0.3H310.7z"/>
	<path class="st1" d="M273.7,148.3v-21H273v21H273.7z M310.7,148h-37.3v0.7h37.3V148z M310.4,127.3v21h0.7v-21H310.4z M273.4,127.7
		h37.3V127h-37.3V127.7z M273.4,148.3H273v0.3h0.4V148.3z M310.7,148.3v0.3h0.4v-0.3H310.7z M310.7,127.3h0.4V127h-0.4V127.3z
		 M273.4,127.3V127H273v0.3H273.4z"/>
	<path class="st1" d="M273.7,169.3v-21H273v21H273.7z M310.7,169h-37.3v0.7h37.3V169z M310.4,148.3v21h0.7v-21H310.4z M273.4,148.7
		h37.3V148h-37.3V148.7z M273.4,169.3H273v0.3h0.4V169.3z M310.7,169.3v0.3h0.4v-0.3H310.7z M310.7,148.3h0.4V148h-0.4V148.3z
		 M273.4,148.3V148H273v0.4H273.4z"/>
	<path class="st1" d="M311.1,148.3v-21h-0.7v21H311.1z M348.1,148h-37.3v0.7h37.3V148z M347.7,127.3v21h0.7v-21H347.7z M310.7,127.7
		h37.3V127h-37.3V127.7z M310.7,148.3h-0.4v0.3h0.4V148.3z M348.1,148.3v0.3h0.4v-0.3H348.1z M348.1,127.3h0.4V127h-0.4V127.3z
		 M310.7,127.3V127h-0.4v0.3H310.7z"/>
	<path class="st1" d="M311.1,169.3v-21h-0.7v21H311.1z M348.1,169h-37.3v0.7h37.3V169z M347.7,148.3v21h0.7v-21H347.7z M310.7,148.7
		h37.3V148h-37.3V148.7z M310.7,169.3h-0.4v0.3h0.4V169.3z M348.1,169.3v0.3h0.4v-0.3H348.1z M348.1,148.3h0.4V148h-0.4V148.3z
		 M310.7,148.3V148h-0.4v0.4H310.7z"/>
	<rect x="198.7" y="85.3" class="st0" width="37.3" height="21"/>
	<path class="st3" d="M199.1,106.3v-21h-0.7v21H199.1z M236.1,106h-37.3v0.7h37.3V106z M235.7,85.3v21h0.7v-21H235.7z M198.7,85.7
		h37.3V85h-37.3V85.7z M198.7,106.3h-0.4v0.3h0.4V106.3z M236.1,106.3v0.3h0.3v-0.3H236.1z M236.1,85.3h0.3V85h-0.3V85.3z
		 M198.7,85.3V85h-0.4v0.3H198.7z"/>
	<rect x="198.7" y="106.3" class="st0" width="37.3" height="21"/>
	<path class="st3" d="M199.1,127.3v-21h-0.7v21H199.1z M236.1,127h-37.3v0.7h37.3V127z M235.7,106.3v21h0.7v-21H235.7z M198.7,106.7
		h37.3V106h-37.3V106.7z M198.7,127.3h-0.4v0.3h0.4V127.3z M236.1,127.3v0.3h0.3v-0.3H236.1z M236.1,106.3h0.3V106h-0.3V106.3z
		 M198.7,106.3V106h-0.4v0.3H198.7z"/>
	<rect x="236.1" y="85.3" class="st0" width="37.3" height="21"/>
	<path class="st3" d="M236.4,106.3v-21h-0.7v21H236.4z M273.4,106h-37.3v0.7h37.3V106z M273,85.3v21h0.7v-21H273z M236.1,85.7h37.3
		V85h-37.3V85.7z M236.1,106.3h-0.4v0.3h0.4V106.3z M273.4,106.3v0.3h0.4v-0.3H273.4z M273.4,85.3h0.4V85h-0.4V85.3z M236.1,85.3V85
		h-0.4v0.3H236.1z"/>
	<rect x="236.1" y="106.3" class="st0" width="37.3" height="21"/>
	<path class="st3" d="M236.4,127.3v-21h-0.7v21H236.4z M273.4,127h-37.3v0.7h37.3V127z M273,106.3v21h0.7v-21H273z M236.1,106.7
		h37.3V106h-37.3V106.7z M236.1,127.3h-0.4v0.3h0.4V127.3z M273.4,127.3v0.3h0.4v-0.3H273.4z M273.4,106.3h0.4V106h-0.4V106.3z
		 M236.1,106.3V106h-0.4v0.3H236.1z"/>
	<path d="M218.3,100.5h-1.1v-5.6c0-0.2,0-0.4,0-0.6c0-0.2,0-0.4,0-0.6c0-0.2,0-0.4,0-0.6c0-0.2,0-0.3,0-0.5
		c-0.1,0.1-0.1,0.1-0.2,0.2S217,93,216.9,93c-0.1,0-0.1,0.1-0.2,0.2c-0.1,0.1-0.1,0.1-0.2,0.2l-0.9,0.7l-0.6-0.8l2.4-1.8h0.9V100.5z
		"/>
	<path d="M219.8,114.6c0,0.3,0,0.6-0.1,0.8s-0.2,0.5-0.4,0.6c-0.2,0.2-0.4,0.3-0.6,0.4c-0.2,0.1-0.5,0.2-0.8,0.2v0
		c0.7,0.1,1.3,0.3,1.7,0.7c0.4,0.4,0.6,0.9,0.6,1.4c0,0.4-0.1,0.8-0.2,1.1c-0.1,0.3-0.3,0.6-0.6,0.8c-0.3,0.2-0.6,0.4-1,0.6
		c-0.4,0.1-0.9,0.2-1.5,0.2c-0.4,0-0.9,0-1.3-0.1c-0.4-0.1-0.8-0.2-1.1-0.4v-1c0.4,0.2,0.7,0.3,1.2,0.4c0.4,0.1,0.8,0.2,1.2,0.2
		c0.4,0,0.7,0,1-0.1c0.3-0.1,0.5-0.2,0.7-0.4c0.2-0.2,0.3-0.3,0.4-0.6c0.1-0.2,0.1-0.5,0.1-0.7c0-0.3-0.1-0.5-0.2-0.7
		c-0.1-0.2-0.3-0.4-0.5-0.5c-0.2-0.1-0.4-0.2-0.7-0.3c-0.3-0.1-0.6-0.1-1-0.1h-0.8v-0.9h0.8c0.3,0,0.6,0,0.9-0.1
		c0.3-0.1,0.5-0.2,0.6-0.4c0.2-0.2,0.3-0.3,0.4-0.5c0.1-0.2,0.1-0.4,0.1-0.7c0-0.2,0-0.4-0.1-0.6c-0.1-0.2-0.2-0.3-0.3-0.4
		c-0.1-0.1-0.3-0.2-0.5-0.3c-0.2-0.1-0.4-0.1-0.6-0.1c-0.4,0-0.8,0.1-1.2,0.2c-0.3,0.1-0.7,0.3-1,0.5l-0.6-0.8
		c0.2-0.1,0.3-0.2,0.5-0.4c0.2-0.1,0.4-0.2,0.6-0.3c0.2-0.1,0.5-0.2,0.7-0.2c0.3,0,0.5-0.1,0.8-0.1c0.4,0,0.8,0.1,1.2,0.2
		c0.3,0.1,0.6,0.3,0.8,0.5c0.2,0.2,0.4,0.4,0.5,0.7C219.8,114,219.8,114.3,219.8,114.6z"/>
	<path d="M256,118.5v-2.2c0-0.2,0-0.5,0-0.7c0-0.3,0-0.5,0-0.7c0-0.2,0-0.5,0-0.7c0-0.2,0-0.4,0-0.5H256c0,0.1-0.1,0.2-0.1,0.3
		c0,0.1-0.1,0.2-0.1,0.3c0,0.1-0.1,0.2-0.2,0.3c-0.1,0.1-0.1,0.2-0.1,0.2l-2.5,3.7H256z M258.4,119.5h-1.3v2H256v-2h-4.2v-1l4.1-6
		h1.2v6h1.3V119.5z"/>
	<path d="M257.9,100.5h-5.6v-1l2.2-2.3c0.3-0.3,0.6-0.6,0.8-0.9c0.2-0.3,0.4-0.5,0.6-0.8c0.2-0.3,0.3-0.5,0.4-0.8
		c0.1-0.3,0.1-0.6,0.1-0.9c0-0.2,0-0.5-0.1-0.6c-0.1-0.2-0.2-0.3-0.3-0.5c-0.1-0.1-0.3-0.2-0.5-0.3c-0.2-0.1-0.4-0.1-0.6-0.1
		c-0.4,0-0.7,0.1-1.1,0.2c-0.3,0.2-0.6,0.4-0.9,0.6l-0.6-0.7c0.2-0.1,0.3-0.3,0.5-0.4c0.2-0.1,0.4-0.2,0.6-0.3
		c0.2-0.1,0.4-0.2,0.7-0.2c0.2-0.1,0.5-0.1,0.8-0.1c0.4,0,0.7,0.1,1.1,0.2c0.3,0.1,0.6,0.3,0.8,0.5c0.2,0.2,0.4,0.5,0.5,0.8
		c0.1,0.3,0.2,0.6,0.2,1c0,0.3-0.1,0.7-0.2,1c-0.1,0.3-0.3,0.6-0.4,0.9c-0.2,0.3-0.4,0.6-0.7,0.9c-0.3,0.3-0.5,0.6-0.9,1l-1.7,1.8v0
		h4.2V100.5z"/>
	<path d="M124.4,169.3v-126h-0.7v126H124.4z M348.1,169h-224v0.7h224V169z M347.7,43.3v126h0.7v-126H347.7z M124.1,43.7h224V43h-224
		V43.7z M124.1,169.3h-0.3v0.3h0.3V169.3z M348.1,169.3v0.3h0.4v-0.3H348.1z M348.1,43.3h0.4V43h-0.4V43.3z M124.1,43.3V43h-0.3v0.3
		H124.1z"/>
	<rect x="290.5" y="46.1" width="54" height="14"/>
	<g>
		<defs>
			<rect id="SVGID_1_" x="290.5" y="46.1" width="54" height="14"/>
		</defs>
		<clipPath id="SVGID_00000131352274104342140020000003922798371015497889_">
			<use xlink:href="#SVGID_1_"  style="overflow:visible;"/>
		</clipPath>
		<path style="clip-path:url(#SVGID_00000131352274104342140020000003922798371015497889_);fill:#E2700E;" d="M291.3,60.1v-14h-1.7
			v14H291.3z M344.5,59.4h-54v1.4h54V59.4z M343.6,46.1v14h1.7v-14H343.6z M290.5,46.8h54v-1.4h-54V46.8z M290.5,60.1h-0.9v0.7h0.9
			V60.1z M344.5,60.1v0.7h0.9v-0.7H344.5z M344.5,46.1h0.9v-0.7h-0.9V46.1z M290.5,46.1v-0.7h-0.9v0.7H290.5z"/>
	</g>
	<path class="st1" d="M337.1,55.5c0.1,0,0.2,0,0.3,0c0.1,0,0.2,0,0.3-0.1v0.5c-0.1,0-0.2,0.1-0.3,0.1c-0.1,0-0.3,0-0.4,0
		c-0.8,0-1.2-0.4-1.2-1.3v-2.4h-0.6v-0.3l0.6-0.3l0.3-0.9h0.4v0.9h1.2v0.5h-1.2v2.3c0,0.2,0.1,0.4,0.2,0.5
		C336.7,55.4,336.9,55.5,337.1,55.5z M333.7,50.8c0-0.1,0-0.3,0.1-0.3c0.1-0.1,0.2-0.1,0.3-0.1c0.1,0,0.2,0,0.3,0.1
		c0.1,0.1,0.1,0.2,0.1,0.3c0,0.1,0,0.3-0.1,0.3c-0.1,0.1-0.2,0.1-0.3,0.1c-0.1,0-0.2,0-0.3-0.1C333.8,51,333.7,50.9,333.7,50.8z
		 M334.5,55.9h-0.7v-4.1h0.7V55.9z M333.1,52.4h-1v3.5h-0.7v-3.5h-0.7v-0.3l0.7-0.2v-0.2c0-0.5,0.1-0.9,0.3-1.1
		c0.2-0.2,0.6-0.4,1-0.4c0.3,0,0.5,0,0.8,0.1l-0.2,0.5c-0.2-0.1-0.4-0.1-0.6-0.1c-0.2,0-0.4,0.1-0.5,0.2s-0.2,0.4-0.2,0.7v0.3h1
		V52.4z M327.1,53.9c0,0.5,0.1,0.9,0.3,1.2c0.2,0.3,0.5,0.4,0.9,0.4c0.4,0,0.7-0.1,0.9-0.4c0.2-0.3,0.3-0.7,0.3-1.2
		c0-0.5-0.1-0.9-0.3-1.2c-0.2-0.3-0.5-0.4-0.9-0.4C327.4,52.4,327.1,52.9,327.1,53.9z M330.1,53.9c0,0.7-0.2,1.2-0.5,1.6
		c-0.3,0.4-0.8,0.6-1.4,0.6c-0.4,0-0.7-0.1-1-0.3c-0.3-0.2-0.5-0.4-0.7-0.7c-0.2-0.3-0.2-0.7-0.2-1.1c0-0.7,0.2-1.2,0.5-1.5
		c0.3-0.4,0.8-0.6,1.4-0.6c0.6,0,1,0.2,1.4,0.6C330,52.7,330.1,53.2,330.1,53.9z M325.2,55.5c0.1,0,0.2,0,0.3,0c0.1,0,0.2,0,0.3-0.1
		v0.5c-0.1,0-0.2,0.1-0.3,0.1c-0.1,0-0.3,0-0.4,0c-0.8,0-1.2-0.4-1.2-1.3v-2.4h-0.6v-0.3l0.6-0.3l0.3-0.9h0.4v0.9h1.2v0.5h-1.2v2.3
		c0,0.2,0.1,0.4,0.2,0.5C324.9,55.4,325,55.5,325.2,55.5z M319.8,51.9v2.6c0,0.3,0.1,0.6,0.2,0.7c0.1,0.2,0.4,0.2,0.7,0.2
		c0.4,0,0.7-0.1,0.9-0.3c0.2-0.2,0.3-0.6,0.3-1.1v-2.1h0.7v4.1H322l-0.1-0.5h0c-0.1,0.2-0.3,0.3-0.5,0.5c-0.2,0.1-0.5,0.2-0.8,0.2
		c-0.5,0-0.9-0.1-1.1-0.4c-0.2-0.2-0.4-0.6-0.4-1.1v-2.7H319.8z M316.9,53.7l-0.6-1.6l-0.3-0.8c-0.1,0.3-0.2,0.6-0.2,0.8l-0.6,1.6
		H316.9z M317.8,55.9l-0.7-1.7H315l-0.6,1.7h-0.7l2.1-5.4h0.6l2.1,5.4H317.8z"/>
	<g>
		<defs>
			<rect id="SVGID_00000106136904281124038950000007933940985914239672_" x="267.7" y="121.9" width="13.7" height="13.7"/>
		</defs>
		<clipPath id="SVGID_00000062158072865986320820000009648305513366534588_">
			<use xlink:href="#SVGID_00000106136904281124038950000007933940985914239672_"  style="overflow:visible;"/>
		</clipPath>
		
			<g transform="matrix(1 0 0 1 0 -7.629395e-06)" style="clip-path:url(#SVGID_00000062158072865986320820000009648305513366534588_);">
			
				<image style="overflow:visible;" width="39" height="39" xlink:href="A8E3129D.png"  transform="matrix(0.3519 0 0 0.352 267.7044 121.8817)">
			</image>
		</g>
	</g>
	<path d="M276.6,129.1l3.6,3.6l-1,1l-3.6-3.6c-0.7,0.5-1.5,0.8-2.4,0.8c-2.3,0-4.2-1.9-4.2-4.2c0-2.3,1.9-4.2,4.2-4.2
		c2.3,0,4.2,1.9,4.2,4.2C277.4,127.5,277.1,128.4,276.6,129.1z"/>
	<circle class="st5" cx="273.2" cy="126.6" r="3.5"/>
	<rect x="271.1" y="126" width="4.2" height="1.4"/>
	<g>
		<rect x="297.3" y="49.9" class="st6" width="8.1" height="6.6"/>
		<polyline class="st7" points="298.3,51.4 298.8,51.4 298.8,50.8 		"/>
		<polyline class="st7" points="298.3,54.8 298.8,54.8 298.8,55.4 		"/>
		<polyline class="st7" points="304.4,54.8 303.8,54.8 303.8,55.4 		"/>
		<polyline class="st7" points="304.4,51.4 303.8,51.4 303.8,50.8 		"/>
	</g>
</g>
<g>
	<path d="M223.1,194.9v1.6h3.6v4h-8.4v-4h3.6v-1.6h-5V194h11.1v0.9H223.1z M217.6,192.4c2.2-0.2,4.1-1.3,4.2-2.7H218v-0.9h9.1v0.9
		h-3.8c0.1,1.4,2.1,2.4,4.2,2.7l-0.4,0.9c-2-0.2-3.9-1.2-4.6-2.5c-0.7,1.4-2.5,2.3-4.6,2.5L217.6,192.4z M225.6,197.4h-6.2v2.2h6.2
		V197.4z"/>
	<path d="M239.8,193.6c0,2.6-1.3,4.3-3.1,4.3c-1.8,0-3.1-1.7-3.1-4.3s1.3-4.3,3.1-4.3C238.5,189.3,239.8,190.9,239.8,193.6z
		 M238.7,193.6c0-2-0.8-3.3-2-3.3c-1.2,0-2,1.3-2,3.3c0,2,0.8,3.3,2,3.3C237.9,196.9,238.7,195.6,238.7,193.6z M245,194.2h-2v6.5
		h-1.1v-12.3h1.1v4.9h2V194.2z"/>
	<path d="M257.3,194v0.9h-5.1v1.4h-1.1v-1.4h-5V194H257.3z M252.2,197.2c0,1.3,1.9,2.3,4.2,2.6l-0.4,0.9c-1.9-0.2-3.6-1-4.4-2.1
		c-0.7,1.2-2.5,1.9-4.4,2.1l-0.4-0.9c2.2-0.2,4.2-1.2,4.2-2.6v-0.4h1.2V197.2z M247.3,190.8c0-1.4,1.6-2.3,4.3-2.3
		c2.7,0,4.3,0.8,4.3,2.3c0,1.4-1.6,2.3-4.3,2.3C249,193,247.3,192.2,247.3,190.8z M248.5,190.8c0,0.9,1.2,1.4,3.2,1.4
		c2,0,3.2-0.5,3.2-1.4c0-0.9-1.2-1.4-3.2-1.4C249.7,189.4,248.5,189.9,248.5,190.8z"/>
</g>
<g>
	<path d="M512.2,196.6h-3.7l-1,3.1h-1.3l3.4-10.1h1.4l3.4,10.1h-1.3L512.2,196.6z M511.9,195.5l-0.5-1.5c-0.4-1.1-0.7-2.2-1-3.4
		h-0.1c-0.3,1.2-0.6,2.3-1,3.4l-0.5,1.5H511.9z"/>
	<path d="M515.6,196.9v-4.7h1.3v4.6c0,1.4,0.4,2,1.4,2c0.8,0,1.3-0.4,2-1.3v-5.3h1.3v7.5h-1l-0.1-1.2h0c-0.7,0.8-1.4,1.3-2.5,1.3
		C516.3,199.8,515.6,198.8,515.6,196.9z"/>
	<path d="M524.3,197.3v-4.1h-1.1v-0.9l1.2-0.1l0.2-2.1h1v2.1h2v1h-2v4.2c0,0.9,0.3,1.4,1.2,1.4c0.3,0,0.6-0.1,0.9-0.2l0.2,0.9
		c-0.4,0.1-0.9,0.3-1.4,0.3C524.8,199.8,524.3,198.8,524.3,197.3z"/>
	<path d="M528.5,195.9c0-2.5,1.6-3.9,3.5-3.9c1.8,0,3.5,1.4,3.5,3.9c0,2.5-1.6,3.9-3.5,3.9C530.1,199.8,528.5,198.4,528.5,195.9z
		 M534.1,195.9c0-1.7-0.9-2.9-2.2-2.9s-2.2,1.2-2.2,2.9c0,1.7,0.9,2.9,2.2,2.9S534.1,197.6,534.1,195.9z"/>
	<path d="M537.6,191c0-1.5,0.7-2.5,2.2-2.5c0.5,0,0.9,0.1,1.3,0.2l-0.3,0.9c-0.3-0.1-0.6-0.2-0.8-0.2c-0.7,0-1.1,0.5-1.1,1.5v1.2
		h1.6v1h-1.6v6.4h-1.3v-6.4h-1v-0.9l1-0.1V191z M543.6,189.8c0,0.5-0.4,0.8-0.9,0.8c-0.5,0-0.9-0.3-0.9-0.8c0-0.5,0.4-0.8,0.9-0.8
		C543.2,189,543.6,189.3,543.6,189.8z M542.1,192.2h1.3v7.5h-1.3V192.2z"/>
	<path d="M546.1,197.3v-4.1H545v-0.9l1.2-0.1l0.2-2.1h1v2.1h2v1h-2v4.2c0,0.9,0.3,1.4,1.2,1.4c0.3,0,0.6-0.1,0.9-0.2l0.2,0.9
		c-0.4,0.1-0.9,0.3-1.4,0.3C546.7,199.8,546.1,198.8,546.1,197.3z"/>
	<path d="M560.5,194.4c-1.4-0.5-2.5-1.5-3.1-2.8c-0.5,1.4-1.7,2.5-3.1,3.1l-0.6-0.9c1.9-0.6,3.1-2.3,3.1-4.1v-0.9h1.1v0.9
		c0,1.7,1.3,3.2,3.1,3.8L560.5,194.4z M564.2,199.6v0.9h-8.4v-3.1h6.8v-1.2h-6.9v-0.9h8v3h-6.8v1.3H564.2z M563.7,194.7h-1.1v-6.4
		h1.1V194.7z"/>
	<path d="M572.5,190.7h-6.3v-0.9h2.6v-1.4h1.1v1.4h2.6V190.7z M569.3,195.6c-1.6,0-2.6-0.8-2.6-2.1c0-1.3,1.1-2.1,2.6-2.1
		c1.6,0,2.6,0.8,2.6,2.1C572,194.7,570.9,195.6,569.3,195.6z M569.3,194.7c1,0,1.6-0.5,1.6-1.3c0-0.8-0.7-1.3-1.6-1.3
		c-1,0-1.6,0.5-1.6,1.3C567.7,194.2,568.4,194.7,569.3,194.7z M576.7,198.5c0,1.4-1.6,2.1-4.1,2.1c-2.6,0-4.1-0.8-4.1-2.1
		c0-1.4,1.6-2.2,4.1-2.2C575.2,196.3,576.7,197.1,576.7,198.5z M575.6,198.5c0-0.8-1.1-1.3-3-1.3c-1.9,0-3,0.5-3,1.3
		c0,0.8,1.1,1.3,3,1.3C574.5,199.8,575.6,199.3,575.6,198.5z M574,195.7H573v-7.1h1.1v3.1h1.6v-3.4h1.1v7.8h-1.1v-3.5H574V195.7z"/>
</g>
</svg>
