<?xml version="1.0" encoding="utf-8"?>
<!-- Generator: Adobe Illustrator 26.0.2, SVG Export Plug-In . SVG Version: 6.00 Build 0)  -->
<svg version="1.1" id="레이어_1" xmlns="http://www.w3.org/2000/svg" xmlns:xlink="http://www.w3.org/1999/xlink" x="0px"
	 y="0px" viewBox="0 0 30 30" style="enable-background:new 0 0 30 30;" xml:space="preserve">
<style type="text/css">
	.st0{fill:none;stroke:#231815;stroke-width:1.5;}
</style>
<path class="st0" d="M23.25,15c0,0.22,0,0.55,0,0.77l1.88,1.44c0.11,0.11,0.22,0.22,0.22,0.33c0,0.11,0,0.22-0.11,0.33l-2.43,4.09
	c-0.11,0.22-0.44,0.33-0.66,0.22l-2.21-0.88c-0.44,0.33-0.88,0.55-1.33,0.77l-0.33,2.43c0,0.11-0.11,0.22-0.22,0.33
	c-0.11,0.11-0.22,0.11-0.33,0.11h-4.75c-0.22,0-0.55-0.22-0.55-0.44l-0.33-2.32c-0.44-0.22-0.88-0.44-1.33-0.77l-2.21,0.88
	c-0.22,0.11-0.55,0-0.66-0.22l-2.43-4.09c-0.11-0.11-0.11-0.22-0.11-0.33c0-0.11,0.11-0.22,0.22-0.33l1.88-1.44
	c0-0.33,0-0.55,0-0.77s0-0.55,0-0.77l-1.88-1.55c-0.11-0.11-0.22-0.22-0.22-0.33s0-0.22,0.11-0.33l2.43-4.09
	C8,7.93,8.11,7.82,8.22,7.82c0.11,0,0.22,0,0.33,0l2.21,0.88c0.44-0.33,0.88-0.55,1.44-0.77l0.33-2.32c0-0.11,0.11-0.22,0.22-0.33
	c-0.11-0.22,0.11-0.22,0.22-0.22h4.75c0.11,0,0.22,0,0.33,0.11c0.11,0.11,0.22,0.22,0.22,0.33l0.33,2.32
	c0.44,0.22,0.99,0.44,1.44,0.77l2.21-0.88c0.22-0.11,0.55,0,0.66,0.22l2.32,4.09c0.11,0.11,0.11,0.22,0.11,0.33
	c0,0.11-0.11,0.22-0.22,0.33l-1.88,1.44C23.25,14.45,23.25,14.78,23.25,15z"/>
<path class="st0" d="M13.42,13.01c0.55-0.55,1.22-0.77,1.99-0.77s1.44,0.33,1.99,0.77c0.55,0.44,0.77,1.22,0.77,1.99
	s-0.33,1.44-0.77,1.99s-1.22,0.77-1.99,0.77s-1.44-0.33-1.99-0.77c-0.55-0.44-0.77-1.22-0.77-1.99
	C12.53,14.23,12.86,13.56,13.42,13.01z"/>
</svg>
