<?xml version="1.0" encoding="utf-8"?>
<!-- Generator: Adobe Illustrator 26.0.2, SVG Export Plug-In . SVG Version: 6.00 Build 0)  -->
<svg version="1.1" id="레이어_1" xmlns="http://www.w3.org/2000/svg" xmlns:xlink="http://www.w3.org/1999/xlink" x="0px"
	 y="0px" viewBox="0 0 20 20" style="enable-background:new 0 0 20 20;" xml:space="preserve">
<style type="text/css">
	.st0{fill:none;stroke:#231815;stroke-width:1.5;stroke-linecap:round;stroke-linejoin:round;}
	.st1{fill:#231815;}
</style>
<path class="st0" d="M18.55,4.97c-0.14-0.15-0.31-0.27-0.5-0.35c-0.19-0.08-0.39-0.12-0.59-0.12H6.32c-0.2,0-0.41,0.04-0.59,0.12
	c-0.19,0.08-0.36,0.2-0.5,0.35S4.97,5.29,4.9,5.48s-0.12,0.39-0.12,0.6l0,0v0v0.98L1.81,4.71C1.66,4.59,1.46,4.57,1.28,4.65
	S1,4.91,1,5.1v11c0,0.19,0.11,0.37,0.28,0.45c0.17,0.08,0.38,0.06,0.53-0.06l2.97-2.32v0.74l0,0v0c0,0.2,0.04,0.41,0.12,0.6
	s0.19,0.36,0.33,0.51s0.31,0.27,0.5,0.35s0.39,0.12,0.59,0.12h11.14c0.2,0,0.41-0.04,0.59-0.12c0.19-0.08,0.36-0.2,0.5-0.35
	c0.14-0.15,0.25-0.32,0.33-0.51S19,15.13,19,14.92l0,0v0V6.08v0c0-0.2-0.04-0.41-0.12-0.6S18.69,5.11,18.55,4.97z"/>
<path class="st1" d="M12.73,12.01h-2.48L9.74,13.5H8.58L11,7.1h1l2.42,6.4h-1.16L12.73,12.01z M10.57,11.11h1.85l-0.93-2.65
	L10.57,11.11z"/>
</svg>
