<?xml version="1.0" encoding="utf-8"?>
<!-- Generator: Adobe Illustrator 26.0.2, SVG Export Plug-In . SVG Version: 6.00 Build 0)  -->
<svg version="1.1" id="레이어_1" xmlns="http://www.w3.org/2000/svg" xmlns:xlink="http://www.w3.org/1999/xlink" x="0px"
	 y="0px" viewBox="0 0 30 30" style="enable-background:new 0 0 30 30;" xml:space="preserve">
<style type="text/css">
	.st0{fill:none;stroke:#231815;stroke-width:1.5;stroke-miterlimit:10;}
	.st1{fill:none;stroke:#231815;stroke-width:1.5;stroke-linejoin:round;stroke-miterlimit:10;}
	.st2{fill:none;stroke:#231815;stroke-width:1.5;stroke-linejoin:round;}
</style>
<path class="st0" d="M15,24H6.5c-0.7,0-1.2-0.6-1.2-1.1L6,19.7c0-0.7,0.5-1.1,1.2-1.1h6.9"/>
<path class="st1" d="M7.5,18.2v-6c0-3.9,3.3-7,7.5-7s7.5,3.1,7.5,7v0.6"/>
<path class="st2" d="M25.6,19.6c0,1-0.3,1.9-0.8,2.5c-0.6,0.8-1.3,1.4-2.2,1.8c-0.9,0.3-1.9,0.4-2.7,0.2c-0.9-0.2-1.8-0.7-2.3-1.3
	c-0.7-0.7-1.1-1.5-1.3-2.3c-0.2-0.9-0.1-1.9,0.2-2.7c0.3-0.9,1-1.7,1.8-2.2c0.8-0.6,1.8-0.8,2.5-0.8c1.3,0,2.4,0.6,3.3,1.4
	C25,17.2,25.6,18.3,25.6,19.6z"/>
<path class="st2" d="M23.8,23.4l3,3.4"/>
</svg>
