<?xml version="1.0" encoding="utf-8"?>
<!-- Generator: Adobe Illustrator 26.0.2, SVG Export Plug-In . SVG Version: 6.00 Build 0)  -->
<svg version="1.1" id="레이어_1" xmlns="http://www.w3.org/2000/svg" xmlns:xlink="http://www.w3.org/1999/xlink" x="0px"
	 y="0px" viewBox="0 0 16 16" style="enable-background:new 0 0 16 16;" xml:space="preserve">
<style type="text/css">
	.st0{fill:none;stroke:#231815;stroke-linejoin:round;}
</style>
<path class="st0" d="M11.5,8.1c0,1.1-0.3,2.2-0.9,3.1c-0.6,0.9-1.5,1.6-2.5,2c-1,0.4-2.1,0.5-3.2,0.3c-1.1-0.2-2-0.7-2.8-1.5
	c-0.8-0.8-1.3-1.8-1.5-2.8C0.4,8.1,0.5,7,0.9,6s1.1-1.9,2-2.5C3.9,3,4.9,2.6,6,2.6c1.5,0,2.9,0.6,3.9,1.6
	C10.9,5.3,11.5,6.7,11.5,8.1L11.5,8.1z"/>
<path class="st0" d="M8,3c0.6-0.3,1.3-0.4,2-0.4c0.8,0,1.6,0.2,2.4,0.5C13,3.5,13.7,4,14.2,4.6s0.9,1.4,1.1,2.1
	c0.2,0.8,0.2,1.6,0.1,2.4c-0.2,0.8-0.5,1.6-1,2.2C14,12,13.4,12.6,12.6,13c-0.7,0.4-1.5,0.6-2.3,0.7c-0.8,0.1-1.6-0.1-2.4-0.4"/>
<path class="st0" d="M7.6,8.1c0,0.3-0.1,0.6-0.3,0.9S6.9,9.5,6.6,9.6C6.3,9.7,6,9.7,5.7,9.7C5.4,9.6,5.1,9.5,4.9,9.2
	C4.7,9,4.5,8.7,4.5,8.4c-0.1-0.3,0-0.6,0.1-0.9C4.7,7.2,4.9,7,5.1,6.8C5.4,6.6,5.7,6.5,6,6.5c0.4,0,0.8,0.2,1.1,0.5S7.6,7.7,7.6,8.1
	z"/>
</svg>
