<?xml version="1.0" encoding="utf-8"?>
<!-- Generator: Adobe Illustrator 26.0.2, SVG Export Plug-In . SVG Version: 6.00 Build 0)  -->
<svg version="1.1" id="레이어_1" xmlns="http://www.w3.org/2000/svg" xmlns:xlink="http://www.w3.org/1999/xlink" x="0px"
	 y="0px" viewBox="0 0 20 20" style="enable-background:new 0 0 20 20;" xml:space="preserve">
<style type="text/css">
	.st0{fill:none;stroke:#231815;stroke-width:1.5;}
	.st1{fill:#231815;}
</style>
<circle class="st0" cx="10" cy="10" r="7.5"/>
<path class="st1" d="M6.47,10.36H5.65V12H4.91V7.73h1.5c0.49,0,0.87,0.11,1.14,0.33c0.27,0.22,0.4,0.54,0.4,0.96
	c0,0.28-0.07,0.52-0.21,0.72c-0.14,0.19-0.33,0.34-0.57,0.44l0.96,1.78V12H7.33L6.47,10.36z M5.65,9.76h0.76
	c0.25,0,0.45-0.06,0.59-0.19C7.13,9.45,7.2,9.27,7.2,9.06c0-0.23-0.07-0.4-0.2-0.53C6.88,8.4,6.69,8.34,6.43,8.33H5.65V9.76z
	 M11.14,10.1H9.39v1.31h2.05V12H8.65V7.73h2.77v0.6H9.39v1.18h1.75V10.1z M15.3,10.61c-0.04,0.45-0.21,0.81-0.5,1.07
	c-0.29,0.25-0.68,0.38-1.17,0.38c-0.34,0-0.64-0.08-0.9-0.24c-0.26-0.16-0.46-0.39-0.6-0.69s-0.21-0.64-0.22-1.03V9.7
	c0-0.4,0.07-0.76,0.21-1.06s0.35-0.54,0.61-0.71c0.27-0.17,0.58-0.25,0.93-0.25c0.47,0,0.85,0.13,1.14,0.38
	c0.29,0.26,0.45,0.62,0.5,1.08h-0.74c-0.03-0.31-0.12-0.53-0.27-0.66c-0.14-0.14-0.35-0.2-0.63-0.2c-0.32,0-0.57,0.12-0.74,0.35
	c-0.17,0.23-0.26,0.58-0.26,1.03v0.38c0,0.46,0.08,0.81,0.25,1.06c0.17,0.24,0.41,0.36,0.73,0.36c0.29,0,0.51-0.06,0.66-0.2
	s0.24-0.35,0.28-0.65L15.3,10.61L15.3,10.61z"/>
</svg>
