<?xml version="1.0" encoding="utf-8"?>
<!-- Generator: Adobe Illustrator 26.0.2, SVG Export Plug-In . SVG Version: 6.00 Build 0)  -->
<svg version="1.1" id="레이어_1" xmlns="http://www.w3.org/2000/svg" xmlns:xlink="http://www.w3.org/1999/xlink" x="0px"
	 y="0px" viewBox="0 0 30 30" style="enable-background:new 0 0 30 30;" xml:space="preserve">
<style type="text/css">
	.st0{fill:#231815;stroke:#000000;stroke-width:0.3;stroke-miterlimit:10;}
</style>
<path class="st0" d="M24.3,15v0.5h1.1V15H24.3z M12.6,22.9h0.5v-1.1h-0.5V22.9z M12.6,21.9h-0.8v1.1h0.8V21.9z M10.5,21.9H8.8v1.1
	h1.7V21.9L10.5,21.9z M7.5,21.9H6.6v1.1h0.8V21.9z M6.6,21.9c-0.1,0-0.1,0-0.2-0.1l-0.5,0.8c0.2,0.1,0.5,0.2,0.7,0.2
	C6.6,22.9,6.6,21.9,6.6,21.9z M6.2,21.5c0-0.1-0.1-0.2-0.1-0.3H5.1c0,0.2,0,0.4,0.1,0.6L6.2,21.5z M6.2,21.1V20H5.2v1.2H6.2z
	 M6.2,18.3v-2.3H5.2v2.3H6.2z M6.2,14.1v-2.3H5.2v2.3H6.2z M6.2,10V8.8H5.2V10H6.2z M6.2,8.8c0-0.1,0-0.2,0.1-0.3L5.3,8.1
	C5.2,8.3,5.2,8.5,5.2,8.8H6.2z M6.5,8.2c0.1,0,0.1-0.1,0.2-0.1V7C6.4,7,6.1,7.1,5.9,7.2L6.5,8.2z M6.6,8.1h1V7h-1V8.1z M9.2,8.1h1.9
	V7H9.2V8.1z M12.6,8.1h1.9V7h-1.9V8.1z M16,8.1h1.9V7H16V8.1z M19.5,8.1h2V7h-2V8.1z M22.9,8.1h1V7h-1V8.1z M23.8,8.1
	c0.1,0,0.1,0,0.2,0.1l0.5-0.8c-0.2-0.1-0.5-0.2-0.7-0.2C23.8,7,23.8,8.1,23.8,8.1z M24.2,8.5c0,0.1,0,0.2,0,0.3h1.1
	c0-0.2,0-0.4-0.1-0.6L24.2,8.5z M24.3,8.8v0.8h1.1V8.8H24.3z M24.3,11v1.8h1.1V11H24.3z M24.3,14.1V15h1.1v-0.8H24.3z"/>
<path class="st0" d="M18.7,22.2h-2l-0.4,1.3h-1l2-5.3h0.7l2,5.3h-1L18.7,22.2z M16.9,21.5h1.5l-0.7-2.2L16.9,21.5z M21.7,22.7h2.4
	v0.7h-3.3v-5.3h1v4.6H21.7z M25.6,22.7H28v0.7h-3.3v-5.3h1v4.6H25.6z"/>
</svg>
