<?xml version="1.0" encoding="utf-8"?>
<!-- Generator: Adobe Illustrator 26.0.2, SVG Export Plug-In . SVG Version: 6.00 Build 0)  -->
<svg version="1.1" id="레이어_1" xmlns="http://www.w3.org/2000/svg" xmlns:xlink="http://www.w3.org/1999/xlink" x="0px"
	 y="0px" viewBox="0 0 30 30" style="enable-background:new 0 0 30 30;" xml:space="preserve">
<style type="text/css">
	.st0{fill:none;stroke:#231815;stroke-width:1.5;stroke-linejoin:round;}
</style>
<path class="st0" d="M19.9,7c1.5,0.9,2.8,2.1,3.6,3.6s1.4,3.2,1.4,4.9s-0.4,3.4-1.2,4.9s-2,2.8-3.5,3.7"/>
<path class="st0" d="M16.9,12.1c0.6,0.3,1.1,0.8,1.4,1.4c0.4,0.6,0.5,1.2,0.6,1.9c0,0.7-0.1,1.4-0.5,1.9s-0.8,1.1-1.4,1.5"/>
<path class="st0" d="M18.4,9.6c1,0.6,1.9,1.4,2.5,2.5s0.9,2.2,1,3.4c0,1.2-0.3,2.4-0.8,3.4s-1.4,1.9-2.4,2.6"/>
<path class="st0" d="M14.3,8.6l-5.6,3.3H6.9c-0.3,0-0.6,0.1-0.8,0.3S5.8,12.7,5.8,13v5.1c0,0.3,0.1,0.5,0.3,0.7s0.5,0.3,0.8,0.3h1.9
	l5.6,3.3V8.6z"/>
</svg>
