<?xml version="1.0" encoding="utf-8"?>
<!-- Generator: Adobe Illustrator 26.2.0, SVG Export Plug-In . SVG Version: 6.00 Build 0)  -->
<svg version="1.1" id="레이어_1" xmlns="http://www.w3.org/2000/svg" xmlns:xlink="http://www.w3.org/1999/xlink" x="0px"
	 y="0px" viewBox="0 0 24.9 16.5" style="enable-background:new 0 0 24.9 16.5;" xml:space="preserve">
<style type="text/css">
	.st0{fill:none;stroke:#000000;stroke-width:1.4173;stroke-miterlimit:10;}
	.st1{stroke:#000000;stroke-width:0.8504;stroke-miterlimit:10;}
</style>
<circle class="st0" cx="8.2" cy="8.2" r="2"/>
<path class="st1" d="M10.3,2.8c2.8,0,5.4,1.4,7.4,3.6s3.3,5.1,3.6,8l1.2-0.1c-0.3-3.2-1.7-6.3-3.9-8.7c-2.1-2.4-5-4-8.3-4
	C10.3,1.6,10.3,2.8,10.3,2.8z M3,9c0.3-1,1-2.6,2.2-3.9s2.9-2.3,5.1-2.3V1.6c-2.6,0-4.6,1.2-6,2.7S2.1,7.5,1.8,8.7L3,9z"/>
<path class="st1" d="M10.3,13.7c2.8,0,5.4-1.4,7.4-3.6s3.3-5.1,3.6-8l1.2,0.1c-0.3,3.2-1.7,6.3-3.9,8.7c-2.1,2.4-5,4-8.3,4
	C10.3,14.9,10.3,13.7,10.3,13.7z M3,7.5c0.3,1,1,2.6,2.2,3.9s2.9,2.3,5.1,2.3v1.2c-2.6,0-4.6-1.2-6-2.7S2.1,9,1.8,7.8L3,7.5z"/>
</svg>
