<?xml version="1.0" encoding="utf-8"?>
<!-- Generator: Adobe Illustrator 26.1.0, SVG Export Plug-In . SVG Version: 6.00 Build 0)  -->
<svg version="1.1" id="레이어_1" xmlns="http://www.w3.org/2000/svg" xmlns:xlink="http://www.w3.org/1999/xlink" x="0px"
	 y="0px" viewBox="0 0 20 20" style="enable-background:new 0 0 20 20;" xml:space="preserve">
<style type="text/css">
	.st0{fill:none;stroke:#231815;stroke-miterlimit:10;}
</style>
<path class="st0" d="M8.6,8c0,0.4-0.3,0.7-0.7,0.7H4C3.7,8.7,3.3,8.4,3.3,8V4.1c0-0.4,0.3-0.7,0.7-0.7H8c0.4,0,0.7,0.3,0.7,0.7V8z"
	/>
<path class="st0" d="M16.6,8c0,0.4-0.3,0.7-0.7,0.7H12c-0.4,0-0.7-0.3-0.7-0.7V4.1c0-0.4,0.3-0.7,0.7-0.7h3.9c0.4,0,0.7,0.3,0.7,0.7
	V8z"/>
<path class="st0" d="M8.6,15.9c0,0.4-0.3,0.7-0.7,0.7H4c-0.4,0-0.7-0.3-0.7-0.7V12c0-0.4,0.3-0.7,0.7-0.7H8c0.4,0,0.7,0.3,0.7,0.7
	V15.9z"/>
<path class="st0" d="M16.6,15.9c0,0.4-0.3,0.7-0.7,0.7H12c-0.4,0-0.7-0.3-0.7-0.7V12c0-0.4,0.3-0.7,0.7-0.7h3.9
	c0.4,0,0.7,0.3,0.7,0.7V15.9z"/>
</svg>
