<?xml version="1.0" encoding="utf-8"?>
<!-- Generator: Adobe Illustrator 26.1.0, SVG Export Plug-In . SVG Version: 6.00 Build 0)  -->
<svg version="1.1" id="레이어_1" xmlns="http://www.w3.org/2000/svg" xmlns:xlink="http://www.w3.org/1999/xlink" x="0px"
	 y="0px" viewBox="0 0 20 20" style="enable-background:new 0 0 20 20;" xml:space="preserve">
<style type="text/css">
	.st0{fill:none;stroke:#231815;stroke-miterlimit:10;}
</style>
<path class="st0" d="M6.6,5.8c0,0.4-0.4,0.8-0.8,0.8H4.2c-0.4,0-0.8-0.4-0.8-0.8V4.2c0-0.4,0.4-0.8,0.8-0.8h1.6
	c0.4,0,0.8,0.4,0.8,0.8V5.8z"/>
<path class="st0" d="M6.6,10.8c0,0.4-0.4,0.8-0.8,0.8H4.2c-0.4,0-0.8-0.4-0.8-0.8V9.2c0-0.4,0.4-0.8,0.8-0.8h1.6
	c0.4,0,0.8,0.4,0.8,0.8V10.8z"/>
<path class="st0" d="M6.6,15.8c0,0.4-0.4,0.8-0.8,0.8H4.2c-0.4,0-0.8-0.4-0.8-0.8v-1.6c0-0.4,0.4-0.8,0.8-0.8h1.6
	c0.4,0,0.8,0.4,0.8,0.8V15.8z"/>
<path class="st0" d="M8,10h8.9"/>
<path class="st0" d="M8,4.5h8.9"/>
<path class="st0" d="M8,15.5h8.9"/>
</svg>
