<?xml version="1.0" encoding="utf-8"?>
<!-- Generator: Adobe Illustrator 26.0.2, SVG Export Plug-In . SVG Version: 6.00 Build 0)  -->
<svg version="1.1" id="레이어_1" xmlns="http://www.w3.org/2000/svg" xmlns:xlink="http://www.w3.org/1999/xlink" x="0px"
	 y="0px" viewBox="0 0 30 30" style="enable-background:new 0 0 30 30;" xml:space="preserve">
<style type="text/css">
	.st0{fill:#231815;stroke:#231815;stroke-width:0.5;}
	.st1{fill:none;stroke:#231815;stroke-width:1.5;}
	.st2{fill:none;stroke:#231815;}
</style>
<path class="st0" d="M23.6,13v0.5h1V13H23.6z M13.8,22.5h0.5v-1h-0.5V22.5z M7,8.5h16.2v-1H7V8.5z M23.1,8.5c0.2,0,0.5,0.2,0.5,0.7
	h1c0-0.8-0.6-1.7-1.5-1.7V8.5z M23.6,9.2V13h1V9.2H23.6z M7,21.5c-0.2,0-0.5-0.2-0.5-0.7h-1c0,0.8,0.6,1.7,1.5,1.7V21.5z M6.5,20.8
	V9.2h-1v11.7H6.5z M6.5,9.2c0-0.5,0.3-0.7,0.5-0.7v-1c-0.9,0-1.5,0.8-1.5,1.7H6.5z M13.8,21.5H7v1h6.9V21.5z"/>
<ellipse class="st1" cx="22.1" cy="21" rx="5" ry="5"/>
<path class="st2" d="M22.1,18v1"/>
<path class="st2" d="M22.1,20v3.5"/>
</svg>
