<?xml version="1.0" encoding="utf-8"?>
<!-- Generator: Adobe Illustrator 26.1.0, SVG Export Plug-In . SVG Version: 6.00 Build 0)  -->
<svg version="1.1" id="레이어_1" xmlns="http://www.w3.org/2000/svg" xmlns:xlink="http://www.w3.org/1999/xlink" x="0px"
	 y="0px" viewBox="0 0 14 14" style="enable-background:new 0 0 14 14;" xml:space="preserve">
<style type="text/css">
	.st0{fill:none;stroke:#231815;stroke-linejoin:round;}
	.st1{fill:none;stroke:#231815;stroke-width:0.75;stroke-linejoin:round;}
</style>
<path class="st0" d="M12.6,1.4L6.7,7.3"/>
<path class="st1" d="M8.9,1.3h3.8v3.8"/>
<path class="st0" d="M12,7v5c0,0.2-0.1,0.3-0.2,0.4c-0.1,0.1-0.3,0.2-0.4,0.2H2c-0.1,0-0.2,0-0.2,0c-0.1,0-0.1-0.1-0.2-0.1
	s-0.1-0.1-0.1-0.2s0-0.2,0-0.2V2.6c0-0.1,0-0.2,0-0.2c0-0.1,0.1-0.1,0.1-0.2S1.7,2.1,1.8,2S1.9,2,2,2h5"/>
</svg>
