<?xml version="1.0" encoding="utf-8"?>
<!-- Generator: Adobe Illustrator 26.1.0, SVG Export Plug-In . SVG Version: 6.00 Build 0)  -->
<svg version="1.1" id="레이어_1" xmlns="http://www.w3.org/2000/svg" xmlns:xlink="http://www.w3.org/1999/xlink" x="0px"
	 y="0px" viewBox="0 0 12 12" style="enable-background:new 0 0 12 12;" xml:space="preserve">
<style type="text/css">
	.st0{fill:#231815;}
</style>
<path class="st0" d="M8.5,6.5c0-0.4,0.3-0.8,0.8-0.8S10,6.1,10,6.5S9.7,7.3,9.2,7.3S8.5,6.9,8.5,6.5z"/>
<path class="st0" d="M5.2,6.5c0-0.4,0.3-0.8,0.8-0.8s0.8,0.3,0.8,0.8S6.4,7.3,6,7.3S5.2,6.9,5.2,6.5z"/>
<path class="st0" d="M2,6.5c0-0.4,0.3-0.8,0.8-0.8s0.8,0.3,0.8,0.8S3.2,7.3,2.8,7.3S2,6.9,2,6.5z"/>
</svg>
