<?xml version="1.0" encoding="utf-8"?>
<!-- Generator: Adobe Illustrator 26.4.0, SVG Export Plug-In . SVG Version: 6.00 Build 0)  -->
<svg version="1.1" id="레이어_1" xmlns="http://www.w3.org/2000/svg" xmlns:xlink="http://www.w3.org/1999/xlink" x="0px"
	 y="0px" viewBox="411.024 287.719 19.843 19.843" enable-background="new 411.024 287.719 19.843 19.843" xml:space="preserve">
<path fill="none" stroke="#231815" stroke-width="1.3" stroke-linecap="round" stroke-linejoin="round" d="M412.835,290.201h14.343
	c0.331,0,0.662,0.331,0.662,0.662v11.033c0,0.331-0.331,0.662-0.662,0.662h-14.343c-0.331,0-0.662-0.331-0.662-0.662v-11.033
	C412.173,290.532,412.504,290.201,412.835,290.201z"/>
<path fill="#231815" d="M411.732,290.863c0-0.662,0.441-1.104,1.103-1.104h14.343c0.662,0,1.104,0.441,1.104,1.104v2.206h-16.549
	V290.863z"/>
<g>
	<path fill="#FFFFFF" stroke="#231815" stroke-width="1.3" stroke-linecap="round" stroke-linejoin="round" d="M429.054,299.69
		c0,0.11,0,0.331,0,0.441l0.993,0.771l0.11,0.11v0.11l-1.325,2.207c0,0.109-0.22,0.109-0.331,0.109l-1.323-0.44
		c-0.221,0.11-0.441,0.331-0.662,0.44l-0.11,1.325c0,0,0,0.109-0.109,0.109h-0.111h-2.537c-0.111,0-0.331-0.109-0.331-0.22
		l-0.11-1.215c-0.221-0.109-0.441-0.22-0.662-0.44l-1.214,0.44c-0.11,0-0.331,0-0.331-0.109l-1.324-2.207v-0.11
		c0,0,0-0.11,0.111-0.11l0.772-0.771c0-0.11,0-0.331,0-0.441c0-0.111,0-0.331,0-0.441l-0.993-0.772l-0.11-0.11v-0.11l1.324-2.317
		l0.111-0.11H421l1.214,0.441c0.221-0.111,0.441-0.331,0.772-0.441l0.109-1.214c0,0,0-0.11,0.111-0.11c0-0.11,0-0.11,0.11-0.11
		h2.538h0.109l0.11,0.11l0.11,1.213c0.221,0.111,0.552,0.221,0.772,0.441l1.324-0.441c0.11,0,0.331,0,0.331,0.111l1.214,2.206v0.111
		c0,0,0,0.11-0.11,0.11l-0.993,0.772C429.054,299.359,429.054,299.579,429.054,299.69z"/>
	<path fill="none" stroke="#231815" stroke-width="1.3" stroke-linecap="round" stroke-linejoin="round" d="M423.758,298.586
		c0.331-0.331,0.662-0.441,1.104-0.441c0.44,0,0.771,0.11,1.102,0.441c0.332,0.22,0.441,0.662,0.441,1.104s-0.109,0.772-0.441,1.103
		c-0.221,0.33-0.662,0.441-1.102,0.441c-0.441,0-0.773-0.111-1.104-0.441c-0.331-0.222-0.441-0.662-0.441-1.103
		C423.207,299.249,423.427,298.917,423.758,298.586z"/>
</g>
</svg>
