<?xml version="1.0" encoding="utf-8"?>
<!-- Generator: Adobe Illustrator 16.0.0, SVG Export Plug-In . SVG Version: 6.00 Build 0)  -->
<!DOCTYPE svg PUBLIC "-//W3C//DTD SVG 1.1//EN" "http://www.w3.org/Graphics/SVG/1.1/DTD/svg11.dtd">
<svg version="1.1" id="레이어_1" xmlns="http://www.w3.org/2000/svg" xmlns:xlink="http://www.w3.org/1999/xlink" x="0px"
	 y="0px" width="18px" height="18px" viewBox="0 0 18 18" enable-background="new 0 0 18 18" xml:space="preserve">
<path fill="none" stroke="#231815" stroke-linecap="round" stroke-miterlimit="10" d="M8.192,12.656L7.704,14.48
	c-0.056,0.215-0.194,0.397-0.385,0.511c-0.191,0.112-0.419,0.146-0.635,0.093l-1.466-0.428c-0.108-0.029-0.209-0.08-0.297-0.149
	c-0.087-0.069-0.161-0.154-0.215-0.252s-0.088-0.204-0.1-0.315c-0.012-0.11-0.001-0.223,0.03-0.329l0.489-1.825"/>
<path fill="none" stroke="#231815" stroke-miterlimit="10" d="M15.473,8.254H18"/>
<path fill="none" stroke="#231815" stroke-miterlimit="10" d="M15.473,5.431l1.786-1.775"/>
<path fill="none" stroke="#231815" stroke-miterlimit="10" d="M15.473,11.209l1.686,1.674"/>
<path fill="none" stroke="#231815" stroke-linejoin="round" d="M2.843,5.398C2.59,5.457,2.422,5.6,2.422,5.825v4.89
	c0.002,0.091,0.035,0.178,0.093,0.248s0.138,0.118,0.228,0.137l10.625,3.04V2.418L2.843,5.398z"/>
</svg>
