<?xml version="1.0" encoding="utf-8"?>
<!-- Generator: Adobe Illustrator 26.0.2, SVG Export Plug-In . SVG Version: 6.00 Build 0)  -->
<svg version="1.1" id="레이어_1" xmlns="http://www.w3.org/2000/svg" xmlns:xlink="http://www.w3.org/1999/xlink" x="0px"
	 y="0px" viewBox="0 0 18 18" style="enable-background:new 0 0 18 18;" xml:space="preserve">
<style type="text/css">
	.st0{fill:#231815;}
	.st1{fill:none;stroke:#231815;stroke-miterlimit:10;}
</style>
<path class="st0" d="M8.1,10.4c0-0.4,0.1-0.8,0.2-1c0.2-0.3,0.4-0.6,0.8-0.9C9.5,8.3,9.7,8.1,9.8,8c0.2-0.2,0.3-0.3,0.3-0.4
	c0.1-0.2,0.1-0.3,0.1-0.5c0-0.3-0.1-0.5-0.3-0.7C9.8,6.1,9.5,6.1,9.1,6.1c-0.4,0-0.7,0.1-1,0.2c-0.3,0.1-0.6,0.2-1,0.4L6.6,5.5
	C6.9,5.3,7.3,5.1,7.8,5c0.4-0.1,0.9-0.2,1.4-0.2c0.8,0,1.4,0.2,1.9,0.6c0.4,0.4,0.7,0.9,0.7,1.5c0,0.3-0.1,0.6-0.2,0.9
	c-0.1,0.2-0.3,0.5-0.5,0.7c-0.2,0.2-0.5,0.4-0.8,0.7c-0.2,0.2-0.4,0.4-0.6,0.5C9.6,9.8,9.5,9.9,9.5,10c0,0.1-0.1,0.3-0.1,0.5v0.3
	H8.1V10.4z M7.9,12.7c0-0.3,0.1-0.6,0.3-0.7c0.2-0.1,0.4-0.2,0.7-0.2c0.2,0,0.5,0.1,0.6,0.2c0.2,0.1,0.3,0.4,0.3,0.7
	c0,0.3-0.1,0.6-0.3,0.7c-0.2,0.1-0.4,0.2-0.6,0.2c-0.3,0-0.5-0.1-0.7-0.2C8,13.3,7.9,13.1,7.9,12.7z"/>
<path class="st1" d="M2,9c0-3.9,3.1-7,7-7c3.9,0,7,3.1,7,7c0,3.9-3.1,7-7,7C5.1,16,2,12.9,2,9z"/>
</svg>
