<?xml version="1.0" encoding="utf-8"?>
<!-- Generator: Adobe Illustrator 26.0.2, SVG Export Plug-In . SVG Version: 6.00 Build 0)  -->
<svg version="1.1" id="레이어_1" xmlns="http://www.w3.org/2000/svg" xmlns:xlink="http://www.w3.org/1999/xlink" x="0px"
	 y="0px" viewBox="0 0 30 30" style="enable-background:new 0 0 30 30;" xml:space="preserve">
<style type="text/css">
	.st0{fill:#231815;stroke:#231815;stroke-width:0.5;}
	.st1{fill:none;stroke:#231815;stroke-width:1.5;}
</style>
<path class="st0" d="M9.5,13.4c0,0.1,0,0.4-0.1,0.5s-0.1,0.2-0.2,0.4c-0.1,0.1-0.2,0.2-0.4,0.2c-0.2,0.1-0.4,0.1-0.5,0.1
	c-0.4,0-0.6-0.1-0.8-0.4c-0.2-0.2-0.4-0.5-0.4-0.8c0-0.4,0.1-0.6,0.4-0.8c0.2-0.2,0.5-0.4,0.8-0.4c0.4,0,0.6,0.1,0.8,0.4
	C9.3,12.8,9.5,13.1,9.5,13.4L9.5,13.4z"/>
<ellipse class="st1" cx="22.5" cy="19.4" rx="6" ry="6"/>
<path class="st1" d="M22.5,15.8V23"/>
<path class="st1" d="M26.1,19.4H19"/>
<path class="st1" d="M14.2,20.6H4.7c-0.7,0-1.2-0.5-1.2-1.2V9.9c0-0.7,0.5-1.2,1.2-1.2h21.5c0.7,0,1.2,0.5,1.2,1.2v2.4"/>
</svg>
