<?xml version="1.0" encoding="utf-8"?>
<!-- Generator: Adobe Illustrator 26.0.2, SVG Export Plug-In . SVG Version: 6.00 Build 0)  -->
<svg version="1.1" id="레이어_1" xmlns="http://www.w3.org/2000/svg" xmlns:xlink="http://www.w3.org/1999/xlink" x="0px"
	 y="0px" viewBox="0 0 16 16" style="enable-background:new 0 0 16 16;" xml:space="preserve">
<style type="text/css">
	.st0{fill:none;stroke:#231815;stroke-width:1.5;stroke-linejoin:round;stroke-miterlimit:10;}
</style>
<path class="st0" d="M12.6,10.5c-0.8,1.7-2.4,3-4.3,3.2c-3,0.3-5.6-2.1-5.9-5.1c0-0.3,0-0.8,0-1.1c0,0,0-0.5,0.1-0.6"/>
<path class="st0" d="M0,9l2.3-2.2l2.3,2.3"/>
<path class="st0" d="M3.4,5.8C4.2,4,5.8,2.6,7.8,2.4c3-0.3,5.6,2.2,5.9,5.6c0,0.5,0,0.8,0,1.3"/>
<path class="st0" d="M16,7l-2.3,2.2l-2.3-2.3"/>
</svg>
