<?xml version="1.0" encoding="utf-8"?>
<!-- Generator: Adobe Illustrator 26.0.2, SVG Export Plug-In . SVG Version: 6.00 Build 0)  -->
<svg version="1.1" id="레이어_1" xmlns="http://www.w3.org/2000/svg" xmlns:xlink="http://www.w3.org/1999/xlink" x="0px"
	 y="0px" viewBox="0 0 20 20" style="enable-background:new 0 0 20 20;" xml:space="preserve">
<style type="text/css">
	.st0{fill:none;stroke:#231815;stroke-width:1.5;}
	.st1{fill:none;stroke:#231815;stroke-width:1.5;stroke-linejoin:round;}
</style>
<path class="st0" d="M2,5.5h16"/>
<path class="st0" d="M2,10.5h7"/>
<path class="st0" d="M2,15.5h4.5"/>
<path class="st0" d="M4,3.5v4"/>
<path class="st0" d="M7,8.5v4"/>
<path class="st0" d="M14.5,8v2.2"/>
<path class="st0" d="M14.5,16.8V19"/>
<path class="st0" d="M20,13.5h-2.2"/>
<path class="st0" d="M11.2,13.5H9"/>
<path class="st0" d="M18.39,9.61l-1.56,1.56"/>
<path class="st0" d="M12.17,15.83l-1.56,1.56"/>
<path class="st0" d="M18.39,17.39l-1.56-1.56"/>
<path class="st0" d="M12.17,11.17l-1.56-1.56"/>
<path class="st1" d="M18,13.5c0,0.69-0.2,1.37-0.59,1.94c-0.39,0.58-0.93,1.02-1.57,1.29c-0.64,0.26-1.34,0.33-2.02,0.2
	s-1.3-0.47-1.79-0.96c-0.49-0.49-0.82-1.11-0.96-1.79s-0.06-1.38,0.2-2.02s0.72-1.19,1.29-1.57C13.14,10.2,13.81,10,14.51,10
	c0.46,0,0.91,0.09,1.34,0.27c0.42,0.18,0.81,0.43,1.14,0.76c0.32,0.32,0.58,0.71,0.76,1.14S18,13.04,18,13.5z"/>
</svg>
