<?xml version="1.0" encoding="utf-8"?>
<!-- Generator: Adobe Illustrator 26.0.2, SVG Export Plug-In . SVG Version: 6.00 Build 0)  -->
<svg version="1.1" id="레이어_1" xmlns="http://www.w3.org/2000/svg" xmlns:xlink="http://www.w3.org/1999/xlink" x="0px"
	 y="0px" viewBox="0 0 45.9 46.3" style="enable-background:new 0 0 45.9 46.3;" xml:space="preserve">
<style type="text/css">
	.st0{fill:#727171;}
	.st1{fill:#FFFFFF;}
	.st2{fill:none;stroke:#000000;stroke-width:0.5;stroke-miterlimit:10;}
</style>
<path class="st0" d="M40.8,23.3c0,10.5-8.5,19-19,19c-10.5,0-19-8.5-19-19c0-10.5,8.5-19,19-19C32.3,4.3,40.8,12.8,40.8,23.3"/>
<polygon class="st1" points="23.3,33.9 20.2,33.9 20.2,25.5 11.8,25.5 11.8,22.4 20.2,22.4 20.2,14.1 23.3,14.1 23.3,22.4 
	31.7,22.4 31.7,25.5 23.3,25.5 "/>
<polygon class="st2" points="23.3,33.9 20.2,33.9 20.2,25.5 11.8,25.5 11.8,22.4 20.2,22.4 20.2,14.1 23.3,14.1 23.3,22.4 
	31.7,22.4 31.7,25.5 23.3,25.5 "/>
</svg>
