<?xml version="1.0" encoding="utf-8"?>
<!-- Generator: Adobe Illustrator 26.0.2, SVG Export Plug-In . SVG Version: 6.00 Build 0)  -->
<svg version="1.1" id="레이어_1" xmlns="http://www.w3.org/2000/svg" xmlns:xlink="http://www.w3.org/1999/xlink" x="0px"
	 y="0px" viewBox="0 0 90 90" style="enable-background:new 0 0 90 90;" xml:space="preserve">
<style type="text/css">
	.st0{fill:#231815;stroke:#000000;stroke-width:0.5;stroke-miterlimit:10;}
</style>
<path class="st0" d="M34.7,19.1c4.9-2,10.4-2.6,15.6-1.5c5.2,1,10,3.6,13.8,7.4c3.8,3.8,6.3,8.6,7.4,13.8c1,5.2,0.5,10.7-1.5,15.6
	c-0.4,1.1-0.9,2.1-1.5,3.1l2.9,2.9c0.9-1.4,1.7-2.9,2.3-4.5c2.3-5.7,3-11.9,1.8-17.9c-1.2-6-4.1-11.5-8.5-15.9
	c-4.3-4.3-9.9-7.3-15.9-8.5c-6-1.2-12.2-0.6-17.9,1.8s-10.5,6.3-13.9,11.4C15.8,31.9,14,37.9,14,44c0,8.2,3.3,16.1,9.1,21.9
	C28.9,71.7,36.8,75,45,75c1.3,0,2.7-0.1,4-0.3v-4c-1.3,0.2-2.7,0.3-4,0.3c-7.2,0-14-2.8-19.1-7.9C20.8,58,18,51.2,18,44
	c0-5.3,1.6-10.6,4.5-15c0.7-1,1.4-2,2.2-2.8L54.3,56H60L27.6,23.4C29.7,21.6,32.1,20.1,34.7,19.1z M62.2,73.7H65v-9h-2.8V73.7z
	 M62.5,61.4c-0.3,0.3-0.4,0.6-0.4,1s0.1,0.7,0.4,1s0.7,0.4,1.1,0.4c0.5,0,0.8-0.1,1.1-0.4s0.4-0.6,0.4-1s-0.1-0.7-0.4-1
	S64.1,61,63.6,61C63.2,61,62.8,61.1,62.5,61.4z M61,71.4h-5.1v-9.8H53v12.1h8V71.4z M70.3,70.3l1.4-5.7h2.9l-2.9,9h-2.9l-2.9-9h3
	L70.3,70.3z M76.4,72.6c0.9,0.8,2,1.2,3.3,1.2c0.7,0,1.4-0.1,2.1-0.4c0.6-0.3,1.1-0.7,1.5-1.2L82,70.7c-0.5,0.6-1.2,0.9-2.1,0.9
	c-0.5,0-1-0.1-1.3-0.4c-0.3-0.3-0.6-0.7-0.7-1.2h5.6V69c0-1.4-0.4-2.5-1.1-3.3c-0.7-0.8-1.7-1.2-3-1.2c-0.9,0-1.7,0.2-2.3,0.6
	c-0.7,0.4-1.2,0.9-1.5,1.6c-0.3,0.7-0.5,1.5-0.5,2.4v0.2C75.2,70.7,75.6,71.8,76.4,72.6z M78,68.3c0.2-1.1,0.6-1.6,1.5-1.6
	c0.4,0,0.8,0.1,1,0.4c0.2,0.2,0.4,0.6,0.3,1v0.2C80.8,68.3,78,68.3,78,68.3z"/>
</svg>
