<?xml version="1.0" encoding="utf-8"?>
<!-- Generator: Adobe Illustrator 26.0.2, SVG Export Plug-In . SVG Version: 6.00 Build 0)  -->
<svg version="1.1" id="레이어_1" xmlns="http://www.w3.org/2000/svg" xmlns:xlink="http://www.w3.org/1999/xlink" x="0px"
	 y="0px" viewBox="0 0 90 90" style="enable-background:new 0 0 90 90;" xml:space="preserve">
<style type="text/css">
	.st0{fill:#231815;stroke:#000000;stroke-width:0.5;stroke-miterlimit:10;}
</style>
<path class="st0" d="M34.7,19.1c4.9-2,10.4-2.6,15.6-1.5c5.2,1,10,3.6,13.8,7.4c3.8,3.8,6.3,8.6,7.4,13.8c1,5.2,0.5,10.7-1.5,15.6
	c-0.4,1.1-0.9,2.1-1.5,3.1l2.9,2.9c0.9-1.4,1.7-2.9,2.3-4.5c2.3-5.7,3-11.9,1.8-17.9c-1.2-6-4.1-11.5-8.5-15.9
	c-4.3-4.3-9.9-7.3-15.9-8.5c-6-1.2-12.2-0.6-17.9,1.8s-10.5,6.3-13.9,11.4C15.8,31.9,14,37.9,14,44c0,8.2,3.3,16.1,9.1,21.9
	C28.9,71.7,36.8,75,45,75c1.3,0,2.7-0.1,4-0.3v-4c-1.3,0.2-2.7,0.3-4,0.3c-7.2,0-14-2.8-19.1-7.9C20.8,58,18,51.2,18,44
	c0-5.3,1.6-10.6,4.5-15c0.7-1,1.4-2,2.2-2.8L54.3,56H60L27.6,23.4C29.7,21.6,32.1,20.1,34.7,19.1z M64.1,73.8h2.8V61h-2.8V73.8z
	 M55.9,73.8v-4.1h1.9c1.5,0,2.6-0.4,3.5-1.1c0.8-0.7,1.3-1.7,1.3-2.8c0-0.8-0.2-1.5-0.6-2.1c-0.4-0.6-0.9-1.1-1.7-1.5
	c-0.7-0.3-1.5-0.5-2.4-0.5H53v12.1H55.9z M57.8,67.4h-1.9v-3.5h1.9c0.5,0,0.9,0.2,1.2,0.5c0.3,0.3,0.5,0.8,0.5,1.4
	c0,0.5-0.1,0.9-0.4,1.2C58.8,67.3,58.4,67.4,57.8,67.4z M73.7,73.8c-0.1-0.2-0.2-0.5-0.3-0.8c-0.5,0.6-1.2,1-2.2,1
	c-0.8,0-1.6-0.3-2.2-0.8c-0.6-0.5-0.9-1.2-0.9-1.9c0-1,0.4-1.7,1.1-2.2c0.7-0.5,1.8-0.7,3.1-0.7h0.9v-0.5c0-0.8-0.4-1.2-1.1-1.2
	c-0.7,0-1,0.3-1,1h-2.8c0-0.9,0.4-1.6,1.1-2.1c0.7-0.5,1.7-0.8,2.8-0.8c1.1,0,2.1,0.3,2.7,0.8c0.7,0.6,1,1.3,1,2.3v4
	c0,0.8,0.1,1.5,0.4,1.9v0.1L73.7,73.8L73.7,73.8z M71.9,71.9c0.3,0,0.6-0.1,0.9-0.2c0.2-0.1,0.4-0.3,0.5-0.5v-1.4h-0.8
	c-1,0-1.5,0.4-1.5,1.3c0,0.3,0.1,0.5,0.3,0.6C71.4,71.8,71.7,71.9,71.9,71.9z M82.6,64.8l-1.5,5.1l-1.4-5.1h-3l3.1,9.1l-0.2,0.6
	c-0.1,0.3-0.3,0.5-0.5,0.6c-0.2,0.1-0.5,0.2-0.9,0.2h-0.4v2c0.4,0.1,0.8,0.2,1.2,0.2c1.3,0,2.2-0.6,2.8-1.7l0.2-0.4l3.7-10.5
	C85.6,64.8,82.6,64.8,82.6,64.8z"/>
</svg>
