<?xml version="1.0" encoding="utf-8"?>
<!-- Generator: Adobe Illustrator 16.0.0, SVG Export Plug-In . SVG Version: 6.00 Build 0)  -->
<!DOCTYPE svg PUBLIC "-//W3C//DTD SVG 1.1//EN" "http://www.w3.org/Graphics/SVG/1.1/DTD/svg11.dtd">
<svg version="1.1" id="레이어_1" xmlns="http://www.w3.org/2000/svg" xmlns:xlink="http://www.w3.org/1999/xlink" x="0px"
	 y="0px" width="90px" height="90px" viewBox="0 0 90 90" enable-background="new 0 0 90 90" xml:space="preserve">
<path fill="#231815" d="M60.813,18.061c-0.107-0.042-0.222-0.063-0.339-0.061c-0.016,0-0.031,0.001-0.047,0.001H15.959l-0.023,0
	c-0.236-0.002-0.468,0.088-0.646,0.261c-0.175,0.171-0.281,0.406-0.291,0.657v31.563c0.01,0.252,0.116,0.487,0.291,0.658
	c0.178,0.173,0.409,0.265,0.646,0.261h0.023h29.029v4H15.97c-1.3,0.012-2.546-0.493-3.474-1.398
	c-0.93-0.908-1.466-2.146-1.496-3.446c0-0.015,0-0.03,0-0.045V18.89c0-0.015,0-0.03,0-0.045c0.029-1.3,0.566-2.538,1.496-3.445
	c0.928-0.906,2.174-1.411,3.474-1.399h44.438c0.64-0.012,1.276,0.103,1.875,0.339c0.605,0.239,1.155,0.597,1.62,1.05
	c0.467,0.457,0.835,0.999,1.088,1.592c0.254,0.596,0.39,1.236,0.396,1.886v0.022v12.241h-4V18.905
	c-0.002-0.121-0.027-0.241-0.076-0.354c-0.049-0.117-0.119-0.217-0.203-0.299C61.021,18.167,60.921,18.103,60.813,18.061z"/>
<path fill="#231815" d="M44.956,69H18.047v-4h26.909V69z"/>
<path fill="#231815" d="M37.906,66.998v-13.6h4v13.6H37.906z"/>
<path fill="#231815" d="M65.065,41.629c-1.692,0-3.32,0.679-4.524,1.896c-1.204,1.218-1.885,2.874-1.885,4.604v5.27h-4v-5.27
	c0-2.778,1.092-5.447,3.042-7.417c1.95-1.972,4.599-3.083,7.367-3.083c2.767,0,5.418,1.111,7.368,3.083
	c1.951,1.971,3.041,4.64,3.041,7.417v5.372h-4v-5.372c0-1.731-0.68-3.387-1.884-4.604C68.387,42.309,66.758,41.629,65.065,41.629z"
	/>
<path fill="#231815" d="M51.313,53.398c0-1.104,0.896-2,2-2h23.545c1.105,0,2,0.896,2,2v20.4c0,1.104-0.895,2-2,2H53.313
	c-1.104,0-2-0.896-2-2V53.398z M55.313,55.398v16.4h19.545v-16.4H55.313z"/>
<path fill="#231815" d="M67.813,63.801c0,1.381-1.119,2.5-2.5,2.5s-2.5-1.119-2.5-2.5s1.119-2.5,2.5-2.5S67.813,62.42,67.813,63.801
	z"/>
</svg>
