<?xml version="1.0" encoding="utf-8"?>
<!-- Generator: Adobe Illustrator 26.0.2, SVG Export Plug-In . SVG Version: 6.00 Build 0)  -->
<svg version="1.1" id="레이어_1" xmlns="http://www.w3.org/2000/svg" xmlns:xlink="http://www.w3.org/1999/xlink" x="0px"
	 y="0px" viewBox="0 0 30 30" style="enable-background:new 0 0 30 30;" xml:space="preserve">
<style type="text/css">
	.st0{fill:#231815;}
	.st1{fill:none;stroke:#231815;stroke-width:1.5;}
</style>
<path class="st0" d="M10,13.7c0,0.1,0,0.3-0.1,0.4c-0.1,0.1-0.1,0.2-0.2,0.3c-0.1,0.1-0.2,0.2-0.3,0.2c-0.2,0.1-0.3,0.1-0.4,0.1
	c-0.3,0-0.5-0.1-0.8-0.3c-0.2-0.2-0.3-0.4-0.3-0.8s0.1-0.5,0.3-0.8c0.2-0.2,0.4-0.3,0.8-0.3c0.3,0,0.5,0.1,0.8,0.3
	C9.9,13.2,10,13.4,10,13.7L10,13.7z"/>
<ellipse class="st1" cx="22" cy="19.2" rx="5.5" ry="5.5"/>
<path class="st1" d="M22,15.9v6.6"/>
<path class="st1" d="M25.3,19.2h-6.6"/>
<path class="st1" d="M14.4,20.3H5.6c-0.7,0-1.1-0.4-1.1-1.1v-8.8c0-0.7,0.4-1.1,1.1-1.1h19.8c0.7,0,1.1,0.4,1.1,1.1v2.2"/>
</svg>
