<?xml version="1.0" encoding="utf-8"?>
<!-- Generator: Adobe Illustrator 16.0.0, SVG Export Plug-In . SVG Version: 6.00 Build 0)  -->
<!DOCTYPE svg PUBLIC "-//W3C//DTD SVG 1.1//EN" "http://www.w3.org/Graphics/SVG/1.1/DTD/svg11.dtd">
<svg version="1.1" id="레이어_1" xmlns="http://www.w3.org/2000/svg" xmlns:xlink="http://www.w3.org/1999/xlink" x="0px"
	 y="0px" width="92px" height="90px" viewBox="0 0 92 90" enable-background="new 0 0 92 90" xml:space="preserve">
<path fill="#231815" d="M27.93,14.811c2.728-0.045,5.426,0.561,7.878,1.766l-1.765,3.59c-1.884-0.926-3.954-1.391-6.043-1.356
	c-1.264,0.025-2.511,0.306-3.669,0.827c-1.158,0.521-2.205,1.272-3.077,2.211c-0.873,0.94-1.554,2.048-2,3.259
	c-0.447,1.212-0.651,2.504-0.6,3.799l0.002,0.052l-0.001,0.052c-0.023,1.848,0.451,3.667,1.369,5.259
	c0.917,1.592,2.243,2.896,3.832,3.775l1.415,0.783l-0.47,1.548c-0.969,3.187-3.291,4.553-5.417,5.561
	c-0.406,0.193-0.805,0.374-1.197,0.553c-1.722,0.781-3.309,1.502-4.829,2.891c-0.436,0.407-0.88,1.158-1.262,2.276
	c-0.373,1.091-0.626,2.353-0.794,3.591c-0.128,0.949-0.203,1.852-0.245,2.604h13.332v4H7.035l-0.034-1.966l2-0.034
	c-2,0.034-2,0.035-2,0.034v-0.004v-0.008l0-0.025c0-0.021,0-0.051,0-0.088c0-0.075,0-0.183,0-0.317
	c0.002-0.271,0.009-0.655,0.027-1.124c0.037-0.935,0.12-2.22,0.309-3.609c0.188-1.382,0.486-2.922,0.972-4.345
	c0.475-1.391,1.192-2.863,2.332-3.92l0.01-0.01c2.037-1.864,4.299-2.881,6.047-3.667c0.346-0.156,0.671-0.302,0.971-0.444
	c1.243-0.589,2.086-1.104,2.647-1.815c-1.52-1.138-2.8-2.579-3.758-4.241c-1.269-2.202-1.926-4.708-1.903-7.255
	c-0.064-1.801,0.222-3.599,0.845-5.288c0.629-1.708,1.589-3.271,2.823-4.599c1.234-1.329,2.719-2.396,4.368-3.137
	c1.648-0.741,3.428-1.143,5.234-1.178H27.93z"/>
<path fill="#231815" d="M63.279,18.811c-2.104-0.033-4.188,0.432-6.087,1.359l-1.755-3.595c2.464-1.203,5.172-1.808,7.909-1.764
	l0.007,0l0,0c1.807,0.035,3.587,0.436,5.236,1.178c1.648,0.742,3.133,1.809,4.367,3.137c1.234,1.329,2.193,2.893,2.821,4.598
	c0.616,1.674,0.904,3.454,0.847,5.238c0.039,0.686,0.037,1.374-0.006,2.06l-3.992-0.249c0.034-0.554,0.034-1.109,0-1.664
	l-0.006-0.102l0.004-0.102c0.051-1.295-0.153-2.587-0.6-3.799c-0.447-1.213-1.127-2.321-1.999-3.259
	c-0.872-0.939-1.919-1.69-3.077-2.211C65.791,19.116,64.543,18.835,63.279,18.811z"/>
<path fill="#231815" d="M34.784,16.596C37.682,13.657,41.619,12,45.729,12c4.11,0,8.046,1.657,10.945,4.596
	c2.895,2.937,4.516,6.914,4.518,11.054c0.021,2.973-0.75,5.898-2.235,8.466c-1.486,2.571-3.634,4.689-6.216,6.127l-1.946-3.495
	c1.946-1.084,3.571-2.685,4.7-4.634c1.127-1.951,1.715-4.176,1.697-6.441v-0.008v-0.007c0-3.102-1.214-6.069-3.367-8.253
	C51.673,17.221,48.76,16,45.729,16s-5.944,1.221-8.096,3.404c-2.152,2.184-3.366,5.152-3.366,8.253v0.007v0.008
	c-0.017,2.262,0.567,4.485,1.688,6.436c1.122,1.95,2.738,3.553,4.677,4.645l1.393,0.784l-0.457,1.531
	c-1.044,3.499-3.302,5.131-5.541,6.459c-0.364,0.216-0.725,0.424-1.083,0.629c-1.845,1.061-3.618,2.081-5.354,3.987l-0.007,0.008
	l-0.007,0.008c-1.505,1.619-2.391,4.397-2.86,7.088c-0.171,0.985-0.278,1.903-0.344,2.661h11.549v4H22.266v-2h2c-2,0-2,0.001-2,0
	v-0.004v-0.009v-0.026c0-0.021,0-0.052,0.001-0.09c0.001-0.077,0.003-0.186,0.007-0.323c0.008-0.275,0.024-0.667,0.056-1.146
	c0.063-0.958,0.19-2.281,0.446-3.749c0.493-2.828,1.528-6.6,3.864-9.117c2.19-2.403,4.549-3.752,6.407-4.813
	c0.33-0.188,0.644-0.368,0.939-0.543c1.463-0.868,2.495-1.625,3.177-2.809c-1.901-1.364-3.498-3.127-4.676-5.175
	c-1.476-2.566-2.242-5.486-2.221-8.453C30.269,23.51,31.889,19.533,34.784,16.596z"/>
<path fill="#231815" d="M68.813,54.348v7.805h-4v-7.805H68.813z"/>
<path fill="#231815" d="M66.813,34.242c0.709,0,1.365,0.375,1.725,0.987l23.078,39.295c0.363,0.618,0.368,1.384,0.012,2.007
	c-0.356,0.621-1.019,1.006-1.736,1.006H43.734c-0.717,0-1.379-0.385-1.736-1.006c-0.356-0.623-0.352-1.389,0.011-2.007
	l23.078-39.295C65.447,34.618,66.104,34.242,66.813,34.242z M66.813,40.191L47.229,73.537h39.168L66.813,40.191z"/>
<path fill="#231815" d="M66.773,68.891c1.104,0,2-0.896,2-2s-0.896-2-2-2s-2,0.896-2,2S65.669,68.891,66.773,68.891z"/>
</svg>
