<?xml version="1.0" encoding="utf-8"?>
<!-- Generator: Adobe Illustrator 16.0.0, SVG Export Plug-In . SVG Version: 6.00 Build 0)  -->
<!DOCTYPE svg PUBLIC "-//W3C//DTD SVG 1.1//EN" "http://www.w3.org/Graphics/SVG/1.1/DTD/svg11.dtd">
<svg version="1.1" id="레이어_1" xmlns="http://www.w3.org/2000/svg" xmlns:xlink="http://www.w3.org/1999/xlink" x="0px"
	 y="0px" width="90px" height="90px" viewBox="0 0 90 90" enable-background="new 0 0 90 90" xml:space="preserve">
<path fill="#231815" d="M20.518,36.833l3.563,3.587l-6.634,6.658l-0.005,0.005c-2.175,2.216-3.392,5.2-3.392,8.307
	s1.217,6.091,3.392,8.307l0.007,0.007l3.065,3.065L14,73.278l2.828,2.829l6.515-6.51l3.234,3.232l0.008,0.009
	c2.208,2.183,5.185,3.407,8.287,3.407c3.103,0,6.08-1.225,8.288-3.407l0.005-0.005l6.597-6.565l3.253,3.274l2.838-2.82
	L23.355,34.014L20.518,36.833z M46.941,63.431l-6.594,6.563l-0.002,0.002c-1.461,1.442-3.427,2.25-5.474,2.25
	c-2.045,0-4.011-0.807-5.472-2.248l-9.11-9.109c-1.435-1.466-2.24-3.44-2.24-5.499c0-2.06,0.806-4.034,2.241-5.5l6.609-6.631
	L46.941,63.431z"/>
<path fill="#231815" d="M72.482,21.186l4.347-4.363L73.996,14l-4.379,4.395c-1.469-1.147-3.105-2.066-4.856-2.722
	c-2.464-0.922-5.097-1.303-7.72-1.116c-2.623,0.187-5.174,0.938-7.481,2.2c-2.265,1.239-4.244,2.943-5.808,5l-3.61,3.622
	l-3.67-3.694l-2.837,2.819l9.202,9.262l-6.848,6.578l2.771,2.885l6.897-6.625l8.438,8.493l-5.336,5.312l2.822,2.835l5.333-5.31
	l9.218,9.278l2.838-2.819l-3.156-3.178l3.657-3.671c2.05-1.569,3.749-3.554,4.983-5.826c1.257-2.314,2.005-4.873,2.191-7.502
	c0.186-2.629-0.193-5.268-1.112-7.737C74.816,24.554,73.783,22.765,72.482,21.186z M72.654,33.935
	c-0.146,2.059-0.732,4.063-1.717,5.875c-0.984,1.812-2.346,3.39-3.99,4.628l-0.113,0.085l-3.842,3.855l-3.244-3.266l0.104-0.103
	l-2.822-2.835l-0.101,0.1l-8.388-8.442l0.124-0.119l-2.771-2.885l-0.173,0.166l-2.76-2.778l3.822-3.835l0.085-0.114
	c1.233-1.65,2.806-3.015,4.611-4.003c1.804-0.987,3.798-1.573,5.847-1.719s4.107,0.151,6.031,0.872
	c1.926,0.721,3.674,1.849,5.127,3.308c1.455,1.459,2.58,3.214,3.299,5.148S72.8,31.876,72.654,33.935z"/>
</svg>
