<?xml version="1.0" encoding="utf-8"?>
<!-- Generator: Adobe Illustrator 26.1.0, SVG Export Plug-In . SVG Version: 6.00 Build 0)  -->
<svg version="1.1" id="레이어_1" xmlns="http://www.w3.org/2000/svg" xmlns:xlink="http://www.w3.org/1999/xlink" x="0px"
	 y="0px" viewBox="0 0 30 30" style="enable-background:new 0 0 30 30;" xml:space="preserve">
<style type="text/css">
	.st0{fill:none;stroke:#231815;stroke-width:1.5;stroke-linejoin:round;}
	.st1{fill:none;stroke:#231815;stroke-width:1.5;stroke-linecap:round;stroke-linejoin:round;}
	.st2{fill:none;stroke:#231815;stroke-width:1.5;}
</style>
<path class="st0" d="M14.7,3v2.2"/>
<path class="st0" d="M3.2,13.9h2.2"/>
<path class="st0" d="M6,5.7l1.5,1.5"/>
<path class="st0" d="M24,13.9h2.2"/>
<path class="st0" d="M21.8,7.4l1.5-1.5"/>
<path class="st0" d="M21.2,14.7c0-1.6-0.5-3.3-1.6-4.5s-2.5-2.1-4.1-2.3c-0.9-0.1-1.9,0-2.7,0.2c-0.9,0.3-1.6,0.8-2.4,1.4
	S9.1,11,8.7,11.7c-0.3,0.9-0.5,1.7-0.5,2.7v4.8l-0.5,1.5l-0.5,1.5c-0.2,0.4,0,1.4,1.2,1.4h7.1"/>
<path class="st0" d="M8.2,19.9h7.6"/>
<path class="st1" d="M18.1,20.1v2.3l-1,1.4v1h8.5v-1l-1-1.4v-2.3c0-0.4-0.1-0.9-0.2-1.3S24,18,23.6,17.7c-0.3-0.3-0.7-0.5-1.1-0.7
	c-0.4-0.1-0.9-0.2-1.3-0.2C19.9,16.9,18.1,18.2,18.1,20.1z"/>
<path class="st2" d="M21.4,26.8c0.7,0,1.2-0.5,1.2-1.2c0-0.3-0.1-0.5-0.3-0.8h-1.7c-0.2,0.2-0.3,0.4-0.3,0.8
	C20.2,26.2,20.7,26.8,21.4,26.8z"/>
</svg>
