<?xml version="1.0" encoding="utf-8"?>
<!-- Generator: Adobe Illustrator 26.0.2, SVG Export Plug-In . SVG Version: 6.00 Build 0)  -->
<svg version="1.1" id="레이어_1" xmlns="http://www.w3.org/2000/svg" xmlns:xlink="http://www.w3.org/1999/xlink" x="0px"
	 y="0px" viewBox="0 0 30 30" style="enable-background:new 0 0 30 30;" xml:space="preserve">
<style type="text/css">
	.st0{fill:none;stroke:#231815;stroke-width:1.5;}
</style>
<path class="st0" d="M23.3,15c0,0.2,0,0.6,0,0.8l1.9,1.4c0.1,0.1,0.2,0.2,0.2,0.3c0,0.1,0,0.2-0.1,0.3L22.8,22
	c-0.1,0.2-0.4,0.3-0.7,0.2l-2.2-0.9c-0.4,0.3-0.9,0.6-1.3,0.8l-0.3,2.4c0,0.1-0.1,0.2-0.2,0.3c-0.1,0.1-0.2,0.1-0.3,0.1H13
	c-0.2,0-0.6-0.2-0.6-0.4l-0.3-2.3c-0.4-0.2-0.9-0.4-1.3-0.8l-2.2,0.9c-0.2,0.1-0.6,0-0.7-0.2L5.5,18c-0.1-0.1-0.1-0.2-0.1-0.3
	c0-0.1,0.1-0.2,0.2-0.3l1.9-1.4c0-0.3,0-0.6,0-0.8s0-0.6,0-0.8l-1.9-1.5c-0.1-0.1-0.2-0.2-0.2-0.3s0-0.2,0.1-0.3L7.9,8
	C8,7.9,8.1,7.8,8.2,7.8c0.1,0,0.2,0,0.3,0l2.2,0.9c0.4-0.3,0.9-0.6,1.4-0.8l0.3-2.3c0-0.1,0.1-0.2,0.2-0.3c-0.1-0.2,0.1-0.2,0.2-0.2
	h4.8c0.1,0,0.2,0,0.3,0.1c0.1,0.1,0.2,0.2,0.2,0.3l0.3,2.3c0.4,0.2,1,0.4,1.4,0.8l2.2-0.9c0.2-0.1,0.6,0,0.7,0.2l2.3,4.1
	c0.1,0.1,0.1,0.2,0.1,0.3c0,0.1-0.1,0.2-0.2,0.3l-1.9,1.4C23.3,14.4,23.3,14.8,23.3,15z"/>
<path class="st0" d="M13.4,13c0.6-0.6,1.2-0.8,2-0.8s1.4,0.3,2,0.8c0.6,0.4,0.8,1.2,0.8,2s-0.3,1.4-0.8,2s-1.2,0.8-2,0.8
	s-1.4-0.3-2-0.8c-0.6-0.4-0.8-1.2-0.8-2C12.5,14.2,12.9,13.6,13.4,13z"/>
</svg>
