<?xml version="1.0" encoding="utf-8"?>
<!-- Generator: Adobe Illustrator 26.0.2, SVG Export Plug-In . SVG Version: 6.00 Build 0)  -->
<svg version="1.1" id="레이어_1" xmlns="http://www.w3.org/2000/svg" xmlns:xlink="http://www.w3.org/1999/xlink" x="0px"
	 y="0px" viewBox="0 0 30 30" style="enable-background:new 0 0 30 30;" xml:space="preserve">
<style type="text/css">
	.st0{fill:none;stroke:#231815;stroke-width:1.5;stroke-linejoin:round;}
	.st1{fill:none;stroke:#231815;stroke-width:1.5;stroke-linecap:round;stroke-linejoin:round;}
	.st2{fill:none;stroke:#231815;stroke-width:1.5;}
</style>
<path class="st0" d="M14.7,4v2"/>
<path class="st0" d="M4.1,14h2"/>
<path class="st0" d="M6.7,6.5l1.4,1.4"/>
<path class="st0" d="M23.2,14h2"/>
<path class="st0" d="M21.2,8l1.4-1.4"/>
<path class="st0" d="M20.7,14.7c0-1.5-0.5-3-1.5-4.1s-2.3-1.9-3.8-2.1c-0.8-0.1-1.7,0-2.5,0.2C12.1,9,11.4,9.4,10.7,10
	s-1.1,1.3-1.5,2c-0.3,0.8-0.5,1.6-0.5,2.5v4.4l-0.5,1.4l-0.5,1.4c-0.2,0.4,0,1.3,1.1,1.3h6.5"/>
<path class="st0" d="M8.7,19.5h7"/>
<path class="st1" d="M17.8,19.7v2.1l-0.9,1.3v0.9h7.8v-0.9l-0.9-1.3v-2.1c0-0.4-0.1-0.8-0.2-1.2s-0.4-0.7-0.7-1s-0.6-0.5-1-0.6
	c-0.4-0.1-0.8-0.2-1.2-0.2C19.5,16.7,17.8,17.9,17.8,19.7z"/>
<path class="st2" d="M20.8,25.8c0.6,0,1.1-0.5,1.1-1.1c0-0.3-0.1-0.5-0.3-0.7H20c-0.2,0.2-0.3,0.4-0.3,0.7
	C19.7,25.3,20.2,25.8,20.8,25.8z"/>
</svg>
