<?xml version="1.0" encoding="utf-8"?>
<!-- Generator: Adobe Illustrator 26.0.2, SVG Export Plug-In . SVG Version: 6.00 Build 0)  -->
<svg version="1.1" id="레이어_1" xmlns="http://www.w3.org/2000/svg" xmlns:xlink="http://www.w3.org/1999/xlink" x="0px"
	 y="0px" viewBox="0 0 30 30" style="enable-background:new 0 0 30 30;" xml:space="preserve">
<style type="text/css">
	.st0{fill:none;stroke:#231815;stroke-width:1.5;stroke-miterlimit:10;}
	.st1{fill:none;stroke:#231815;stroke-width:1.5;stroke-linejoin:round;stroke-miterlimit:10;}
	.st2{fill:none;stroke:#231815;stroke-width:1.5;stroke-linejoin:round;}
</style>
<path class="st0" d="M15,24.25H6.31c-0.66,0-1.21-0.55-1.21-1.1l0.66-3.3c0-0.66,0.55-1.1,1.21-1.1h7.15"/>
<path class="st1" d="M7.3,18.19v-6.05c0-3.96,3.41-7.15,7.7-7.15s7.7,3.19,7.7,7.15v0.55"/>
<path class="st2" d="M25.78,19.74c0,0.99-0.33,1.87-0.77,2.64c-0.55,0.77-1.32,1.43-2.2,1.76c-0.88,0.33-1.87,0.44-2.75,0.22
	c-0.88-0.22-1.76-0.66-2.42-1.32c-0.66-0.66-1.1-1.54-1.32-2.42c-0.22-0.88-0.11-1.87,0.22-2.75c0.33-0.88,0.99-1.65,1.76-2.2
	c0.77-0.55,1.76-0.77,2.64-0.77c1.32,0,2.53,0.55,3.41,1.43C25.23,17.2,25.78,18.42,25.78,19.74z"/>
<path class="st2" d="M24.02,23.59l3.08,3.52"/>
</svg>
