<?xml version="1.0" encoding="utf-8"?>
<!-- Generator: Adobe Illustrator 26.1.0, SVG Export Plug-In . SVG Version: 6.00 Build 0)  -->
<svg version="1.1" id="레이어_1" xmlns="http://www.w3.org/2000/svg" xmlns:xlink="http://www.w3.org/1999/xlink" x="0px"
	 y="0px" viewBox="0 0 20 20" style="enable-background:new 0 0 20 20;" xml:space="preserve">
<style type="text/css">
	.st0{fill:#231815;}
</style>
<path class="st0" d="M8.3,10.4L8.3,10.4c0.5-0.2,0.8-0.6,0.8-1.1C9.1,8.5,8.5,8,7.6,8C7,8,6.6,8.2,6.1,8.6l0.5,0.6
	c0.3-0.3,0.6-0.4,0.9-0.4c0.4,0,0.6,0.2,0.6,0.6c0,0.4-0.3,0.7-1.2,0.7v0.7c1,0,1.3,0.3,1.3,0.8c0,0.4-0.3,0.7-0.8,0.7
	c-0.4,0-0.8-0.2-1.1-0.5L6,12.3C6.3,12.7,6.8,13,7.6,13c0.9,0,1.7-0.5,1.7-1.4C9.3,11,8.9,10.6,8.3,10.4z M12.1,8.1h-0.7
	c-0.3,0.2-0.6,0.3-1.1,0.4v0.6h0.9v3h-1v0.8H13v-0.8h-0.9V8.1z"/>
<path class="st0" d="M16.2,15.7c0,0.2-0.2,0.4-0.4,0.4H3.3c-0.1,0-0.2,0-0.3-0.1c-0.1-0.1-0.1-0.2-0.1-0.3V4.8
	c0-0.2,0.2-0.4,0.4-0.4h1.2v0.8h0.8V4.4h8.4v0.8h0.8V4.4h1.2c0.2,0,0.4,0.2,0.4,0.4L16.2,15.7L16.2,15.7z M15.7,3.6h-1.2V2h-0.8v1.6
	H5.3V2H4.5v1.6H3.3C2.6,3.6,2,4.1,2,4.8v10.9C2,16.4,2.6,17,3.3,17h12.5c0.7,0,1.3-0.6,1.3-1.3V4.8C17,4.1,16.4,3.6,15.7,3.6
	L15.7,3.6z"/>
</svg>
