<?xml version="1.0" encoding="utf-8"?>
<!-- Generator: Adobe Illustrator 26.0.2, SVG Export Plug-In . SVG Version: 6.00 Build 0)  -->
<svg version="1.1" id="레이어_1" xmlns="http://www.w3.org/2000/svg" xmlns:xlink="http://www.w3.org/1999/xlink" x="0px"
	 y="0px" viewBox="0 0 30 30" style="enable-background:new 0 0 30 30;" xml:space="preserve">
<style type="text/css">
	.st0{fill:none;stroke:#231815;stroke-width:1.5;stroke-linejoin:round;}
</style>
<path class="st0" d="M20.6,5.7c1.7,1,3.2,2.4,4.1,4.1s1.6,3.7,1.6,5.6s-0.5,3.9-1.4,5.6s-2.3,3.2-4,4.3"/>
<path class="st0" d="M17.1,11.6c0.7,0.3,1.3,0.9,1.6,1.6c0.5,0.7,0.6,1.4,0.7,2.2c0,0.8-0.1,1.6-0.6,2.2s-0.9,1.3-1.6,1.7"/>
<path class="st0" d="M18.9,8.7c1.2,0.7,2.2,1.6,2.9,2.9s1,2.5,1.2,3.9c0,1.4-0.3,2.8-0.9,3.9s-1.6,2.2-2.8,3"/>
<path class="st0" d="M14.1,7.5l-6.5,3.8H5.6c-0.3,0-0.7,0.1-0.9,0.3c-0.2,0.2-0.3,0.6-0.3,0.9v5.9c0,0.3,0.1,0.6,0.3,0.8
	s0.6,0.3,0.9,0.3h2.2l6.5,3.8V7.5H14.1z"/>
</svg>
