<?xml version="1.0" encoding="utf-8"?>
<!-- Generator: Adobe Illustrator 16.0.0, SVG Export Plug-In . SVG Version: 6.00 Build 0)  -->
<!DOCTYPE svg PUBLIC "-//W3C//DTD SVG 1.1//EN" "http://www.w3.org/Graphics/SVG/1.1/DTD/svg11.dtd">
<svg version="1.1" id="레이어_1" xmlns="http://www.w3.org/2000/svg" xmlns:xlink="http://www.w3.org/1999/xlink" x="0px"
	 y="0px" width="20px" height="20px" viewBox="0 0 20 20" enable-background="new 0 0 20 20" xml:space="preserve">
<path fill="#231815" d="M8.313,10.416v-0.033c0.508-0.202,0.797-0.579,0.797-1.1C9.11,8.456,8.487,8,7.568,8
	c-0.56,0-1.015,0.228-1.427,0.593l0.482,0.586c0.283-0.26,0.56-0.423,0.9-0.43c0.405,0.006,0.636,0.228,0.636,0.605
	c0,0.43-0.283,0.736-1.157,0.736v0.689c1.035,0,1.311,0.294,1.311,0.77c0,0.43-0.328,0.67-0.81,0.67c-0.43,0-0.778-0.215-1.06-0.494
	L6,12.329C6.334,12.714,6.842,13,7.594,13c0.906,0,1.67-0.514,1.67-1.399C9.264,10.969,8.853,10.564,8.313,10.416z M12.107,8.091
	h-0.7c-0.302,0.189-0.63,0.313-1.105,0.404v0.593h0.861v3.047h-1.022v0.773H13v-0.773h-0.893V8.091z"/>
<path fill="#231815" d="M16.166,15.742c0,0.231-0.188,0.42-0.418,0.42H3.251c-0.11,0-0.217-0.045-0.295-0.123
	c-0.079-0.079-0.123-0.186-0.123-0.297V4.813c0-0.231,0.188-0.42,0.417-0.42h1.243v0.752H5.33V4.393h8.377v0.752h0.836V4.393h1.205
	c0.229,0,0.417,0.188,0.417,0.42L16.166,15.742L16.166,15.742z M15.748,3.554h-1.205V2h-0.836v1.554H5.33V2H4.494v1.554H3.251
	C2.561,3.554,2,4.118,2,4.813v10.928C2,16.436,2.561,17,3.251,17h12.497C16.438,17,17,16.436,17,15.741V4.814
	C17,4.119,16.438,3.555,15.748,3.554L15.748,3.554z"/>
</svg>
