<?xml version="1.0" encoding="utf-8"?>
<!-- Generator: Adobe Illustrator 26.4.0, SVG Export Plug-In . SVG Version: 6.00 Build 0)  -->
<svg version="1.1" id="레이어_1" xmlns="http://www.w3.org/2000/svg" xmlns:xlink="http://www.w3.org/1999/xlink" x="0px"
	 y="0px" viewBox="0 0 25.512 25.512" enable-background="new 0 0 25.512 25.512" xml:space="preserve">
<path fill="none" stroke="#231815" stroke-width="1.3" stroke-linejoin="round" stroke-miterlimit="10" d="M11.225,19.758h-4.03
	L3.97,9.884l8.364-6.144l8.462,5.943"/>
<path fill="#FFFFFF" stroke="#231815" stroke-width="1.3" stroke-miterlimit="10" d="M13.944,2.126h-3.022V5.15h3.022V2.126z"/>
<path fill="#FFFFFF" stroke="#231815" stroke-width="1.3" stroke-miterlimit="10" d="M8.907,18.247H5.885v3.021h3.022V18.247z"/>
<path fill="none" stroke="#231815" stroke-width="1.3" stroke-linejoin="round" d="M21.3,16.634c0,0.906-0.302,1.714-0.706,2.418
	c-0.503,0.706-1.209,1.31-2.014,1.613c-0.807,0.301-1.713,0.402-2.52,0.2c-0.907-0.2-1.612-0.605-2.217-1.209
	c-0.604-0.604-1.007-1.41-1.209-2.215c-0.201-0.808-0.101-1.714,0.303-2.52c0.302-0.806,0.906-1.512,1.612-2.018
	c0.705-0.501,1.612-0.704,2.417-0.704c1.209,0,2.317,0.505,3.124,1.312C20.796,14.318,21.3,15.425,21.3,16.634z"/>
<path fill="none" stroke="#231815" stroke-width="1.3" stroke-linejoin="round" d="M19.687,20.161l2.822,3.226"/>
<path fill="#FFFFFF" stroke="#231815" stroke-width="1.3" stroke-miterlimit="10" d="M4.876,8.171H1.855v3.023h3.021V8.171z"/>
<path fill="#FFFFFF" stroke="#231815" stroke-width="1.3" stroke-miterlimit="10" d="M23.013,8.171H19.99v3.023h3.022V8.171z"/>
</svg>
