<?xml version="1.0" encoding="utf-8"?>
<!-- Generator: Adobe Illustrator 26.4.0, SVG Export Plug-In . SVG Version: 6.00 Build 0)  -->
<svg version="1.1" id="레이어_1" xmlns="http://www.w3.org/2000/svg" xmlns:xlink="http://www.w3.org/1999/xlink" x="0px"
	 y="0px" viewBox="0 0 19.842 19.843" enable-background="new 0 0 19.842 19.843" xml:space="preserve">
<path fill="none" stroke="#231815" stroke-width="1.1144" stroke-miterlimit="10" d="M9.921,15.202v3.188"/>
<path fill="none" stroke="#231815" stroke-width="1.1144" stroke-miterlimit="10" d="M5.669,18.39h8.505"/>
<path fill="none" stroke="#231815" stroke-width="1.1144" stroke-miterlimit="10" d="M4.074,8.823v0.851
	c0,1.381,0.638,2.871,1.701,3.934c1.062,1.062,2.551,1.594,4.146,1.594c1.594,0,3.084-0.638,4.147-1.594
	c1.063-1.063,1.701-2.447,1.701-3.934V8.823"/>
<path fill="none" stroke="#231815" stroke-width="1.1144" stroke-miterlimit="10" d="M5.669,7.761h8.505"/>
<path fill="none" stroke="#231815" stroke-width="1.1144" stroke-miterlimit="10" d="M13.642,5.316v3.933
	c0,1.063-0.425,2.02-1.063,2.765c-0.743,0.744-1.594,1.169-2.657,1.169c-0.958,0-1.913-0.425-2.658-1.169
	c-0.743-0.744-1.062-1.7-1.062-2.765V5.316c0-1.063,0.424-2.02,1.062-2.765c0.743-0.744,1.594-1.169,2.658-1.169
	c0.957,0,1.912,0.425,2.657,1.169C13.216,3.295,13.642,4.252,13.642,5.316z"/>
</svg>
