<?xml version="1.0" encoding="utf-8"?>
<!-- Generator: Adobe Illustrator 26.4.0, SVG Export Plug-In . SVG Version: 6.00 Build 0)  -->
<svg version="1.1" id="레이어_1" xmlns="http://www.w3.org/2000/svg" xmlns:xlink="http://www.w3.org/1999/xlink" x="0px"
	 y="0px" viewBox="4.162 3.662 22.677 22.677" enable-background="new 4.162 3.662 22.677 22.677" xml:space="preserve">
<path fill="#F37321" d="M15.644,5.079c5.48,0,9.921,4.442,9.921,9.921c0,5.48-4.441,9.921-9.921,9.921
	c-5.479,0-9.921-4.441-9.921-9.921C5.723,9.521,10.165,5.079,15.644,5.079z"/>
<path fill="none" stroke="#FFFFFF" stroke-width="0.6614" d="M16.776,11.197c0.502,0,0.909,0.407,0.909,0.91
	c0,0.502-0.407,0.909-0.909,0.909c-0.503,0-0.91-0.407-0.91-0.909C15.867,11.604,16.273,11.197,16.776,11.197z"/>
<path fill="none" stroke="#FFFFFF" stroke-width="0.6614" stroke-linejoin="round" d="M17.835,14.189
	c-1.017-1.423-2.808-1.587-3.743-1.479c-0.126,0.015-0.238,0.082-0.317,0.18l-1.132,1.386c-0.246,0.301-0.216,0.741,0.069,1.006
	c0.305,0.284,0.784,0.26,1.058-0.054l0.723-0.827l-0.524,1.002L13.7,16.793h-1.15c-0.426,0-0.768,0.353-0.756,0.778
	c0.012,0.409,0.347,0.734,0.756,0.734h1.632c0.315,0,0.594-0.201,0.694-0.5l0.247-0.74l1.19,2.071
	c0.209,0.362,0.662,0.502,1.038,0.319c0.365-0.177,0.511-0.622,0.321-0.979l-1.454-2.746l0.147-0.733l1.192,0.732
	c0.024,0.016,0.051,0.022,0.077,0.022l0.678-0.011c0.431-0.006,0.773-0.363,0.76-0.793c-0.012-0.41-0.342-0.738-0.752-0.748
	L17.835,14.189z"/>
<path fill="none" stroke="#FFFFFF" stroke-width="0.6614" stroke-linejoin="round" stroke-miterlimit="10" d="M12.048,10.701h-2.026
	v2.034"/>
<path fill="none" stroke="#FFFFFF" stroke-width="0.6614" stroke-linejoin="round" stroke-miterlimit="10" d="M19.223,10.701h2.032
	v2.034"/>
<path fill="none" stroke="#FFFFFF" stroke-width="0.6614" stroke-linejoin="round" stroke-miterlimit="10" d="M19.223,19.999h2.032
	v-2.022"/>
<path fill="none" stroke="#FFFFFF" stroke-width="0.6614" stroke-linejoin="round" stroke-miterlimit="10" d="M12.048,19.998h-2.026
	v-2.017"/>
</svg>
