<?xml version="1.0" encoding="utf-8"?>
<!-- Generator: Adobe Illustrator 26.4.0, SVG Export Plug-In . SVG Version: 6.00 Build 0)  -->
<svg version="1.1" id="레이어_1" xmlns="http://www.w3.org/2000/svg" xmlns:xlink="http://www.w3.org/1999/xlink" x="0px"
	 y="0px" viewBox="3.662 3.662 22.677 22.677" enable-background="new 3.662 3.662 22.677 22.677" xml:space="preserve">
<path fill="#F37321" d="M15,5.079c5.479,0,9.921,4.442,9.921,9.921c0,5.48-4.441,9.921-9.921,9.921c-5.48,0-9.921-4.441-9.921-9.921
	C5.079,9.521,9.52,5.079,15,5.079z"/>
<path fill="none" stroke="#FFFFFF" stroke-width="0.6614" stroke-miterlimit="10" d="M16.683,16.824v2.614
	c0,0.155-0.062,0.304-0.174,0.414c-0.111,0.108-0.261,0.17-0.419,0.17h-4.735c-0.157,0-0.308-0.062-0.419-0.17
	c-0.111-0.11-0.173-0.259-0.173-0.414v-8.753c0-0.155,0.062-0.303,0.173-0.413c0.111-0.11,0.262-0.171,0.419-0.171h4.735
	c0.158,0,0.308,0.061,0.419,0.171c0.111,0.109,0.174,0.258,0.174,0.413v3.198"/>
<path fill="none" stroke="#FFFFFF" stroke-width="0.6614" stroke-linejoin="round" d="M14.994,17.33l-1.99-1.984l1.99-1.979"/>
<path fill="none" stroke="#FFFFFF" stroke-width="0.6614" stroke-linejoin="round" d="M20.931,15.346h-7.854"/>
</svg>
