<?xml version="1.0" encoding="utf-8"?>
<!-- Generator: Adobe Illustrator 26.4.0, SVG Export Plug-In . SVG Version: 6.00 Build 0)  -->
<svg version="1.1" id="레이어_1" xmlns="http://www.w3.org/2000/svg" xmlns:xlink="http://www.w3.org/1999/xlink" x="0px"
	 y="0px" viewBox="4.162 3.662 22.677 22.677" enable-background="new 4.162 3.662 22.677 22.677" xml:space="preserve">
<path fill="#F37321" d="M15.445,5.079c5.479,0,9.921,4.442,9.921,9.921c0,5.48-4.441,9.921-9.921,9.921S5.524,20.48,5.524,15
	C5.524,9.521,9.966,5.079,15.445,5.079z"/>
<path fill="none" stroke="#FFFFFF" stroke-width="0.6614" stroke-linejoin="round" d="M16.885,10.839
	c0,0.291-0.086,0.576-0.248,0.817c-0.162,0.242-0.392,0.431-0.661,0.542c-0.269,0.111-0.564,0.14-0.85,0.083
	c-0.286-0.057-0.548-0.197-0.754-0.403c-0.206-0.206-0.346-0.468-0.402-0.753c-0.057-0.286-0.028-0.582,0.083-0.851
	c0.111-0.269,0.3-0.499,0.542-0.66c0.242-0.162,0.527-0.248,0.818-0.248c0.39,0,0.764,0.155,1.041,0.431
	C16.73,10.075,16.885,10.449,16.885,10.839L16.885,10.839z"/>
<path fill="none" stroke="#FFFFFF" stroke-width="0.6614" stroke-linejoin="round" d="M17.995,13.494
	c0-0.167-0.033-0.333-0.101-0.487c-0.067-0.153-0.165-0.29-0.288-0.403c-0.123-0.112-0.269-0.197-0.426-0.249
	c-0.158-0.052-0.304-0.052-0.491-0.052h-1.316h-1.317c-0.331-0.002-0.65,0.124-0.892,0.352c-0.241,0.229-0.387,0.542-0.407,0.875
	l-0.407,2.931c0,0.158,0.062,0.311,0.173,0.422c0.111,0.111,0.261,0.175,0.418,0.175h0.679l0.166,2.979
	c0,0.158,0.062,0.31,0.173,0.422c0.11,0.111,0.261,0.175,0.417,0.175h2.002c0.156,0,0.307-0.063,0.417-0.175
	c0.111-0.112,0.173-0.264,0.173-0.422l0.166-2.979h0.685c0.156,0,0.308-0.063,0.418-0.175c0.11-0.111,0.173-0.264,0.173-0.422
	L17.995,13.494z"/>
</svg>
