<?xml version="1.0" encoding="UTF-8" standalone="no"?>
<svg
   xmlns:dc="http://purl.org/dc/elements/1.1/"
   xmlns:cc="http://creativecommons.org/ns#"
   xmlns:rdf="http://www.w3.org/1999/02/22-rdf-syntax-ns#"
   xmlns:svg="http://www.w3.org/2000/svg"
   xmlns="http://www.w3.org/2000/svg"
   viewBox="0 0 30.236267 30.236267"
   height="30.236267"
   width="30.236267"
   xml:space="preserve"
   id="svg2"
   version="1.1"><metadata
     id="metadata8"><rdf:RDF><cc:Work
         rdf:about=""><dc:format>image/svg+xml</dc:format><dc:type
           rdf:resource="http://purl.org/dc/dcmitype/StillImage" /></cc:Work></rdf:RDF></metadata><defs
     id="defs6"><clipPath
       id="clipPath18"
       clipPathUnits="userSpaceOnUse"><path
         id="path16"
         d="M 0,22.677 H 22.677 V 0 H 0 Z" /></clipPath><clipPath
       id="clipPath38"
       clipPathUnits="userSpaceOnUse"><path
         id="path36"
         d="M 0,22.677 H 22.677 V 0 H 0 Z" /></clipPath></defs><g
     transform="matrix(1.3333333,0,0,-1.3333333,0,30.236267)"
     id="g10"><g
       id="g12"><g
         clip-path="url(#clipPath18)"
         id="g14"><g
           transform="translate(0.709,18.6997)"
           id="g20"><path
             id="path22"
             style="fill:none;stroke:#231815;stroke-width:1.29999995;stroke-linecap:butt;stroke-linejoin:miter;stroke-miterlimit:10;stroke-dasharray:none;stroke-opacity:1"
             d="M 0,0 H 19.204" /></g></g></g><g
       transform="translate(7.75,15.499)"
       id="g24"><path
         id="path26"
         style="fill:none;stroke:#231815;stroke-width:1.29999995;stroke-linecap:butt;stroke-linejoin:round;stroke-miterlimit:10;stroke-dasharray:none;stroke-opacity:1"
         d="M 0,0 V -7.681" /></g><g
       transform="translate(12.8716,15.499)"
       id="g28"><path
         id="path30"
         style="fill:none;stroke:#231815;stroke-width:1.29999995;stroke-linecap:butt;stroke-linejoin:round;stroke-miterlimit:10;stroke-dasharray:none;stroke-opacity:1"
         d="M 0,0 V -3.841" /></g><g
       id="g32"><g
         clip-path="url(#clipPath38)"
         id="g34"><g
           transform="translate(6.4697,18.0596)"
           id="g40"><path
             id="path42"
             style="fill:none;stroke:#231815;stroke-width:1.29999995;stroke-linecap:butt;stroke-linejoin:miter;stroke-miterlimit:10;stroke-dasharray:none;stroke-opacity:1"
             d="M 0,0 V 1.92 C 0,2.56 0.513,3.2 1.152,3.2 h 5.25 C 7.041,3.2 7.554,2.56 7.554,1.92 V 0" /></g><g
           transform="translate(8.3906,4.7461)"
           id="g44"><path
             id="path46"
             style="fill:none;stroke:#231815;stroke-width:1.29999995;stroke-linecap:butt;stroke-linejoin:round;stroke-miterlimit:10;stroke-dasharray:none;stroke-opacity:1"
             d="m 0,0 h -3.2 c -0.769,0 -1.28,0.512 -1.28,1.151 v 12.803 m 12.801,0 V 10.113 6.912" /></g><g
           transform="translate(19.272,1.417)"
           id="g48"><path
             id="path50"
             style="fill:#231815;fill-opacity:1;fill-rule:nonzero;stroke:none"
             d="M 0,0 V 7.297 H 1.152 V 1.024 h 1.92 V 0 Z m -3.969,0 v 7.297 h 1.153 V 1.024 h 1.92 V 0 Z m -2.944,5.121 c 0,0.128 0,0.256 -0.129,0.384 V 5.889 6.273 5.889 5.505 c 0,-0.128 0,-0.256 -0.127,-0.384 L -7.554,2.944 h 1.281 z M -5.889,0 -6.273,1.921 H -7.937 L -8.321,0 h -1.28 l 1.664,7.297 H -6.4 L -4.609,0 Z" /></g></g></g></g></svg>