<?xml version="1.0" encoding="UTF-8" standalone="no"?>
<svg
   xmlns:dc="http://purl.org/dc/elements/1.1/"
   xmlns:cc="http://creativecommons.org/ns#"
   xmlns:rdf="http://www.w3.org/1999/02/22-rdf-syntax-ns#"
   xmlns:svg="http://www.w3.org/2000/svg"
   xmlns="http://www.w3.org/2000/svg"
   viewBox="0 0 30.236267 30.236267"
   height="30.236267"
   width="30.236267"
   xml:space="preserve"
   id="svg2"
   version="1.1"><metadata
     id="metadata8"><rdf:RDF><cc:Work
         rdf:about=""><dc:format>image/svg+xml</dc:format><dc:type
           rdf:resource="http://purl.org/dc/dcmitype/StillImage" /></cc:Work></rdf:RDF></metadata><defs
     id="defs6"><clipPath
       id="clipPath18"
       clipPathUnits="userSpaceOnUse"><path
         id="path16"
         d="M 0,22.677 H 22.677 V 0 H 0 Z" /></clipPath></defs><g
     transform="matrix(1.3333333,0,0,-1.3333333,0,30.236267)"
     id="g10"><g
       id="g12"><g
         clip-path="url(#clipPath18)"
         id="g14"><g
           transform="translate(11.3374,21.2603)"
           id="g20"><path
             id="path22"
             style="fill:#f37321;fill-opacity:1;fill-rule:nonzero;stroke:none"
             d="m 0,0 c 5.479,0 9.923,-4.442 9.923,-9.921 0,-5.48 -4.444,-9.921 -9.923,-9.921 -5.478,0 -9.92,4.441 -9.92,9.921 C -9.92,-4.442 -5.478,0 0,0" /></g><g
           transform="translate(15.77,7.1719)"
           id="g24"><path
             id="path26"
             style="fill:none;stroke:#ffffff;stroke-width:0.66100001;stroke-linecap:butt;stroke-linejoin:miter;stroke-miterlimit:10;stroke-dasharray:none;stroke-opacity:1"
             d="M 0,0 H -9.327 C -9.656,0 -9.92,0.265 -9.92,0.596 v 7.407 c 0,0.331 0.264,0.596 0.593,0.596 H 0 c 0.331,0 0.596,-0.265 0.596,-0.596 V 0.529 C 0.529,0.265 0.331,0 0,0 Z" /></g><g
           transform="translate(7.7007,13.3232)"
           id="g28"><path
             id="path30"
             style="fill:#ffffff;fill-opacity:1;fill-rule:nonzero;stroke:none"
             d="M 0,0 H 2.382 V -0.661 H 0.728 V -1.587 H 2.117 V -2.249 H 0.728 v -1.058 h 1.654 v -0.662 l -2.382,0 z" /></g><g
           transform="translate(10.7446,10.4795)"
           id="g32"><path
             id="path34"
             style="fill:#ffffff;fill-opacity:1;fill-rule:nonzero;stroke:none"
             d="M 0,0 V 1.323 H -0.398 V 1.918 L 0.065,1.984 0.131,2.778 H 0.793 V 1.984 H 1.521 V 1.389 H 0.793 V 0.066 c 0,-0.331 0.131,-0.463 0.396,-0.463 0.066,0 0.199,0 0.265,0.066 L 1.586,-0.859 C 1.454,-1.059 1.255,-1.125 0.991,-1.125 0.264,-1.125 0,-0.662 0,0" /></g><g
           transform="translate(12.5952,10.876)"
           id="g36"><path
             id="path38"
             style="fill:#ffffff;fill-opacity:1;fill-rule:nonzero;stroke:none"
             d="m 0,0 c 0,0.993 0.728,1.521 1.521,1.521 0.331,0 0.662,-0.132 0.861,-0.33 L 1.984,0.662 C 1.852,0.793 1.72,0.86 1.521,0.86 1.059,0.86 0.793,0.529 0.793,-0.066 c 0,-0.529 0.331,-0.926 0.728,-0.926 0.199,0 0.397,0.133 0.595,0.264 L 2.447,-1.256 C 2.183,-1.521 1.786,-1.588 1.521,-1.588 0.597,-1.521 0,-0.926 0,0" /></g></g></g></g></svg>