<?xml version="1.0" encoding="utf-8"?>
<!-- Generator: Adobe Illustrator 26.4.0, SVG Export Plug-In . SVG Version: 6.00 Build 0)  -->
<svg version="1.1" baseProfile="tiny"
	 id="svg2" xmlns:dc="http://purl.org/dc/elements/1.1/" xmlns:cc="http://creativecommons.org/ns#" xmlns:svg="http://www.w3.org/2000/svg" xmlns:rdf="http://www.w3.org/1999/02/22-rdf-syntax-ns#"
	 xmlns="http://www.w3.org/2000/svg" xmlns:xlink="http://www.w3.org/1999/xlink" x="0px" y="0px" viewBox="0 0 30.236 30.236"
	 overflow="visible" xml:space="preserve">
<g>
	<g id="g10" transform="matrix(1.3333333,0,0,-1.3333333,0,30.2364)">
		<g id="g12">
			<g>
				<g id="g14">
					<g id="g20" transform="translate(9.812,5.2598)">
						<path id="path22" d="M0.095,0.505c-3.898,0-7.07,3.171-7.07,7.07c0,3.898,3.172,7.07,7.07,7.07s7.071-3.172,7.071-7.07
							C7.166,3.675,3.993,0.505,0.095,0.505 M10.065-1.629L6.304,2.132c1.279,1.455,2.061,3.357,2.061,5.442
							c0,4.559-3.711,8.268-8.27,8.268s-8.268-3.709-8.268-8.268s3.709-8.269,8.268-8.269c2.019,0,3.871,0.731,5.308,1.937
							l3.769-3.767l0.51-0.512l0.895,0.895L10.065-1.629z"/>
					</g>
				</g>
			</g>
		</g>
	</g>
</g>
</svg>
