<?xml version="1.0" encoding="utf-8"?>
<!-- Generator: Adobe Illustrator 26.4.0, SVG Export Plug-In . SVG Version: 6.00 Build 0)  -->
<svg version="1.1"
	 id="svg2" xmlns:dc="http://purl.org/dc/elements/1.1/" xmlns:cc="http://creativecommons.org/ns#" xmlns:svg="http://www.w3.org/2000/svg" xmlns:rdf="http://www.w3.org/1999/02/22-rdf-syntax-ns#"
	 xmlns="http://www.w3.org/2000/svg" xmlns:xlink="http://www.w3.org/1999/xlink" x="0px" y="0px" viewBox="0 0 30.236 30.236"
	 enable-background="new 0 0 30.236 30.236" xml:space="preserve">
<g id="g10" transform="matrix(1.3333333,0,0,-1.3333333,0,30.236267)">
	<g id="g12">
		<g>
			<g id="g14">
				<g id="g20" transform="translate(1.4175,15.7041)">
					<path id="path22" fill="none" stroke="#231815" stroke-width="1.7333" stroke-miterlimit="13.3333" d="M0,0l5.556,5.556"/>
				</g>
				<g id="g24" transform="translate(1.4175,10.2803)">
					<path id="path26" fill="none" stroke="#231815" stroke-width="1.7333" stroke-miterlimit="13.3333" d="M0,0l4.365,4.365"/>
				</g>
				<g id="g28" transform="translate(1.4175,4.7246)">
					<path id="path30" fill="none" stroke="#231815" stroke-width="1.7333" stroke-miterlimit="13.3333" d="M0,0l4.365,4.365"/>
				</g>
				<g id="g32" transform="translate(4.7246,1.417)">
					<path id="path34" fill="none" stroke="#231815" stroke-width="1.7333" stroke-miterlimit="13.3333" d="M0,0l4.365,4.365"/>
				</g>
				<g id="g36" transform="translate(10.2803,1.417)">
					<path id="path38" fill="none" stroke="#231815" stroke-width="1.7333" stroke-miterlimit="13.3333" d="M0,0l4.366,4.365"/>
				</g>
				<g id="g40" transform="translate(15.7036,1.417)">
					<path id="path42" fill="none" stroke="#231815" stroke-width="1.7333" stroke-miterlimit="13.3333" d="M0,0l5.557,5.557"/>
				</g>
				<g id="g44" transform="translate(8.0317,16.8945)">
					<path id="path46" fill="none" stroke="#231815" stroke-width="1.7333" stroke-miterlimit="13.3333" d="M0,0l4.365,4.365"/>
				</g>
				<g id="g48" transform="translate(13.5874,16.8945)">
					<path id="path50" fill="none" stroke="#231815" stroke-width="1.7333" stroke-miterlimit="13.3333" d="M0,0l4.365,4.365"/>
				</g>
				<g id="g52" transform="translate(16.895,13.5874)">
					<path id="path54" fill="none" stroke="#231815" stroke-width="1.7333" stroke-miterlimit="13.3333" d="M0,0l4.365,4.365"/>
				</g>
				<g id="g56" transform="translate(16.895,8.0312)">
					<path id="path58" fill="none" stroke="#231815" stroke-width="1.7333" stroke-miterlimit="13.3333" d="M0,0l4.365,4.366"/>
				</g>
			</g>
		</g>
	</g>
	<g id="g60" transform="translate(16.895,16.8945)">
		<path id="path62" fill="none" stroke="#231815" stroke-width="1.7333" stroke-miterlimit="13.3333" d="M0,0h-11.112v-10.979
			h10.979V0H0z"/>
	</g>
	<g id="g64">
		<g>
			<g id="g66">
				<path id="path72" fill="none" stroke="#231815" stroke-width="1.7333" stroke-miterlimit="13.3333" d="M21.26,21.26H1.417V1.417
					H21.26V21.26z"/>
			</g>
		</g>
	</g>
</g>
</svg>
