<?xml version="1.0" encoding="utf-8"?>
<!-- Generator: Adobe Illustrator 26.4.0, SVG Export Plug-In . SVG Version: 6.00 Build 0)  -->
<svg version="1.1" id="레이어_1" xmlns="http://www.w3.org/2000/svg" xmlns:xlink="http://www.w3.org/1999/xlink" x="0px"
	 y="0px" viewBox="411.024 287.719 19.843 19.843" enable-background="new 411.024 287.719 19.843 19.843" xml:space="preserve">
<path fill="none" stroke="#000000" d="M421.073,302.502l3.199,3.2l5.887-6.398"/>
<path d="M412.243,291.37h-0.512H412.243z M412.243,301.607h0.512H412.243z M411.731,291.37v10.237h1.023V291.37H411.731z
	 M416.339,289.579h-2.816v1.023h2.816V289.579z M413.522,303.399h4.479v-1.024h-4.479V303.399z M428.112,297.128v-5.758h-1.023
	v5.758H428.112z M426.319,289.579h-9.98v1.023h9.98V289.579z M428.112,291.37c0-1.023-0.768-1.791-1.793-1.791v1.023
	c0.385,0,0.77,0.384,0.77,0.768H428.112z M411.731,301.607c0,1.023,0.768,1.792,1.791,1.792v-1.024
	c-0.384,0-0.768-0.384-0.768-0.768H411.731L411.731,301.607z M412.755,291.37c0-0.384,0.384-0.768,0.768-0.768v-1.023
	c-1.023,0-1.791,0.768-1.791,1.791H412.755z"/>
<path fill="none" stroke="#000000" stroke-linejoin="round" d="M422.608,296.745l-3.838,2.175v-4.35L422.608,296.745z"/>
</svg>
