<?xml version="1.0" encoding="utf-8"?>
<!-- Generator: Adobe Illustrator 26.4.0, SVG Export Plug-In . SVG Version: 6.00 Build 0)  -->
<svg version="1.1" id="레이어_1" xmlns="http://www.w3.org/2000/svg" xmlns:xlink="http://www.w3.org/1999/xlink" x="0px"
	 y="0px" viewBox="411.024 287.719 19.843 19.843" enable-background="new 411.024 287.719 19.843 19.843" xml:space="preserve">
<path fill="none" stroke="#000000" stroke-linejoin="round" d="M430.158,305.876h-11.225l5.614-9.151L430.158,305.876z"/>
<path d="M423.814,304.046c0-0.244,0.121-0.366,0.244-0.488c0.121-0.122,0.365-0.244,0.488-0.244c0.244,0,0.365,0.122,0.488,0.244
	c0.121,0.122,0.242,0.366,0.242,0.488c0,0.244-0.121,0.366-0.242,0.488c-0.123,0.122-0.367,0.244-0.488,0.244
	c-0.244,0-0.367-0.122-0.488-0.244C423.935,304.413,423.814,304.291,423.814,304.046z"/>
<path fill="none" stroke="#000000" stroke-linejoin="round" d="M424.546,302.583v-2.44"/>
<path d="M412.222,291.112h-0.488H412.222z M412.222,300.874h0.488H412.222z M411.733,291.112v9.761h0.977v-9.761H411.733z
	 M416.126,289.404h-2.685v0.977h2.685V289.404z M413.441,302.583h4.271v-0.977h-4.271V302.583z M427.353,295.383v-4.271h-0.977
	v4.271H427.353z M425.644,289.404h-9.518v0.977h9.518V289.404z M427.353,291.112c0-0.976-0.732-1.708-1.709-1.708v0.977
	c0.365,0,0.732,0.366,0.732,0.732H427.353z M411.733,300.874c0,0.977,0.732,1.709,1.708,1.709v-0.977
	c-0.365,0-0.732-0.366-0.732-0.732H411.733L411.733,300.874z M412.71,291.112c0-0.366,0.366-0.732,0.732-0.732v-0.977
	c-0.976,0-1.708,0.732-1.708,1.708H412.71z"/>
<path fill="none" stroke="#000000" stroke-linejoin="round" d="M422.228,296.359l-3.662,2.074v-4.148L422.228,296.359z"/>
</svg>
