<?xml version="1.0" encoding="utf-8"?>
<!-- Generator: Adobe Illustrator 26.4.0, SVG Export Plug-In . SVG Version: 6.00 Build 0)  -->
<svg version="1.1" id="레이어_1" xmlns="http://www.w3.org/2000/svg" xmlns:xlink="http://www.w3.org/1999/xlink" x="0px"
	 y="0px" viewBox="411.024 287.719 19.843 19.843" enable-background="new 411.024 287.719 19.843 19.843" xml:space="preserve">
<path d="M412.218,292.575h-0.485H412.218z M412.218,302.272h0.484H412.218z M411.733,292.575v9.697h0.97v-9.697H411.733z
	 M416.097,290.877h-2.667v0.97h2.667V290.877z M413.43,303.969h4.242V303h-4.242V303.969z M427.249,298.029v-5.454h-0.97v5.454
	H427.249z M425.552,290.877h-9.455v0.97h9.455V290.877z M427.249,292.575c0-0.97-0.727-1.697-1.696-1.697v0.97
	c0.363,0,0.727,0.363,0.727,0.728H427.249z M411.733,302.272c0,0.97,0.727,1.697,1.697,1.697V303c-0.364,0-0.728-0.364-0.728-0.728
	H411.733L411.733,302.272z M412.703,292.575c0-0.364,0.363-0.728,0.728-0.728v-0.97c-0.97,0-1.697,0.727-1.697,1.697H412.703z"/>
<path fill="none" stroke="#000000" stroke-linejoin="round" d="M422.037,297.666l-3.637-2.061v2.424"/>
<path d="M424.097,305.06h-1.454l-2.304-3.879l0,0c0,0.727,0.121,1.212,0.121,1.454v2.425h-0.97v-5.213h1.334l2.303,3.879l0,0
	c0-0.727,0-1.212,0-1.454v-2.425h0.97V305.06z M430.158,302.393c0,0.849-0.242,1.576-0.605,1.94
	c-0.485,0.484-1.091,0.727-1.818,0.727c-0.849,0-1.455-0.243-1.818-0.727c-0.485-0.485-0.606-1.091-0.606-1.94
	c0-0.849,0.243-1.576,0.606-1.939c0.485-0.485,1.091-0.728,1.818-0.728c0.849,0,1.454,0.242,1.818,0.728
	C429.916,300.817,430.158,301.544,430.158,302.393z M426.401,302.393c0,0.607,0.121,0.97,0.363,1.333
	c0.242,0.243,0.605,0.485,0.97,0.485c0.849,0,1.333-0.606,1.333-1.697c0-1.212-0.484-1.697-1.333-1.697
	c-0.485,0-0.728,0.121-0.97,0.485C426.522,301.423,426.401,301.787,426.401,302.393z"/>
</svg>
