<svg width="24" height="24" viewBox="0 0 24 24" fill="none" xmlns="http://www.w3.org/2000/svg">
<path d="M17.5 10V4.5H4.5V17.5H12" stroke="#231815" stroke-miterlimit="10"/>
<path d="M6 3H3V6H6V3Z" fill="#231815"/>
<path d="M19 3H16V6H19V3Z" fill="#231815"/>
<path d="M6 16H3V19H6V16Z" fill="#231815"/>
<path d="M19.2056 21L18.5202 18.6276H15.4798L14.7944 21H13L15.9907 12H17.9969L21 21H19.2056ZM17.4112 14.9372C17.378 14.8033 17.3323 14.6444 17.2741 14.4603C17.2243 14.2678 17.1745 14.0711 17.1246 13.8703C17.0831 13.6695 17.0415 13.4812 17 13.3054C16.9668 13.5063 16.9252 13.7071 16.8754 13.908C16.8255 14.1004 16.7757 14.2845 16.7259 14.4603C16.6843 14.636 16.6428 14.795 16.6012 14.9372L15.9034 17.2469H18.1215L17.4112 14.9372Z" fill="#231815"/>
</svg>
