<svg width="24" height="24" viewBox="0 0 24 24" fill="none" xmlns="http://www.w3.org/2000/svg">
<path d="M4.5 18C4.5 18.2761 4.72386 18.5 5 18.5H16.5C16.6894 18.5 16.8625 18.393 16.9472 18.2236L19.4472 13.2236C19.5247 13.0686 19.5164 12.8845 19.4253 12.7371C19.3342 12.5897 19.1733 12.5 19 12.5H17.5V8.5C17.5 8.22386 17.2761 8 17 8H12.7071L10.3536 5.64645C10.2598 5.55268 10.1326 5.5 10 5.5H5C4.72386 5.5 4.5 5.72386 4.5 6V18Z" stroke="#231815" stroke-linejoin="round"/>
<path d="M8.78571 12.5C8.60435 12.5 8.4372 12.5982 8.34893 12.7566L5.56322 17.7566C5.47694 17.9115 5.47911 18.1005 5.56891 18.2533C5.65872 18.4061 5.82273 18.5 6 18.5H16.5C16.6894 18.5 16.8625 18.393 16.9472 18.2236L19.4472 13.2236C19.5247 13.0686 19.5164 12.8845 19.4253 12.7371C19.3342 12.5897 19.1733 12.5 19 12.5H8.78571Z" stroke="#231815" stroke-linejoin="round"/>
</svg>
