<svg width="24" height="24" viewBox="0 0 24 24" fill="none" xmlns="http://www.w3.org/2000/svg">
<path d="M11.9396 9.09961C13.5896 9.09961 14.9396 10.4496 14.9396 12.0996C14.9396 12.3996 14.8796 12.6796 14.7996 12.9496L15.5796 13.7396C15.8096 13.2396 15.9396 12.6796 15.9396 12.0996C15.9396 9.88961 14.1496 8.09961 11.9396 8.09961C11.3696 8.09961 10.8396 8.21961 10.3496 8.42961L11.1296 9.21961C11.3896 9.14961 11.6596 9.08961 11.9396 9.08961V9.09961Z" fill="#231815"/>
<path d="M11.9395 15.1001C10.2895 15.1001 8.93945 13.7501 8.93945 12.1001C8.93945 11.8501 8.97945 11.6101 9.03945 11.3801L8.24945 10.5801C8.04945 11.0501 7.93945 11.5701 7.93945 12.1101C7.93945 14.3201 9.72945 16.1101 11.9395 16.1101C12.4595 16.1101 12.9495 16.0001 13.4095 15.8201L12.6195 15.0201C12.3995 15.0701 12.1695 15.1001 11.9395 15.1001Z" fill="#231815"/>
<path d="M11.9995 17.1607C8.37945 17.1607 4.97945 15.2207 3.07945 12.0807C3.91945 10.6907 5.06945 9.5507 6.38945 8.6907L5.67945 7.9707C4.21945 8.9507 2.96945 10.2507 2.06945 11.8307C1.97945 11.9807 1.97945 12.1707 2.06945 12.3307C4.11945 15.9307 7.92945 18.1607 11.9995 18.1607C13.1095 18.1607 14.1895 17.9807 15.2295 17.6707L14.4295 16.8607C13.6395 17.0507 12.8295 17.1707 11.9995 17.1707V17.1607Z" fill="#231815"/>
<path d="M11.9995 7C15.6195 7 19.0195 8.94 20.9195 12.08C20.0295 13.54 18.8095 14.73 17.4095 15.6L18.1195 16.33C19.6595 15.34 20.9895 13.99 21.9295 12.33C22.0195 12.18 22.0195 11.99 21.9295 11.83C19.8795 8.24 16.0795 6 11.9995 6C10.7995 6 9.62953 6.21 8.51953 6.58L9.29953 7.37C10.1695 7.13 11.0795 7 11.9995 7Z" fill="#231815"/>
<path d="M3.5 3.5L20.5 20.5" stroke="#231815" stroke-linecap="round" stroke-linejoin="round"/>
</svg>
