<svg width="20" height="20" viewBox="0 0 20 20" fill="none" xmlns="http://www.w3.org/2000/svg">
<path fill-rule="evenodd" clip-rule="evenodd" d="M11.2493 9.95833C11.2576 10.2072 11.1914 10.4528 11.0592 10.6638C10.927 10.8747 10.7348 11.0414 10.5072 11.1425C10.2797 11.2435 10.0271 11.2743 9.78199 11.2308C9.53684 11.1874 9.31023 11.0718 9.13122 10.8987C8.95222 10.7257 8.82896 10.5031 8.77725 10.2596C8.72555 10.0161 8.74775 9.76262 8.84101 9.53177C8.93427 9.30093 9.09434 9.10319 9.30071 8.96391C9.50708 8.82462 9.75033 8.75014 9.99931 8.75C10.3308 8.75 10.6488 8.8817 10.8832 9.11612C11.1176 9.35054 11.2493 9.66848 11.2493 10" fill="#231815"/>
<path d="M15.8337 9.99935C15.8337 11.1531 15.4915 12.2809 14.8506 13.2402C14.2096 14.1995 13.2986 14.9471 12.2326 15.3886C11.1667 15.8302 9.99386 15.9457 8.8623 15.7206C7.73075 15.4955 6.69134 14.9399 5.87554 14.1241C5.05973 13.3083 4.50416 12.2689 4.27908 11.1374C4.054 10.0058 4.16952 8.83293 4.61103 7.76703C5.05254 6.70113 5.80022 5.79008 6.7595 5.14911C7.71879 4.50813 8.8466 4.16602 10.0003 4.16602C11.5474 4.16602 13.0312 4.7806 14.1251 5.87456C15.2191 6.96852 15.8337 8.45225 15.8337 9.99935V9.99935Z" stroke="#231815" stroke-miterlimit="10"/>
<path d="M18.333 10L13.333 10" stroke="#231815" stroke-miterlimit="10"/>
<path d="M6.66699 10L1.66699 10" stroke="#231815" stroke-miterlimit="10"/>
<path d="M10 1.66602V6.66602" stroke="#231815" stroke-miterlimit="10"/>
<path d="M10 13.334V18.334" stroke="#231815" stroke-miterlimit="10"/>
</svg>
