<svg width="24" height="24" viewBox="0 0 24 24" fill="none" xmlns="http://www.w3.org/2000/svg">
<path d="M17.5 10V4.5H4.5V17.5H10" stroke="#F37321" stroke-miterlimit="10"/>
<path d="M6 3H3V6H6V3Z" fill="#F37321"/>
<path d="M19 3H16V6H19V3Z" fill="#F37321"/>
<path d="M6 16H3V19H6V16Z" fill="#F37321"/>
<path d="M15.6503 21L13.4601 13.6261H13.4098C13.4182 13.7941 13.4308 14.0336 13.4476 14.3445C13.4643 14.6471 13.4769 14.979 13.4853 15.3403C13.5021 15.6933 13.5105 16.0252 13.5105 16.3361V21H12V12H14.3161L16.4559 19.0714H16.4937L18.6713 12H21V21H19.414V16.2605C19.414 15.9748 19.4182 15.6639 19.4266 15.3277C19.435 14.9832 19.4476 14.6597 19.4643 14.3571C19.4811 14.0462 19.4937 13.8067 19.5021 13.6387H19.4517L17.1986 21H15.6503Z" fill="#F37321"/>
</svg>
